<svg
	version="1.1"
	id="beta"
	xmlns="http://www.w3.org/2000/svg"
	viewBox="1056 149 202 283"
>
	<g>
		<path
			fill="#030E4E"
			d="M1257.986,159.439c0-5.566-4.513-10.079-10.078-10.079l0,0h-181.425l0,0l0,0
			c-5.566,0-10.079,4.513-10.079,10.079l0,0v262.058c0,5.566,4.513,10.079,10.079,10.079c0.007,0,0.015,0,0.022,0h181.38
			c0.007,0,0.015,0,0.021,0c5.566,0,10.079-4.513,10.079-10.079V159.439L1257.986,159.439z"
		/>
		<g>
			<g>
				<g>
					<path
						fill="#AD8726"
						d="M1091.846,165.745c-2.576-0.734-2.96-2.686-2.964-2.705c0,0-0.829,1.598,0.496,2.684l-3.16-0.629
						l-4.886,1.745l4.886,1.745l3.16-0.628c-1.325,1.085-0.496,2.683-0.496,2.683c0.004-0.02,0.388-1.971,2.964-2.704l3.372-1.096
						L1091.846,165.745z"
					/>
					<path
						fill="#AD8726"
						d="M1244.495,394.681c1.599,0.73,3.022-2.651,3.022-2.651c-0.01,0.005-0.996,0.421-2.118-0.091
						c-0.834-0.379-1.849-1.398-2.615-2.717c0.191-0.261,0.308-0.579,0.308-0.928c0-0.678-0.428-1.251-1.027-1.476V269.873v-0.833
						v-23.826l-0.159-0.162c-0.037-0.037-2.061-2.117-4.04-5.016v-15.309l-0.609,0.054c-0.077,0.007-1.923,0.188-3.183,1.819
						c-1.044,1.354-1.363,3.263-0.948,5.673c0.492,2.85,2.026,5.746,3.62,8.126v3.914c-5.541-4.567-8.109-13.564-7.015-19.548
						c0.587-3.203,2.161-5.287,4.434-5.868c1.657-0.425,3.1-0.224,4.283,0.598c2.908,2.018,3.476,7.105,3.48,7.157l0.116,1.102
						l0.819-0.748c0.053-0.048,5.188-4.87,0.222-12.038c-2.436-3.515-5.945-4.824-9.338-6.091
						c-4.287-1.599-8.336-3.109-10.331-8.853c-0.888-2.556-0.09-6.088,1.987-8.789c1.388-1.807,4.528-4.776,9.973-4.393
						c0.479,0.034,0.932,0.105,1.369,0.195v6.123c-1.325,0.016-2.987,0.782-3.878,2.962c-0.857,2.095-0.057,4.835,1.903,6.514
						c1.796,1.538,4.063,1.777,6.314,0.717v4.69c-0.888-0.619-1.887-0.945-2.993-1.307c-1.994-0.65-4.476-1.459-7.686-4.427
						c-1.321-1.221-1.975-2.611-1.945-4.134c0.07-3.594,3.851-6.866,3.889-6.899c0.235-0.2,0.263-0.553,0.062-0.787
						c-0.2-0.234-0.554-0.261-0.789-0.062c-0.171,0.146-4.198,3.624-4.281,7.722c-0.037,1.856,0.738,3.532,2.305,4.98
						c3.391,3.132,6,3.984,8.098,4.668c1.438,0.469,2.573,0.84,3.484,1.855l0.978,1.089v-8.05c2.63-1.83,3.79-5.203,2.938-8.777
						c-0.416-1.742-1.374-3.665-2.938-5.213v-22.562h-22.621c-1.554-1.559-3.48-2.514-5.228-2.929
						c-3.581-0.851-6.965,0.306-8.802,2.929h-8.071l1.093,0.976c1.018,0.908,1.39,2.041,1.86,3.476
						c0.686,2.091,1.539,4.693,4.681,8.075c1.418,1.525,3.055,2.3,4.864,2.3c0.044,0,0.086,0,0.129-0.002
						c4.109-0.083,7.596-4.099,7.742-4.269c0.201-0.234,0.174-0.589-0.062-0.788s-0.588-0.172-0.789,0.062
						c-0.033,0.038-3.302,3.805-6.914,3.878c-1.484,0.024-2.923-0.622-4.148-1.939c-2.976-3.202-3.787-5.677-4.439-7.665
						c-0.361-1.104-0.688-2.1-1.31-2.985h4.702c-1.063,2.246-0.824,4.506,0.72,6.298c1.684,1.954,4.431,2.751,6.531,1.898
						c2.184-0.889,2.947-2.546,2.967-3.868h6.143c0.09,0.438,0.162,0.887,0.195,1.365c0.387,5.43-2.593,8.563-4.404,9.946
						c-2.709,2.071-6.252,2.869-8.813,1.982c-5.759-1.99-7.273-6.027-8.877-10.303c-1.27-3.385-2.582-6.885-6.107-9.314
						c-7.186-4.955-12.021,0.17-12.07,0.222l-0.75,0.818l1.105,0.114c0.052,0.006,5.146,0.563,7.174,3.469
						c0.824,1.18,1.026,2.618,0.602,4.274c-0.582,2.267-2.672,3.837-5.885,4.422c-6,1.087-15.02-1.468-19.6-6.996h3.925
						c2.387,1.589,5.29,3.119,8.147,3.61c2.423,0.412,4.33,0.095,5.688-0.945c1.636-1.257,1.817-3.097,1.824-3.175l0.054-0.607
						h-15.35c-2.906-1.974-4.991-3.991-5.028-4.029l-0.163-0.158h-24.107h-0.619h-38.201c-2.047-0.716-3.751-2.19-4.271-3.326
						c-0.515-1.119-0.096-2.104-0.091-2.112c0,0-3.392,1.42-2.659,3.015c0.681,1.482,0.131,2.21,2.675,2.937
						c-0.002,0.017-0.009,0.03-0.009,0.045c0,0.016,0.007,0.028,0.009,0.045c-2.544,0.728-1.994,1.454-2.675,2.938
						c-0.732,1.595,2.659,3.015,2.659,3.015c-0.005-0.01-0.424-0.994,0.091-2.112c0.521-1.136-1.513-2.61,0.533-3.326h41.939h0.619
						h23.653c0.466,0.44,1.826,1.689,3.692,3.071h-4.545l0.619,0.88c4.709,6.694,14.775,9.538,21.391,8.332
						c3.668-0.668,6.071-2.53,6.768-5.243c0.51-1.985,0.252-3.73-0.767-5.19c-1.671-2.392-4.955-3.37-6.747-3.739
						c1.537-1.069,5-2.588,9.733,0.674c3.235,2.229,4.43,5.414,5.694,8.786c1.624,4.33,3.303,8.806,9.559,10.968
						c0.831,0.287,1.733,0.425,2.672,0.425c2.391,0,5.004-0.905,7.189-2.575c3.385-2.588,5.148-6.565,4.841-10.912
						c-0.032-0.447-0.095-0.872-0.17-1.287h14.349v14.31c-0.415-0.074-0.842-0.137-1.29-0.169
						c-4.353-0.307-8.347,1.453-10.941,4.828c-2.331,3.033-3.178,6.894-2.156,9.835c2.167,6.238,6.655,7.913,10.996,9.533
						c3.382,1.261,6.575,2.451,8.811,5.679c3.269,4.719,1.748,8.174,0.676,9.707c-0.37-1.787-1.352-5.063-3.75-6.729
						c-1.463-1.016-3.214-1.274-5.203-0.766c-2.722,0.695-4.588,3.093-5.257,6.75c-1.209,6.604,1.643,16.638,8.354,21.333
						l0.882,0.617v-4.531c1.386,1.86,2.638,3.218,3.08,3.682v23.374v0.833v116.945c-0.6,0.225-1.027,0.798-1.027,1.476
						c0,0.349,0.116,0.667,0.308,0.928c-0.767,1.318-1.781,2.338-2.615,2.717c-1.122,0.512-2.108,0.096-2.118,0.091
						c0,0,1.424,3.382,3.022,2.651c1.202-0.548,1.906-2.729,2.518-4.885c0.096,0.031,0.193,0.051,0.296,0.063l-0.921,5.944
						c-0.736,2.57-2.693,2.951-2.713,2.956c0,0,1.603,0.827,2.69-0.495l-0.63,3.151l1.75,4.873l1.75-4.873l-0.63-3.151
						c1.088,1.322,2.69,0.495,2.69,0.495c-0.02-0.005-1.977-0.386-2.713-2.956l-0.92-5.944c0.102-0.013,0.199-0.032,0.295-0.063
						C1242.589,391.952,1243.293,394.133,1244.495,394.681z M1182.146,171.587c-0.169,0.507-0.525,1.232-1.26,1.79
						c-1.098,0.835-2.715,1.081-4.8,0.719c-2.104-0.361-4.272-1.354-6.221-2.509H1182.146z M1241.218,202.031
						c-2.037,1.213-4.121,1.127-5.718-0.241c-1.579-1.354-2.266-3.608-1.596-5.246c0.679-1.659,1.888-2.242,2.841-2.264v1.041
						c0,0.308,0.251,0.558,0.561,0.558c0.309,0,0.56-0.25,0.56-0.558v-0.746c0.231,0.161,0.389,0.374,0.427,0.622
						c0.2,1.298-1.487,1.8-1.56,1.821c-0.297,0.085-0.47,0.394-0.385,0.688c0.085,0.296,0.389,0.466,0.689,0.385
						c0.939-0.263,2.643-1.243,2.361-3.065c-0.121-0.785-0.702-1.399-1.533-1.688v-6.008c1.345,0.446,2.463,1.151,3.366,1.997
						c0.019,0.021,0.039,0.037,0.061,0.055c1.477,1.406,2.376,3.184,2.761,4.792C1244.85,197.505,1243.763,200.515,1241.218,202.031
						z M1214.936,170.47c-0.291-0.829-0.905-1.408-1.692-1.528c-1.82-0.278-2.81,1.416-3.074,2.354
						c-0.084,0.297,0.089,0.603,0.386,0.688c0.299,0.082,0.606-0.089,0.691-0.384c0.021-0.071,0.515-1.751,1.826-1.556
						c0.249,0.038,0.462,0.193,0.623,0.425h-0.748c-0.31,0-0.56,0.25-0.56,0.559s0.25,0.559,0.56,0.559h1.045
						c-0.02,0.95-0.607,2.156-2.271,2.834c-1.646,0.668-3.904-0.018-5.261-1.592c-1.371-1.593-1.459-3.67-0.241-5.702
						c1.519-2.538,4.539-3.622,7.877-2.828c1.613,0.384,3.395,1.281,4.805,2.754c0.018,0.021,0.034,0.042,0.055,0.06
						c0.849,0.901,1.555,2.016,2.002,3.357H1214.936z M1222.13,170.47c-0.361-1.23-0.912-2.299-1.59-3.211h20.545v20.491
						c-0.914-0.678-1.986-1.228-3.22-1.587V170.47H1222.13z M1236.745,238.288c-1.158-1.943-2.153-4.105-2.516-6.205
						c-0.359-2.08-0.116-3.69,0.721-4.786c0.56-0.733,1.288-1.088,1.795-1.257V238.288z"
					/>
				</g>
				<g>
					<path
						fill="#AD8726"
						d="M1241.267,421.497l-6.641-6.623l6.641-6.621l6.641,6.621L1241.267,421.497z M1236.21,414.874
						l5.057,5.044l5.057-5.044l-5.057-5.042L1236.21,414.874z"
					/>
				</g>
				<g>
					<path
						fill="#AD8726"
						d="M1073.123,173.388l-6.641-6.624l6.641-6.621l6.641,6.621L1073.123,173.388z M1068.066,166.764
						l5.057,5.044l5.058-5.044l-5.058-5.042L1068.066,166.764z"
					/>
				</g>
			</g>
			<g>
				<g>
					<path
						fill="#AD8726"
						d="M1222.546,415.896c2.574,0.733,2.959,2.685,2.963,2.704c0,0,0.829-1.598-0.496-2.683l3.16,0.628
						l4.885-1.746l-4.885-1.744l-3.16,0.628c1.325-1.085,0.496-2.683,0.496-2.683c-0.004,0.02-0.389,1.971-2.963,2.704l-3.373,1.095
						L1222.546,415.896z"
					/>
					<path
						fill="#AD8726"
						d="M1069.896,186.959c-1.599-0.73-3.022,2.65-3.022,2.65c0.009-0.004,0.995-0.421,2.117,0.092
						c0.836,0.38,1.849,1.398,2.616,2.716c-0.192,0.262-0.309,0.58-0.309,0.93c0,0.676,0.429,1.25,1.028,1.474v116.946v0.834v23.825
						l0.159,0.163c0.037,0.037,2.061,2.116,4.04,5.015v15.309l0.608-0.054c0.078-0.006,1.922-0.188,3.183-1.819
						c1.045-1.354,1.364-3.263,0.949-5.673c-0.492-2.851-2.028-5.746-3.62-8.126v-3.914c5.54,4.568,8.108,13.565,7.015,19.548
						c-0.586,3.203-2.161,5.288-4.434,5.867c-1.658,0.426-3.1,0.225-4.283-0.597c-2.909-2.017-3.476-7.105-3.481-7.157l-0.116-1.102
						l-0.818,0.747c-0.053,0.049-5.188,4.87-0.223,12.039c2.437,3.515,5.944,4.824,9.34,6.091c4.287,1.599,8.335,3.109,10.33,8.853
						c0.888,2.557,0.09,6.088-1.988,8.789c-1.387,1.807-4.527,4.777-9.972,4.394c-0.48-0.034-0.932-0.106-1.369-0.196v-6.123
						c1.325-0.016,2.987-0.782,3.878-2.962c0.857-2.095,0.057-4.835-1.903-6.514c-1.795-1.539-4.063-1.777-6.314-0.718v-4.689
						c0.889,0.619,1.886,0.945,2.992,1.307c1.995,0.65,4.476,1.459,7.687,4.428c1.321,1.221,1.975,2.61,1.944,4.134
						c-0.07,3.594-3.85,6.866-3.889,6.898c-0.234,0.2-0.263,0.553-0.062,0.788c0.201,0.233,0.554,0.26,0.79,0.06
						c0.17-0.146,4.197-3.623,4.28-7.721c0.037-1.856-0.737-3.531-2.304-4.979c-3.39-3.134-6-3.985-8.098-4.669
						c-1.438-0.469-2.574-0.84-3.484-1.854l-0.978-1.091v8.051c-2.631,1.83-3.791,5.203-2.938,8.777
						c0.416,1.743,1.374,3.665,2.938,5.212v22.563h22.621c1.552,1.559,3.48,2.515,5.228,2.93c3.58,0.849,6.964-0.307,8.801-2.93
						h8.072l-1.094-0.976c-1.017-0.909-1.389-2.041-1.859-3.475c-0.687-2.092-1.539-4.695-4.681-8.075
						c-1.419-1.527-3.056-2.3-4.864-2.3c-0.044,0-0.088,0-0.129,0.001c-4.11,0.083-7.597,4.099-7.743,4.27
						c-0.201,0.234-0.173,0.587,0.062,0.787c0.236,0.199,0.588,0.172,0.789-0.062c0.033-0.038,3.303-3.806,6.914-3.879
						c1.485-0.022,2.923,0.624,4.149,1.941c2.975,3.201,3.786,5.676,4.438,7.664c0.363,1.104,0.688,2.1,1.31,2.986h-4.702
						c1.063-2.247,0.824-4.506-0.72-6.299c-1.683-1.954-4.43-2.75-6.531-1.897c-2.185,0.887-2.946,2.545-2.966,3.867h-6.143
						c-0.09-0.438-0.161-0.888-0.196-1.366c-0.385-5.429,2.594-8.562,4.405-9.945c2.708-2.071,6.251-2.869,8.813-1.981
						c5.759,1.989,7.272,6.026,8.876,10.302c1.271,3.385,2.583,6.886,6.106,9.314c7.188,4.954,12.024-0.169,12.072-0.222l0.75-0.818
						l-1.106-0.114c-0.051-0.006-5.145-0.563-7.173-3.469c-0.824-1.18-1.027-2.619-0.601-4.274c0.581-2.267,2.67-3.837,5.884-4.422
						c5.999-1.087,15.02,1.469,19.6,6.996h-3.926c-2.387-1.589-5.289-3.119-8.147-3.61c-2.422-0.412-4.329-0.095-5.688,0.946
						c-1.636,1.257-1.817,3.096-1.824,3.174l-0.055,0.606h15.351c2.905,1.975,4.992,3.993,5.029,4.029l0.161,0.16h24.108h0.619
						h38.201c2.045,0.715,3.752,2.19,4.271,3.325c0.515,1.119,0.095,2.104,0.09,2.113c0,0,3.393-1.421,2.66-3.016
						c-0.681-1.482-0.131-2.209-2.675-2.938c0.002-0.016,0.009-0.029,0.009-0.045c0-0.015-0.007-0.028-0.009-0.043
						c2.544-0.729,1.994-1.455,2.675-2.938c0.732-1.595-2.66-3.016-2.66-3.016c0.005,0.01,0.425,0.994-0.09,2.113
						c-0.52,1.135,1.512,2.61-0.533,3.325h-41.939h-0.619h-23.653c-0.466-0.44-1.826-1.689-3.692-3.072h4.543l-0.619-0.878
						c-4.707-6.695-14.774-9.539-21.389-8.332c-3.668,0.667-6.072,2.529-6.768,5.242c-0.51,1.985-0.252,3.73,0.766,5.189
						c1.671,2.394,4.956,3.371,6.747,3.74c-1.537,1.07-5,2.588-9.733-0.673c-3.234-2.23-4.429-5.415-5.693-8.788
						c-1.625-4.328-3.303-8.805-9.559-10.967c-0.831-0.287-1.734-0.426-2.673-0.426c-2.391,0-5.005,0.905-7.189,2.577
						c-3.384,2.587-5.149,6.564-4.841,10.911c0.033,0.447,0.094,0.873,0.171,1.287h-14.349v-14.311
						c0.415,0.075,0.842,0.138,1.29,0.17c4.353,0.307,8.347-1.454,10.941-4.827c2.331-3.034,3.178-6.894,2.156-9.836
						c-2.167-6.239-6.655-7.913-10.997-9.533c-3.382-1.261-6.575-2.452-8.811-5.68c-3.269-4.718-1.748-8.174-0.676-9.706
						c0.371,1.787,1.352,5.063,3.751,6.729c1.463,1.015,3.213,1.274,5.203,0.765c2.722-0.695,4.587-3.093,5.257-6.75
						c1.209-6.603-1.644-16.638-8.354-21.333l-0.882-0.618v4.532c-1.387-1.86-2.638-3.217-3.079-3.682v-23.373v-0.834V194.82
						c0.599-0.224,1.025-0.798,1.025-1.474c0-0.35-0.116-0.668-0.307-0.93c0.766-1.317,1.781-2.336,2.614-2.716
						c1.122-0.513,2.108-0.096,2.119-0.092c0,0-1.424-3.381-3.022-2.65c-1.203,0.547-1.907,2.729-2.518,4.884
						c-0.097-0.03-0.195-0.05-0.295-0.063l0.92-5.943c0.735-2.57,2.693-2.952,2.713-2.956c0,0-1.604-0.827-2.69,0.495l0.63-3.152
						l-1.75-4.873l-1.75,4.873l0.63,3.152c-1.089-1.322-2.69-0.495-2.69-0.495c0.02,0.004,1.976,0.386,2.713,2.956l0.921,5.943
						c-0.104,0.014-0.201,0.033-0.296,0.063C1071.801,189.688,1071.097,187.506,1069.896,186.959z M1132.245,410.053
						c0.168-0.508,0.524-1.232,1.26-1.789c1.098-0.836,2.714-1.082,4.799-0.72c2.104,0.361,4.273,1.354,6.221,2.509H1132.245z
						 M1073.173,379.608c2.036-1.213,4.12-1.127,5.717,0.241c1.58,1.354,2.267,3.607,1.597,5.246
						c-0.68,1.658-1.889,2.242-2.841,2.264v-1.041c0-0.309-0.252-0.558-0.561-0.558c-0.311,0-0.56,0.249-0.56,0.558v0.746
						c-0.233-0.161-0.39-0.373-0.427-0.621c-0.201-1.3,1.487-1.801,1.56-1.821c0.296-0.085,0.469-0.394,0.386-0.69
						c-0.086-0.295-0.39-0.466-0.691-0.385c-0.938,0.265-2.643,1.243-2.36,3.066c0.12,0.784,0.701,1.398,1.533,1.688v6.008
						c-1.347-0.446-2.463-1.15-3.367-1.997c-0.019-0.021-0.038-0.037-0.061-0.055c-1.476-1.406-2.376-3.184-2.76-4.791
						C1069.541,384.136,1070.629,381.125,1073.173,379.608z M1099.455,411.169c0.29,0.829,0.905,1.409,1.692,1.53
						c1.82,0.278,2.809-1.417,3.073-2.355c0.083-0.297-0.089-0.603-0.385-0.688c-0.3-0.084-0.608,0.088-0.691,0.384
						c-0.021,0.07-0.516,1.751-1.826,1.555c-0.249-0.038-0.461-0.193-0.623-0.426h0.748c0.309,0,0.56-0.249,0.56-0.558
						c0-0.31-0.251-0.559-0.56-0.559h-1.046c0.02-0.95,0.607-2.156,2.271-2.834c1.647-0.667,3.904,0.018,5.261,1.592
						c1.371,1.592,1.459,3.67,0.242,5.702c-1.52,2.538-4.54,3.622-7.878,2.828c-1.612-0.384-3.395-1.281-4.805-2.754
						c-0.018-0.021-0.034-0.041-0.054-0.06c-0.849-0.902-1.555-2.016-2.004-3.358H1099.455z M1092.26,411.169
						c0.361,1.23,0.912,2.299,1.591,3.213h-20.545V393.89c0.914,0.677,1.986,1.228,3.22,1.587v15.692H1092.26z M1077.646,343.353
						c1.157,1.941,2.152,4.105,2.516,6.204c0.358,2.081,0.115,3.69-0.723,4.787c-0.558,0.732-1.285,1.087-1.793,1.256V343.353z"
					/>
				</g>
				<g>
					<path
						fill="#AD8726"
						d="M1073.123,160.143l6.641,6.623l-6.641,6.622l-6.641-6.622L1073.123,160.143z M1078.181,166.766
						l-5.058-5.044l-5.057,5.044l5.057,5.042L1078.181,166.766z"
					/>
				</g>
				<g>
					<path
						fill="#AD8726"
						d="M1241.267,408.253l6.641,6.622l-6.641,6.622l-6.641-6.622L1241.267,408.253z M1246.323,414.875
						l-5.057-5.043l-5.057,5.043l5.057,5.043L1246.323,414.875z"
					/>
				</g>
			</g>
			<g>
				<g>
					<g>
						<path
							fill="#AD8726"
							d="M1178.629,313.931c-1.68,0-3.512-0.636-5.04-1.809c-2.355-1.807-3.582-4.58-3.368-7.608
							c0.288-4.054,3.274-6.18,5.744-6.769c2.658-0.641,5.184,0.293,6.425,2.365c1.037,1.731,0.941,3.597-0.255,4.992
							c-1.199,1.399-3.167,1.968-4.675,1.354c-1.758-0.717-2.246-2.138-2.127-3.137c0.104-0.893,0.66-1.545,1.415-1.66
							c1.38-0.216,2.104,1.046,2.301,1.738c0.083,0.298-0.09,0.607-0.388,0.691c-0.295,0.084-0.605-0.089-0.69-0.385
							c-0.016-0.055-0.319-1.04-1.053-0.938c-0.238,0.037-0.429,0.312-0.472,0.685c-0.072,0.609,0.26,1.489,1.436,1.969
							c1.059,0.43,2.521-0.018,3.402-1.046c0.519-0.603,1.225-1.884,0.145-3.688c-1.194-1.995-3.472-2.264-5.204-1.852
							c-2.102,0.502-4.642,2.311-4.886,5.758c-0.259,3.623,1.726,5.717,2.932,6.642c1.811,1.389,4.17,1.924,5.876,1.338
							c3.859-1.333,4.881-4.058,5.963-6.942c0.879-2.342,1.787-4.763,4.244-6.456c5.041-3.472,8.453,0.14,8.488,0.178
							c0.142,0.155,0.185,0.378,0.11,0.576c-0.075,0.197-0.255,0.337-0.465,0.358c-0.035,0.005-3.453,0.386-4.786,2.306
							c-0.537,0.771-0.66,1.679-0.38,2.771c0.512,1.992,2.648,2.667,3.878,2.892c3.945,0.722,9.833-0.896,12.995-4.431h-2.245
							c-1.64,1.088-3.632,2.13-5.595,2.467c-1.706,0.292-3.063,0.063-4.032-0.684c-1.178-0.905-1.31-2.237-1.313-2.294
							c-0.016-0.156,0.037-0.312,0.145-0.428c0.104-0.116,0.256-0.182,0.413-0.182h10.028c1.948-1.33,3.345-2.682,3.369-2.705
							c0.104-0.104,0.246-0.16,0.392-0.16h16.759c0.311,0,0.56,0.25,0.56,0.56s-0.249,0.561-0.56,0.561h-16.534
							c-0.319,0.3-1.061,0.972-2.066,1.745h1.842c0.21,0,0.401,0.116,0.497,0.302c0.097,0.187,0.082,0.409-0.038,0.581
							c-3.265,4.641-10.229,6.608-14.816,5.77c-2.577-0.471-4.268-1.79-4.762-3.716c-0.361-1.407-0.178-2.649,0.546-3.691
							c1.053-1.512,3.009-2.222,4.307-2.54c-1.144-0.652-3.28-1.256-6.1,0.688c-2.168,1.493-2.976,3.646-3.83,5.927
							c-1.127,3-2.29,6.102-6.647,7.607C1179.926,313.832,1179.289,313.931,1178.629,313.931z M1198.304,303.823
							c0.129,0.287,0.348,0.628,0.715,0.906c0.711,0.538,1.768,0.693,3.146,0.456c1.212-0.207,2.459-0.727,3.616-1.362H1198.304z"
						/>
						<path
							fill="#AD8726"
							d="M1179.005,310.239c-0.03,0-0.062,0-0.092-0.001c-2.887-0.058-5.322-2.862-5.425-2.981
							c-0.201-0.233-0.175-0.587,0.061-0.788c0.235-0.2,0.587-0.174,0.79,0.059c0.021,0.026,2.217,2.545,4.601,2.591
							c0.988,0.003,1.89-0.396,2.703-1.271c2.008-2.16,2.558-3.832,2.997-5.175c0.217-0.657,0.413-1.259,0.739-1.81h-3.47
							c-0.311,0-0.56-0.25-0.56-0.56s0.249-0.56,0.56-0.56h4.646c0.232,0,0.44,0.143,0.523,0.36c0.082,0.217,0.022,0.463-0.15,0.617
							c-0.662,0.591-0.897,1.308-1.223,2.3c-0.476,1.448-1.066,3.249-3.242,5.59
							C1181.457,309.691,1180.296,310.239,1179.005,310.239z"
						/>
						<path
							fill="#AD8726"
							d="M1181.247,324.866c-0.072,0-0.145-0.014-0.212-0.042c-1.991-0.813-3.872-1.878-5.628-3.101
							c-5.194,2.061-10.022,3.173-11.974,1.335c-1.198-1.131-1.605-2.67-1.144-4.333c0.552-1.986,2.297-3.94,4.412-5.143
							c-4.229-5.037-6.699-9.706-6.884-10.061c-0.091-0.174-0.085-0.382,0.017-0.549c0.103-0.169,0.283-0.271,0.479-0.271h16.663
							c0.311,0,0.56,0.251,0.56,0.561c0,0.309-0.249,0.56-0.56,0.56h-15.711c0.919,1.6,3.188,5.325,6.502,9.232
							c0.514-0.217,1.038-0.387,1.565-0.501c2.534-0.548,4.809,0.193,6.405,2.096c0.198,0.236,0.167,0.591-0.07,0.788
							c-0.236,0.2-0.589,0.169-0.789-0.068c-1.685-2.009-3.817-2.044-5.309-1.721c-0.346,0.074-0.689,0.177-1.028,0.301
							c2.016,2.278,4.374,4.568,7.015,6.49c6.095-2.515,12.951-6.333,16.508-8.495c0.237-0.146,0.548-0.093,0.725,0.126
							c0.177,0.218,0.166,0.531-0.024,0.736l-11.109,11.881C1181.547,324.804,1181.397,324.866,1181.247,324.866z M1176.662,321.211
							c1.411,0.94,2.892,1.768,4.44,2.428l8.215-8.784C1186.164,316.647,1181.348,319.243,1176.662,321.211z M1167.44,314.444
							c-1.951,1.039-3.576,2.798-4.07,4.581c-0.245,0.879-0.3,2.151,0.831,3.217c1.481,1.394,5.487,0.498,10.12-1.306
							C1171.717,318.976,1169.408,316.696,1167.44,314.444z"
						/>
						<path
							fill="#AD8726"
							d="M1172.613,300.862h-15.267c-0.31,0-0.561-0.25-0.561-0.56s0.251-0.56,0.561-0.56h15.267
							c0.31,0,0.561,0.25,0.561,0.56S1172.923,300.862,1172.613,300.862z"
						/>
						<path
							fill="#AD8726"
							d="M1157.229,340.352c-0.096,0-0.189-0.024-0.275-0.072c-0.193-0.109-0.304-0.321-0.282-0.541
							l1.608-17.012c0.024-0.24,0.197-0.439,0.434-0.493c0.235-0.054,0.479,0.05,0.604,0.255c0.051,0.084,3.496,5.693,7.793,9.321
							l5.805-4.279c-12.147-7.827-16.363-26.309-16.54-27.106c-0.065-0.302,0.125-0.602,0.427-0.668
							c0.302-0.069,0.601,0.122,0.667,0.426c0.044,0.194,4.456,19.528,16.73,26.827c0.162,0.096,0.265,0.266,0.273,0.454
							c0.009,0.187-0.076,0.366-0.228,0.478l-6.229,4.593c1.899,1.431,3.929,2.379,5.869,2.294c2.503-0.133,4.112-1.14,4.649-2.915
							c0.624-2.052-0.354-4.664-1.645-5.629c-0.248-0.185-0.3-0.535-0.113-0.784c0.184-0.246,0.535-0.297,0.783-0.112
							c1.625,1.214,2.834,4.257,2.047,6.851c-0.393,1.295-1.651,3.497-5.663,3.707c-2.336,0.134-4.701-1.043-6.866-2.72
							l-9.516,7.018C1157.463,340.313,1157.347,340.352,1157.229,340.352z M1159.245,324.437l-1.341,14.16l8.278-6.103
							C1163.101,329.85,1160.533,326.346,1159.245,324.437z"
						/>
					</g>
					<g>
						<path
							fill="#AD8726"
							d="M1135.762,313.931c-0.66,0-1.297-0.099-1.883-0.301c-4.358-1.505-5.522-4.607-6.647-7.606
							c-0.855-2.28-1.662-4.434-3.832-5.928c-2.839-1.958-4.973-1.346-6.108-0.689c1.298,0.315,3.261,1.025,4.315,2.542
							c0.726,1.042,0.909,2.284,0.547,3.691c-0.495,1.926-2.186,3.246-4.764,3.716c-4.584,0.841-11.552-1.13-14.813-5.77
							c-0.12-0.172-0.135-0.395-0.038-0.581c0.096-0.186,0.287-0.302,0.497-0.302h1.842c-1.006-0.773-1.747-1.445-2.066-1.745
							h-16.536c-0.309,0-0.561-0.251-0.561-0.561s0.252-0.56,0.561-0.56h16.761c0.146,0,0.287,0.057,0.392,0.16
							c0.024,0.023,1.421,1.375,3.367,2.705h10.028c0.156,0,0.306,0.065,0.413,0.182c0.105,0.116,0.158,0.271,0.145,0.428
							c-0.006,0.057-0.136,1.389-1.314,2.296c-0.969,0.745-2.326,0.973-4.029,0.682c-1.964-0.337-3.954-1.379-5.595-2.467h-2.247
							c3.162,3.533,9.044,5.151,12.994,4.432c1.229-0.226,3.367-0.899,3.881-2.893c0.28-1.094,0.156-2.002-0.382-2.773
							c-1.339-1.925-4.749-2.299-4.783-2.304c-0.211-0.021-0.39-0.159-0.466-0.357c-0.075-0.198-0.031-0.422,0.11-0.577
							c0.035-0.038,3.447-3.652,8.486-0.178c2.459,1.693,3.367,4.115,4.246,6.457c1.081,2.884,2.104,5.608,5.963,6.941
							c1.706,0.586,4.065,0.052,5.875-1.338c1.205-0.925,3.189-3.019,2.931-6.642c-0.242-3.447-2.783-5.256-4.884-5.758
							c-1.731-0.412-4.01-0.144-5.205,1.852c-1.08,1.804-0.373,3.085,0.144,3.688c0.882,1.028,2.345,1.479,3.402,1.046
							c1.176-0.479,1.509-1.36,1.438-1.97c-0.044-0.372-0.234-0.646-0.473-0.684c-0.744-0.104-1.05,0.927-1.054,0.937
							c-0.085,0.298-0.396,0.469-0.691,0.387c-0.297-0.084-0.471-0.394-0.387-0.691c0.196-0.692,0.924-1.954,2.301-1.738
							c0.755,0.115,1.311,0.768,1.414,1.66c0.118,0.999-0.368,2.42-2.127,3.137c-1.508,0.614-3.475,0.046-4.674-1.354
							c-1.196-1.395-1.292-3.261-0.255-4.992c1.242-2.072,3.762-3.005,6.426-2.365c2.47,0.589,5.455,2.716,5.742,6.769
							c0.216,3.028-1.012,5.802-3.366,7.608C1139.273,313.295,1137.442,313.931,1135.762,313.931z M1108.61,303.823
							c1.158,0.636,2.402,1.155,3.614,1.362c1.373,0.236,2.434,0.083,3.146-0.456c0.367-0.278,0.586-0.619,0.714-0.906H1108.61z"
						/>
						<path
							fill="#AD8726"
							d="M1135.385,310.239c-1.29,0-2.453-0.548-3.457-1.629c-2.178-2.342-2.769-4.143-3.244-5.591
							c-0.324-0.992-0.56-1.71-1.22-2.299c-0.174-0.154-0.233-0.4-0.151-0.617c0.083-0.218,0.291-0.36,0.523-0.36h4.646
							c0.308,0,0.56,0.25,0.56,0.56s-0.252,0.56-0.56,0.56h-3.47c0.324,0.55,0.522,1.15,0.737,1.809
							c0.44,1.343,0.988,3.015,2.999,5.176c0.813,0.877,1.687,1.286,2.706,1.271c2.393-0.048,4.575-2.564,4.598-2.589
							c0.203-0.234,0.555-0.262,0.79-0.062c0.235,0.201,0.262,0.556,0.061,0.789c-0.102,0.119-2.537,2.924-5.426,2.981
							C1135.446,310.239,1135.414,310.239,1135.385,310.239z"
						/>
						<path
							fill="#AD8726"
							d="M1133.144,324.866c-0.152,0-0.302-0.063-0.409-0.178l-11.108-11.881
							c-0.193-0.205-0.204-0.519-0.026-0.736c0.176-0.219,0.485-0.271,0.726-0.126c3.556,2.162,10.413,5.98,16.508,8.496
							c2.641-1.922,5-4.213,7.015-6.491c-0.339-0.124-0.683-0.226-1.028-0.301c-1.494-0.323-3.626-0.288-5.311,1.721
							c-0.199,0.237-0.554,0.269-0.789,0.068c-0.238-0.198-0.269-0.552-0.07-0.788c1.597-1.902,3.873-2.646,6.406-2.096
							c0.528,0.115,1.055,0.284,1.566,0.502c3.313-3.908,5.584-7.634,6.502-9.233h-15.713c-0.309,0-0.56-0.251-0.56-0.56
							c0-0.31,0.251-0.561,0.56-0.561h16.665c0.194,0,0.376,0.102,0.479,0.271c0.101,0.167,0.106,0.375,0.018,0.549
							c-0.187,0.354-2.657,5.024-6.886,10.061c2.114,1.202,3.86,3.157,4.411,5.143c0.462,1.663,0.057,3.202-1.144,4.333
							c-1.951,1.838-6.78,0.725-11.973-1.335c-1.756,1.223-3.636,2.288-5.628,3.101
							C1133.286,324.853,1133.214,324.866,1133.144,324.866z M1125.072,314.854l8.214,8.784c1.55-0.66,3.031-1.487,4.441-2.428
							C1133.043,319.245,1128.226,316.647,1125.072,314.854z M1140.069,320.938c4.632,1.803,8.637,2.698,10.118,1.305
							c1.131-1.065,1.076-2.338,0.832-3.217c-0.495-1.783-2.119-3.541-4.07-4.58
							C1144.981,316.696,1142.673,318.976,1140.069,320.938z"
						/>
						<path
							fill="#AD8726"
							d="M1157.043,300.862h-15.266c-0.31,0-0.561-0.25-0.561-0.56s0.251-0.56,0.561-0.56h15.266
							c0.31,0,0.561,0.25,0.561,0.56S1157.353,300.862,1157.043,300.862z"
						/>
						<path
							fill="#AD8726"
							d="M1157.229,340.352c-0.117,0-0.233-0.036-0.332-0.108l-9.571-7.029
							c-2.167,1.682-4.536,2.869-6.879,2.73c-4.012-0.21-5.271-2.412-5.663-3.706c-0.788-2.593,0.42-5.637,2.044-6.852
							c0.248-0.185,0.6-0.134,0.784,0.112c0.186,0.249,0.136,0.6-0.112,0.784c-1.291,0.966-2.268,3.579-1.644,5.629
							c0.538,1.775,2.146,2.782,4.649,2.915c1.947,0.092,3.98-0.866,5.882-2.302l-6.242-4.584c-0.151-0.111-0.236-0.291-0.228-0.479
							s0.111-0.358,0.273-0.454c12.275-7.299,16.685-26.633,16.729-26.827c0.065-0.304,0.363-0.495,0.667-0.426
							c0.302,0.066,0.492,0.366,0.427,0.668c-0.178,0.798-4.39,19.278-16.536,27.105l5.816,4.271
							c4.291-3.628,7.728-9.228,7.778-9.312c0.125-0.205,0.365-0.311,0.603-0.255c0.235,0.054,0.409,0.251,0.434,0.491l1.678,17.012
							c0.021,0.22-0.088,0.433-0.28,0.541C1157.421,340.327,1157.324,340.352,1157.229,340.352z M1148.221,332.481l8.327,6.115
							l-1.397-14.169C1153.865,326.332,1151.301,329.836,1148.221,332.481z"
						/>
					</g>
				</g>
				<g>
					<g>
						<path
							fill="#AD8726"
							d="M1177.605,284.092c-0.534,0-1.083-0.064-1.641-0.197c-2.47-0.59-5.456-2.716-5.744-6.769
							c-0.214-3.028,1.013-5.802,3.367-7.609c2.13-1.634,4.849-2.224,6.924-1.507c4.357,1.506,5.521,4.607,6.647,7.607
							c0.854,2.28,1.662,4.434,3.83,5.927c2.817,1.941,4.956,1.338,6.098,0.687c-1.297-0.318-3.252-1.028-4.305-2.539
							c-0.724-1.042-0.908-2.284-0.546-3.692c0.494-1.926,2.185-3.245,4.762-3.716c4.582-0.838,11.551,1.129,14.816,5.771
							c0.12,0.172,0.135,0.396,0.038,0.58c-0.096,0.186-0.287,0.303-0.497,0.303h-1.842c1.006,0.773,1.747,1.445,2.066,1.745h16.534
							c0.311,0,0.56,0.25,0.56,0.56s-0.249,0.561-0.56,0.561h-16.759c-0.146,0-0.287-0.058-0.392-0.159
							c-0.024-0.025-1.421-1.376-3.369-2.706h-10.028c-0.157,0-0.309-0.066-0.413-0.183c-0.107-0.116-0.16-0.271-0.145-0.428
							c0.004-0.057,0.136-1.387,1.313-2.293c0.97-0.747,2.329-0.976,4.032-0.684c1.963,0.337,3.953,1.379,5.595,2.467h2.245
							c-3.162-3.534-9.045-5.155-12.995-4.432c-1.229,0.225-3.366,0.899-3.878,2.894c-0.281,1.093-0.156,2,0.381,2.772
							c1.34,1.925,4.75,2.299,4.783,2.302c0.212,0.021,0.392,0.161,0.467,0.358c0.075,0.198,0.031,0.421-0.11,0.577
							c-0.035,0.037-3.445,3.654-8.488,0.179c-2.457-1.693-3.365-4.115-4.244-6.456c-1.082-2.885-2.104-5.609-5.963-6.942
							c-1.704-0.588-4.065-0.053-5.876,1.338c-1.206,0.925-3.19,3.018-2.932,6.641c0.244,3.447,2.785,5.257,4.886,5.759
							c1.732,0.416,4.01,0.145,5.204-1.852c1.08-1.803,0.374-3.084-0.144-3.687c-0.88-1.028-2.345-1.478-3.403-1.047
							c-1.175,0.479-1.508,1.358-1.438,1.967c0.044,0.373,0.235,0.649,0.474,0.687c0.735,0.11,1.042-0.896,1.054-0.939
							c0.085-0.296,0.396-0.468,0.692-0.383c0.296,0.086,0.468,0.393,0.385,0.689c-0.197,0.692-0.925,1.952-2.3,1.739
							c-0.756-0.116-1.312-0.769-1.416-1.662c-0.117-0.999,0.369-2.42,2.127-3.135c1.506-0.614,3.477-0.045,4.676,1.354
							c1.195,1.395,1.29,3.261,0.254,4.991C1181.407,283.169,1179.624,284.092,1177.605,284.092z M1198.306,277.816h7.474
							c-1.157-0.635-2.403-1.155-3.615-1.362c-1.385-0.24-2.447-0.081-3.158,0.467
							C1198.649,277.195,1198.435,277.531,1198.306,277.816z"
						/>
						<path
							fill="#AD8726"
							d="M1186.555,281.896h-4.646c-0.311,0-0.56-0.25-0.56-0.56s0.249-0.561,0.56-0.561h3.47
							c-0.326-0.55-0.522-1.152-0.739-1.81c-0.439-1.343-0.989-3.015-2.997-5.176c-0.813-0.875-1.675-1.275-2.705-1.271
							c-2.394,0.048-4.576,2.565-4.598,2.591c-0.203,0.236-0.556,0.262-0.79,0.062c-0.236-0.201-0.263-0.555-0.062-0.79
							c0.103-0.119,2.538-2.924,5.425-2.982c1.312-0.033,2.52,0.521,3.55,1.628c2.176,2.341,2.767,4.143,3.242,5.59
							c0.325,0.993,0.56,1.711,1.223,2.3c0.173,0.155,0.232,0.4,0.15,0.618C1186.995,281.753,1186.787,281.896,1186.555,281.896z"
						/>
						<path
							fill="#AD8726"
							d="M1176.978,278.937h-16.663c-0.196,0-0.377-0.103-0.479-0.271c-0.102-0.167-0.107-0.375-0.017-0.549
							c0.185-0.354,2.655-5.024,6.886-10.062c-2.117-1.202-3.862-3.156-4.414-5.142c-0.462-1.664-0.055-3.203,1.144-4.334
							c1.951-1.837,6.778-0.726,11.974,1.335c1.756-1.223,3.637-2.289,5.628-3.102c0.215-0.087,0.461-0.033,0.621,0.136
							l11.109,11.882c0.19,0.205,0.201,0.52,0.024,0.736c-0.177,0.216-0.487,0.271-0.725,0.125
							c-3.557-2.161-10.414-5.979-16.508-8.494c-2.64,1.922-4.999,4.213-7.014,6.49c0.338,0.125,0.682,0.227,1.027,0.301
							c1.494,0.322,3.624,0.287,5.309-1.721c0.2-0.236,0.553-0.268,0.789-0.069c0.237,0.199,0.269,0.553,0.07,0.789
							c-1.597,1.901-3.874,2.646-6.405,2.096c-0.527-0.114-1.052-0.284-1.565-0.5c-3.313,3.907-5.583,7.632-6.502,9.232h15.711
							c0.311,0,0.56,0.25,0.56,0.56S1177.288,278.937,1176.978,278.937z M1166.503,258.715c-1.008,0-1.8,0.209-2.302,0.682
							c-1.131,1.065-1.076,2.338-0.831,3.218c0.494,1.782,2.119,3.541,4.07,4.58c1.969-2.252,4.276-4.531,6.881-6.493
							C1171.258,259.51,1168.469,258.715,1166.503,258.715z M1176.662,260.428c4.686,1.968,9.502,4.563,12.655,6.356l-8.215-8.785
							C1179.554,258.66,1178.072,259.487,1176.662,260.428z"
						/>
						<path
							fill="#AD8726"
							d="M1172.613,281.896h-15.267c-0.31,0-0.561-0.25-0.561-0.56s0.251-0.561,0.561-0.561h15.267
							c0.31,0,0.561,0.251,0.561,0.561S1172.923,281.896,1172.613,281.896z"
						/>
						<path
							fill="#AD8726"
							d="M1156.923,281.896c-0.04,0-0.081-0.004-0.121-0.013c-0.302-0.067-0.492-0.366-0.427-0.668
							c0.177-0.798,4.393-19.279,16.54-27.107l-5.805-4.279c-4.298,3.628-7.742,9.237-7.793,9.322
							c-0.125,0.206-0.368,0.312-0.604,0.255c-0.236-0.055-0.409-0.253-0.434-0.493l-1.608-17.013
							c-0.021-0.22,0.089-0.432,0.282-0.539c0.191-0.109,0.43-0.096,0.607,0.036l9.518,7.017c2.164-1.676,4.531-2.844,6.864-2.72
							c4.012,0.211,5.271,2.413,5.663,3.708c0.787,2.593-0.422,5.636-2.047,6.851c-0.248,0.186-0.6,0.134-0.783-0.113
							c-0.187-0.248-0.135-0.599,0.113-0.784c1.291-0.965,2.269-3.577,1.645-5.628c-0.537-1.775-2.146-2.782-4.649-2.914
							c-1.944-0.098-3.97,0.862-5.869,2.292l6.229,4.593c0.151,0.111,0.236,0.291,0.228,0.479s-0.111,0.357-0.273,0.453
							c-12.274,7.301-16.687,26.634-16.73,26.828C1157.412,281.719,1157.18,281.896,1156.923,281.896z M1157.904,243.042
							l1.341,14.161c1.288-1.908,3.855-5.414,6.938-8.058L1157.904,243.042z"
						/>
					</g>
					<g>
						<path
							fill="#AD8726"
							d="M1136.784,284.092c-2.02,0-3.803-0.923-4.784-2.563c-1.037-1.73-0.941-3.598,0.254-4.991
							c1.198-1.399,3.165-1.968,4.675-1.354c1.758,0.715,2.245,2.136,2.129,3.136c-0.105,0.893-0.66,1.545-1.414,1.661
							c-1.37,0.212-2.106-1.046-2.303-1.739c-0.084-0.298,0.09-0.607,0.387-0.691c0.297-0.081,0.606,0.088,0.69,0.385l0,0
							c0.014,0.043,0.324,1.045,1.055,0.939c0.238-0.037,0.429-0.313,0.473-0.686c0.069-0.608-0.263-1.489-1.438-1.968
							c-1.06-0.433-2.521,0.019-3.402,1.046c-0.518,0.604-1.223,1.885-0.144,3.688c1.195,1.996,3.475,2.264,5.205,1.851
							c2.1-0.502,4.642-2.311,4.884-5.758c0.259-3.623-1.726-5.716-2.931-6.642c-1.809-1.388-4.169-1.928-5.875-1.337
							c-3.859,1.333-4.882,4.058-5.963,6.941c-0.879,2.342-1.787,4.764-4.246,6.457c-5.04,3.473-8.451-0.141-8.486-0.179
							c-0.142-0.156-0.185-0.379-0.109-0.577c0.075-0.197,0.254-0.336,0.465-0.358c0.034-0.003,3.45-0.384,4.785-2.304
							c0.536-0.772,0.66-1.679,0.38-2.771c-0.514-1.995-2.651-2.669-3.881-2.894c-3.945-0.721-9.831,0.897-12.994,4.432h2.247
							c1.641-1.088,3.631-2.13,5.595-2.467c1.705-0.293,3.062-0.063,4.03,0.683c1.178,0.907,1.308,2.238,1.313,2.294
							c0.014,0.157-0.039,0.312-0.145,0.428c-0.107,0.116-0.257,0.183-0.413,0.183h-10.026c-1.948,1.33-3.345,2.681-3.369,2.706
							c-0.104,0.102-0.246,0.159-0.392,0.159h-16.761c-0.309,0-0.561-0.251-0.561-0.561s0.252-0.56,0.561-0.56h16.536
							c0.319-0.3,1.061-0.972,2.066-1.745h-1.842c-0.21,0-0.401-0.117-0.497-0.303c-0.097-0.185-0.082-0.408,0.038-0.58
							c3.262-4.639,10.23-6.605,14.813-5.771c2.578,0.471,4.269,1.79,4.764,3.716c0.362,1.408,0.179,2.65-0.548,3.692
							c-1.052,1.511-3.006,2.221-4.304,2.539c1.143,0.65,3.279,1.254,6.098-0.687c2.17-1.493,2.977-3.647,3.832-5.928
							c1.125-2.999,2.289-6.101,6.647-7.606c2.075-0.716,4.794-0.126,6.923,1.507c2.354,1.808,3.582,4.581,3.366,7.609
							c-0.287,4.052-3.272,6.179-5.742,6.769C1137.868,284.027,1137.319,284.092,1136.784,284.092z M1108.61,277.816h7.474
							c-0.128-0.288-0.347-0.628-0.714-0.906c-0.711-0.539-1.77-0.694-3.146-0.457
							C1111.013,276.661,1109.769,277.182,1108.61,277.816z"
						/>
						<path
							fill="#AD8726"
							d="M1132.481,281.896h-4.646c-0.232,0-0.44-0.144-0.523-0.36c-0.082-0.217-0.022-0.463,0.151-0.617
							c0.66-0.59,0.896-1.307,1.22-2.299c0.476-1.448,1.066-3.25,3.244-5.592c1.028-1.107,2.2-1.649,3.548-1.628
							c2.89,0.059,5.325,2.863,5.427,2.982c0.201,0.235,0.175,0.588-0.061,0.789c-0.232,0.203-0.587,0.176-0.789-0.06
							c-0.022-0.025-2.218-2.546-4.604-2.592c-1.006-0.036-1.888,0.396-2.701,1.271c-2.011,2.161-2.559,3.834-2.999,5.178
							c-0.215,0.657-0.413,1.259-0.737,1.808h3.47c0.308,0,0.56,0.251,0.56,0.561S1132.789,281.896,1132.481,281.896z"
						/>
						<path
							fill="#AD8726"
							d="M1154.076,278.937h-16.665c-0.309,0-0.56-0.251-0.56-0.561s0.251-0.56,0.56-0.56h15.711
							c-0.918-1.601-3.188-5.325-6.502-9.233c-0.512,0.217-1.037,0.387-1.564,0.501c-2.533,0.55-4.81-0.194-6.406-2.096
							c-0.198-0.236-0.168-0.59,0.07-0.789c0.235-0.198,0.59-0.167,0.789,0.069c1.685,2.008,3.816,2.044,5.311,1.721
							c0.345-0.075,0.688-0.176,1.026-0.301c-2.015-2.278-4.373-4.568-7.015-6.491c-6.094,2.516-12.951,6.334-16.506,8.495
							c-0.24,0.146-0.55,0.091-0.726-0.125c-0.178-0.217-0.167-0.531,0.026-0.736l11.108-11.882c0.158-0.169,0.406-0.225,0.62-0.136
							c1.992,0.813,3.872,1.879,5.628,3.102c5.194-2.06,10.021-3.171,11.973-1.335c1.2,1.131,1.605,2.67,1.144,4.334
							c-0.551,1.985-2.297,3.939-4.411,5.142c4.229,5.037,6.699,9.707,6.886,10.062c0.089,0.174,0.083,0.382-0.018,0.549
							C1154.452,278.834,1154.271,278.937,1154.076,278.937z M1140.069,260.701c2.603,1.962,4.912,4.241,6.88,6.492
							c1.951-1.039,3.575-2.797,4.07-4.579c0.244-0.88,0.299-2.152-0.832-3.218C1148.706,258.003,1144.7,258.899,1140.069,260.701z
							 M1133.286,257.999l-8.214,8.785c3.153-1.793,7.97-4.39,12.654-6.356C1136.317,259.487,1134.835,258.66,1133.286,257.999z"
						/>
						<path
							fill="#AD8726"
							d="M1157.043,281.896h-15.266c-0.31,0-0.561-0.25-0.561-0.56s0.251-0.561,0.561-0.561h15.266
							c0.31,0,0.561,0.251,0.561,0.561S1157.353,281.896,1157.043,281.896z"
						/>
						<path
							fill="#AD8726"
							d="M1157.466,281.896c-0.258,0-0.489-0.178-0.546-0.438c-0.044-0.194-4.453-19.527-16.729-26.828
							c-0.162-0.096-0.265-0.266-0.273-0.453c-0.009-0.188,0.076-0.368,0.228-0.479l6.241-4.582
							c-1.901-1.436-3.927-2.409-5.881-2.302c-2.503,0.132-4.111,1.139-4.649,2.913c-0.624,2.052,0.353,4.663,1.644,5.629
							c0.248,0.186,0.298,0.537,0.112,0.784c-0.185,0.246-0.536,0.299-0.784,0.113c-1.624-1.216-2.832-4.259-2.044-6.852
							c0.393-1.294,1.651-3.496,5.663-3.707c2.327-0.122,4.712,1.049,6.879,2.731l9.571-7.029c0.178-0.131,0.416-0.145,0.608-0.035
							s0.302,0.321,0.28,0.542l-1.678,17.013c-0.024,0.239-0.198,0.438-0.434,0.49c-0.233,0.056-0.478-0.049-0.603-0.255
							c-0.051-0.085-3.489-5.684-7.78-9.312l-5.814,4.27c12.146,7.83,16.358,26.309,16.536,27.106
							c0.065,0.302-0.125,0.601-0.427,0.668C1157.546,281.893,1157.506,281.896,1157.466,281.896z M1148.221,249.157
							c3.08,2.646,5.645,6.15,6.93,8.055l1.397-14.169L1148.221,249.157z"
						/>
					</g>
				</g>
				<path
					fill="#AD8726"
					d="M1157.347,300.483c-0.144,0-0.287-0.055-0.396-0.163l-9.253-9.23c-0.106-0.105-0.165-0.248-0.165-0.396
					s0.059-0.291,0.165-0.396l9.253-9.229c0.219-0.219,0.573-0.219,0.792,0l9.253,9.229c0.106,0.105,0.166,0.248,0.166,0.396
					s-0.06,0.291-0.166,0.396l-9.253,9.23C1157.633,300.429,1157.489,300.483,1157.347,300.483z M1148.886,290.693l8.461,8.439
					l8.46-8.439l-8.46-8.438L1148.886,290.693z"
				/>
			</g>
			<g>
				<path
					fill="#AD8726"
					d="M1080.399,264.436c-0.324,0-0.586-0.263-0.586-0.587V198.76c0-0.292,0.214-0.539,0.502-0.582
					c0.703-0.103,17.264-2.76,19.426-22.68c0.033-0.298,0.285-0.523,0.584-0.523h57.507c0.323,0,0.586,0.263,0.586,0.587
					s-0.263,0.587-0.586,0.587h-56.983c-2.264,18.422-16.943,22.471-19.861,23.096v64.604
					C1080.987,264.173,1080.724,264.436,1080.399,264.436z"
				/>
				<path
					fill="#AD8726"
					d="M1214.065,406.665h-57.507c-0.323,0-0.587-0.263-0.587-0.588c0-0.324,0.264-0.587,0.587-0.587h56.982
					c2.266-18.421,16.944-22.471,19.862-23.096V317.79c0-0.324,0.263-0.587,0.587-0.587c0.325,0,0.588,0.263,0.588,0.587v65.089
					c0,0.291-0.215,0.539-0.503,0.581c-0.704,0.104-17.265,2.762-19.426,22.681C1214.616,406.438,1214.365,406.665,1214.065,406.665
					z"
				/>
			</g>
		</g>
	</g>
</svg>