<svg
  version="1.1"
  id="delta"
  xmlns="http://www.w3.org/2000/svg"
  viewBox="142 150 202 282"
>
  <g>
    <path
      fill="#030E4E"
      d="M343.587,160.041c0-5.565-4.513-10.078-10.078-10.078l0,0H152.084l0,0l0,0
			c-5.566,0-10.079,4.513-10.079,10.078l0,0v262.058c0,5.566,4.513,10.079,10.079,10.079c0.007,0,0.014,0,0.021,0h181.38
			c0.008,0,0.016,0,0.022,0c5.566,0,10.079-4.513,10.079-10.079V160.041L343.587,160.041z"
    />
    <g>
      <g>
        <path
          fill="#AD8726"
          d="M332.949,226.918c-2.168-31.928-13.525-46.505-16.505-49.813c-3.31-2.981-17.887-14.337-49.812-16.505
					l0.037-1.118h51.803l-1.066,0.974c-0.017,0.015-0.759,0.702-1.619,1.906h7.942v-2.88h10.339v10.339h-2.882v7.941
					c1.205-0.86,1.893-1.603,1.907-1.619l0.974-1.065l0.001,51.802L332.949,226.918z M318.281,177.544
					c3.549,4.396,11.395,16.304,14.667,38.721v-38.446c-0.447,0.383-1.04,0.845-1.762,1.313v14.561l-1.11,0.102
					c-1.005-5.47-5.688-12.511-5.734-12.581l-0.513-0.768l0.917-0.101c2.107-0.231,3.925-1.018,5.32-1.849v-8.674h-4.688
					l5.808-6.804v5.684h1.762v-8.1h-8.1v1.761h5.684l-6.803,5.809v-4.688h-8.675c-0.83,1.396-1.617,3.214-1.848,5.321l-0.102,0.918
					l-0.768-0.514c-0.069-0.047-7.115-4.73-12.58-5.734l0.101-1.111h14.561c0.468-0.721,0.93-1.313,1.313-1.761h-38.445
					c22.418,3.273,34.324,11.118,38.72,14.667l0.334,0.167c-0.747-3.527,0.04-7.832,1.586-9.347
					c0.711-0.696,1.563-0.837,2.398-0.396c0.938,0.494,1.512,1.183,1.706,2.049c0.374,1.663-0.853,3.322-0.904,3.392l-0.897-0.671
					c0.01-0.013,0.971-1.323,0.709-2.479c-0.123-0.537-0.494-0.962-1.135-1.3c-0.266-0.14-0.633-0.245-1.094,0.206
					c-1.399,1.37-2.018,5.838-1.089,9.04c3.202,0.93,7.67,0.311,9.04-1.089c0.45-0.46,0.347-0.826,0.206-1.093
					c-0.339-0.643-0.765-1.015-1.304-1.136c-1.144-0.254-2.462,0.698-2.475,0.708l-0.672-0.896c0.069-0.052,1.735-1.279,3.393-0.904
					c0.866,0.195,1.556,0.77,2.049,1.706c0.439,0.837,0.299,1.688-0.397,2.398c-1.515,1.546-5.818,2.331-9.345,1.586
					L318.281,177.544z M325.751,181.329c0.922,1.465,2.961,4.876,4.315,8.445v-9.979
					C328.86,180.446,327.406,181.032,325.751,181.329z M327.808,168.701h2.259v-2.646L327.808,168.701z M303.775,163.482
					c3.568,1.355,6.98,3.395,8.445,4.316c0.297-1.655,0.883-3.11,1.534-4.316H303.775z M324.849,163.482v2.259l2.646-2.259H324.849z
					"
        />
        <path
          fill="#AD8726"
          d="M218.921,422.658h-51.803l1.066-0.974c0.017-0.015,0.759-0.702,1.619-1.907h-7.942v2.881h-10.339
					v-10.337h2.881v-7.942c-1.204,0.859-1.892,1.602-1.906,1.618l-0.974,1.065l-0.001-51.802l1.119-0.037
					c2.168,31.926,13.523,46.502,16.505,49.812c3.308,2.979,17.885,14.338,49.812,16.505L218.921,422.658z M169.859,421.538h38.445
					c-22.418-3.272-34.324-11.118-38.72-14.666l-0.334-0.166c0.747,3.526-0.04,7.831-1.586,9.345
					c-0.71,0.695-1.562,0.837-2.398,0.397c-0.938-0.494-1.512-1.184-1.706-2.049c-0.374-1.663,0.853-3.323,0.904-3.393l0.897,0.671
					c-0.01,0.014-0.972,1.323-0.709,2.48c0.123,0.536,0.494,0.96,1.135,1.3c0.268,0.14,0.634,0.244,1.094-0.208
					c1.398-1.369,2.018-5.838,1.089-9.038c-3.204-0.934-7.671-0.311-9.04,1.089c-0.45,0.46-0.347,0.825-0.206,1.094
					c0.337,0.642,0.763,1.011,1.3,1.133c1.154,0.263,2.465-0.697,2.479-0.706l0.671,0.896c-0.069,0.051-1.731,1.286-3.392,0.903
					c-0.866-0.194-1.556-0.77-2.049-1.706c-0.439-0.835-0.299-1.688,0.397-2.399c1.513-1.546,5.819-2.334,9.345-1.586l-0.166-0.332
					c-3.549-4.396-11.395-16.302-14.667-38.72v38.444c0.447-0.383,1.04-0.845,1.761-1.313v-14.561l1.11-0.101
					c1.006,5.468,5.688,12.511,5.735,12.581l0.513,0.768l-0.917,0.101c-2.107,0.231-3.925,1.018-5.321,1.849v8.675h4.688
					l-5.808,6.802v-5.683h-1.761v8.098h8.1v-1.761h-5.684l6.803-5.808v4.688h8.675c0.83-1.396,1.617-3.213,1.848-5.319l0.102-0.919
					l0.768,0.515c0.069,0.048,7.115,4.731,12.58,5.732l-0.101,1.111h-14.561C170.704,420.499,170.242,421.092,169.859,421.538z
					 M171.836,418.657h9.979c-3.569-1.354-6.98-3.393-8.445-4.315C173.073,415.998,172.487,417.452,171.836,418.657z
					 M158.096,418.657h2.646v-2.259L158.096,418.657z M155.523,413.44v2.647l2.259-2.647H155.523z M155.523,392.366v9.98
					c1.206-0.651,2.661-1.238,4.316-1.535C158.918,399.346,156.879,395.936,155.523,392.366z"
        />
        <path
          fill="#AD8726"
          d="M152.643,226.918l-1.119-0.038v-51.803l0.974,1.066c0.015,0.017,0.703,0.759,1.907,1.619v-7.941h-2.881
					v-10.339h10.339v2.88h7.945c-0.861-1.205-1.605-1.891-1.622-1.906l-1.071-0.974h51.807l0.038,1.118
					c-31.925,2.168-46.503,13.523-49.812,16.505C166.167,180.413,154.811,194.99,152.643,226.918z M152.644,177.818v38.446
					c3.272-22.417,11.118-34.325,14.666-38.721l0.167-0.334c-3.525,0.748-7.831-0.04-9.346-1.586
					c-0.695-0.71-0.837-1.562-0.396-2.398c0.493-0.937,1.183-1.511,2.049-1.706c1.659-0.375,3.322,0.853,3.392,0.904l-0.671,0.897
					c-0.013-0.011-1.315-0.975-2.479-0.708c-0.537,0.122-0.962,0.493-1.3,1.135c-0.141,0.267-0.245,0.633,0.206,1.093
					c1.37,1.399,5.837,2.019,9.039,1.089c0.93-3.202,0.311-7.67-1.089-9.04c-0.46-0.451-0.826-0.346-1.093-0.206
					c-0.642,0.338-1.013,0.763-1.135,1.3c-0.263,1.155,0.698,2.466,0.708,2.479l-0.896,0.671c-0.053-0.069-1.279-1.729-0.904-3.392
					c0.194-0.866,0.769-1.555,1.706-2.049c0.835-0.44,1.688-0.3,2.398,0.396c1.546,1.515,2.333,5.819,1.586,9.347l0.333-0.167
					c4.396-3.549,16.303-11.394,38.721-14.667H169.86c0.382,0.447,0.845,1.04,1.312,1.761h14.561l0.102,1.111
					c-5.47,1.005-12.511,5.688-12.581,5.734l-0.768,0.514l-0.101-0.918c-0.231-2.11-1.016-3.927-1.845-5.321h-8.678v4.688
					l-6.803-5.809h5.683v-1.761h-8.099v8.1h1.761v-5.684l5.809,6.804h-4.688v8.674c1.396,0.831,3.214,1.617,5.32,1.849l0.918,0.101
					l-0.514,0.768c-0.047,0.07-4.73,7.115-5.733,12.581l-1.111-0.102v-14.561C153.684,178.663,153.091,178.201,152.644,177.818z
					 M155.524,179.795v9.979c1.355-3.569,3.394-6.98,4.316-8.445C158.186,181.032,156.73,180.446,155.524,179.795z M155.524,168.701
					h2.259l-2.259-2.646V168.701z M171.836,163.482c0.651,1.206,1.238,2.661,1.535,4.316c1.465-0.922,4.876-2.961,8.445-4.316
					H171.836z M158.097,163.482l2.646,2.259v-2.259H158.097z"
        />
        <path
          fill="#AD8726"
          d="M334.068,422.658h-10.339v-2.881h-7.945c0.862,1.205,1.605,1.893,1.622,1.907l1.071,0.974h-51.807
					l-0.038-1.118c31.928-2.167,46.504-13.525,49.813-16.505c2.98-3.31,14.337-17.886,16.504-49.812l1.119,0.037v51.802
					l-0.974-1.065c-0.015-0.017-0.703-0.759-1.907-1.618v7.942h2.881V422.658z M324.85,421.538h8.099v-8.098h-1.761v5.683
					l-5.808-6.802h4.688v-8.675c-1.396-0.831-3.214-1.617-5.321-1.849l-0.918-0.101l0.514-0.768c0.047-0.07,4.73-7.115,5.734-12.581
					l1.11,0.101v14.561c0.722,0.468,1.313,0.93,1.761,1.313v-38.444c-3.272,22.418-11.118,34.323-14.666,38.72l-0.167,0.332
					c3.526-0.745,7.831,0.04,9.346,1.586c0.696,0.711,0.837,1.564,0.396,2.399c-0.493,0.937-1.182,1.512-2.048,1.706
					c-1.664,0.381-3.323-0.851-3.393-0.903l0.671-0.896c0.014,0.009,1.323,0.969,2.479,0.706c0.536-0.122,0.962-0.491,1.3-1.133
					c0.141-0.269,0.244-0.634-0.206-1.094c-1.37-1.399-5.838-2.021-9.041-1.089c-0.929,3.2-0.309,7.669,1.09,9.038
					c0.459,0.452,0.825,0.348,1.093,0.208c0.642-0.34,1.013-0.764,1.135-1.3c0.263-1.157-0.698-2.467-0.708-2.48l0.896-0.671
					c0.053,0.069,1.279,1.729,0.904,3.393c-0.194,0.865-0.769,1.555-1.706,2.049c-0.836,0.439-1.688,0.298-2.398-0.397
					c-1.546-1.514-2.333-5.818-1.585-9.345l-0.334,0.166c-4.396,3.548-16.303,11.394-38.72,14.666h38.444
					c-0.382-0.446-0.845-1.039-1.312-1.761h-14.561l-0.102-1.111c5.47-1.004,12.511-5.685,12.581-5.732l0.767-0.515l0.102,0.919
					c0.232,2.111,1.016,3.927,1.845,5.319h8.678v-4.688l6.804,5.808h-5.684V421.538z M324.85,418.657h2.646l-2.646-2.259V418.657z
					 M303.776,418.657h9.979c-0.651-1.205-1.237-2.659-1.534-4.315C310.756,415.265,307.345,417.304,303.776,418.657z
					 M327.809,413.44l2.26,2.647v-2.647H327.809z M325.751,400.812c1.656,0.297,3.11,0.884,4.317,1.535v-9.98
					C328.713,395.936,326.674,399.346,325.751,400.812z"
        />
      </g>
      <g>
        <g>
          <g>
            <g>
              <path
                fill="#AD8726"
                d="M274.881,332.692c-4.238,0-9.286-2.341-14.253-6.847c-7.41-6.722-9.473-16.021-9.874-18.255h-7.958
								c-0.31,0-0.561-0.252-0.561-0.56c0-0.311,0.251-0.561,0.561-0.561h8.92l0.067,0.481c0.016,0.107,1.608,10.818,9.597,18.064
								c7.515,6.816,15.11,8.477,19.354,4.235c0.749-0.751,0.977-1.849,0.624-3.015c-0.401-1.327-1.447-2.375-2.602-2.609
								c-1.134-0.223-2.284,0.319-3.328,1.584c-0.196,0.24-0.549,0.275-0.788,0.076c-0.238-0.196-0.272-0.551-0.075-0.789
								c1.305-1.58,2.874-2.277,4.412-1.967c1.572,0.315,2.928,1.643,3.453,3.382c0.476,1.574,0.146,3.079-0.904,4.129
								C279.745,331.821,277.463,332.692,274.881,332.692z"
              />
              <path
                fill="#AD8726"
                d="M242.816,350.523c-0.014,0-0.023,0-0.026,0c-0.31-0.003-0.558-0.256-0.555-0.564
								c0.004-0.311,0.231-0.6,0.566-0.556c0.228,0.016,24.102,0.05,34.661-18.085c0.155-0.267,0.497-0.36,0.766-0.201
								c0.268,0.155,0.357,0.499,0.202,0.766C267.707,350.3,243.763,350.523,242.816,350.523z"
              />
              <path
                fill="#AD8726"
                d="M242.795,343.241c-0.292,0-0.537-0.228-0.558-0.522c-0.021-0.309,0.212-0.575,0.521-0.597
								c0.193-0.014,19.521-1.457,26.297-11.453c0.174-0.256,0.521-0.321,0.777-0.148s0.323,0.521,0.149,0.776
								c-7.082,10.451-26.332,11.888-27.147,11.942C242.821,343.241,242.809,343.241,242.795,343.241z"
              />
              <path
                fill="#AD8726"
                d="M292.52,319.597c-2.624,0-4.671-1.511-5.517-3.368c-0.977-2.144-0.313-4.338,1.689-5.589
								c1.364-0.851,2.871-0.835,4.136,0.037c1.141,0.79,1.885,2.155,1.694,3.106c-0.062,0.304-0.355,0.503-0.659,0.439
								c-0.304-0.059-0.5-0.354-0.439-0.658c0.08-0.398-0.36-1.363-1.232-1.967c-0.633-0.438-1.65-0.792-2.905-0.009
								c-1.816,1.136-1.845,2.9-1.264,4.176c0.84,1.846,3.188,3.393,6.36,2.422c3.252-0.993,4.52-4.802,4.06-7.881
								c-0.473-3.165-2.852-6.549-8.113-6.549h-47.533c-0.31,0-0.561-0.25-0.561-0.561c0-0.309,0.251-0.56,0.561-0.56h47.533
								c5.973,0,8.68,3.876,9.221,7.505c0.622,4.164-1.459,8.084-4.84,9.116C293.947,319.489,293.213,319.597,292.52,319.597z"
              />
              <path
                fill="#AD8726"
                d="M210.71,332.692c-2.583,0-4.865-0.868-6.645-2.649c-1.05-1.05-1.38-2.555-0.904-4.127
								c0.525-1.741,1.881-3.068,3.453-3.384c1.537-0.311,3.107,0.387,4.412,1.967c0.198,0.238,0.164,0.593-0.074,0.789
								c-0.238,0.199-0.592,0.164-0.788-0.076c-1.045-1.265-2.192-1.807-3.329-1.584c-1.155,0.234-2.201,1.282-2.603,2.611
								c-0.352,1.164-0.124,2.262,0.625,3.013c4.242,4.243,11.84,2.578,19.353-4.235c7.988-7.246,9.582-17.957,9.597-18.064
								l0.068-0.481h8.921c0.31,0,0.56,0.25,0.56,0.561c0,0.308-0.25,0.56-0.56,0.56h-7.959c-0.401,2.233-2.464,11.533-9.874,18.255
								C219.996,330.35,214.948,332.692,210.71,332.692z"
              />
              <path
                fill="#AD8726"
                d="M242.775,350.523c-0.943,0-24.89-0.224-35.616-18.641c-0.155-0.267-0.064-0.61,0.203-0.766
								c0.267-0.159,0.61-0.065,0.766,0.201c9.654,16.58,30.448,17.963,34.107,18.076l-0.002-51.756c0-0.311,0.251-0.56,0.561-0.56
								c0.309,0,0.56,0.249,0.56,0.56l0.002,52.878l-0.554,0.007C242.799,350.523,242.789,350.523,242.775,350.523z"
              />
              <path
                fill="#AD8726"
                d="M242.796,343.241c-0.013,0-0.025,0-0.038-0.002c-0.816-0.055-20.066-1.491-27.149-11.942
								c-0.173-0.256-0.106-0.604,0.149-0.776s0.604-0.107,0.778,0.148c6.775,9.996,26.104,11.439,26.298,11.453
								c0.309,0.021,0.541,0.288,0.521,0.597C243.334,343.014,243.088,343.241,242.796,343.241z"
              />
              <path
                fill="#AD8726"
                d="M193.071,319.597c-0.694,0-1.428-0.107-2.19-0.339c-3.381-1.032-5.462-4.952-4.84-9.116
								c0.541-3.629,3.248-7.505,9.221-7.505h47.534c0.31,0,0.56,0.251,0.56,0.56c0,0.311-0.25,0.561-0.56,0.561h-47.534
								c-5.262,0-7.641,3.384-8.113,6.549c-0.46,3.079,0.807,6.888,4.06,7.881c3.172,0.969,5.521-0.578,6.361-2.422
								c0.58-1.275,0.552-3.04-1.265-4.176c-1.256-0.783-2.272-0.426-2.904,0.009c-0.872,0.604-1.313,1.568-1.233,1.967
								c0.061,0.304-0.136,0.6-0.438,0.658c-0.303,0.063-0.599-0.136-0.659-0.439c-0.19-0.951,0.554-2.318,1.694-3.106
								c1.265-0.872,2.771-0.888,4.134-0.037c2.003,1.251,2.667,3.445,1.69,5.589C197.743,318.086,195.695,319.597,193.071,319.597z
								"
              />
            </g>
            <path
              fill="#AD8726"
              d="M298.764,298.198H186.828c-0.31,0-0.56-0.251-0.56-0.56c0-0.311,0.25-0.56,0.56-0.56h111.936
							c0.31,0,0.56,0.249,0.56,0.56C299.323,297.947,299.073,298.198,298.764,298.198z"
            />
            <path
              fill="#AD8726"
              d="M251.228,321.832h-16.865c-0.31,0-0.56-0.251-0.56-0.56c0-0.311,0.25-0.56,0.56-0.56h16.865
							c0.31,0,0.561,0.249,0.561,0.56C251.788,321.581,251.537,321.832,251.228,321.832z"
            />
          </g>
          <g>
            <g>
              <path
                fill="#AD8726"
                d="M242.796,275.671h-8.921l-0.068-0.481c-0.015-0.108-1.608-10.819-9.597-18.064
								c-7.514-6.813-15.108-8.477-19.353-4.234c-0.749,0.748-0.977,1.847-0.625,3.012c0.401,1.328,1.447,2.377,2.603,2.609
								c1.137,0.229,2.284-0.319,3.329-1.583c0.196-0.237,0.55-0.271,0.788-0.074s0.272,0.549,0.074,0.788
								c-1.305,1.579-2.871,2.276-4.412,1.968c-1.572-0.316-2.928-1.646-3.453-3.384c-0.476-1.573-0.146-3.078,0.904-4.128
								c4.701-4.703,12.903-3.055,20.897,4.197c7.41,6.721,9.473,16.021,9.874,18.255h7.959c0.31,0,0.56,0.251,0.56,0.561
								S243.105,275.671,242.796,275.671z"
              />
              <path
                fill="#AD8726"
                d="M207.643,251.1c-0.096,0-0.192-0.024-0.28-0.076c-0.268-0.155-0.358-0.498-0.203-0.765
								c10.886-18.694,35.398-18.644,35.643-18.642c0.31,0.004,0.558,0.258,0.554,0.566c-0.004,0.31-0.272,0.52-0.565,0.554
								c-0.221,0.023-24.103-0.05-34.662,18.084C208.023,251,207.836,251.1,207.643,251.1z"
              />
              <path
                fill="#AD8726"
                d="M216.072,251.718c-0.108,0-0.218-0.031-0.314-0.097c-0.256-0.174-0.322-0.521-0.149-0.777
								c7.083-10.449,26.333-11.886,27.149-11.942c0.311-0.01,0.575,0.212,0.597,0.521c0.021,0.309-0.212,0.576-0.521,0.597
								c-0.194,0.014-19.522,1.457-26.298,11.454C216.428,251.632,216.251,251.718,216.072,251.718z"
              />
              <path
                fill="#AD8726"
                d="M242.796,279.504h-47.534c-5.973,0-8.68-3.876-9.221-7.503c-0.622-4.165,1.459-8.086,4.84-9.117
								c3.647-1.115,6.639,0.681,7.707,3.029c0.977,2.144,0.313,4.337-1.69,5.588c-1.362,0.853-2.869,0.837-4.134-0.036
								c-1.141-0.789-1.885-2.154-1.694-3.107c0.061-0.305,0.356-0.501,0.659-0.439c0.303,0.061,0.499,0.355,0.438,0.659
								c-0.079,0.399,0.361,1.363,1.233,1.966c0.632,0.437,1.649,0.791,2.903,0.009c1.817-1.136,1.846-2.901,1.266-4.175
								c-0.84-1.845-3.188-3.391-6.361-2.423c-3.253,0.993-4.52,4.802-4.06,7.882c0.473,3.166,2.852,6.549,8.113,6.549h47.534
								c0.31,0,0.56,0.25,0.56,0.56S243.105,279.504,242.796,279.504z"
              />
              <path
                fill="#AD8726"
                d="M251.229,275.671h-8.433c-0.31,0-0.561-0.25-0.561-0.56s0.251-0.561,0.561-0.561h7.958
								c0.401-2.234,2.464-11.534,9.874-18.255c7.993-7.25,16.196-8.898,20.897-4.197c1.05,1.05,1.38,2.555,0.904,4.128
								c-0.525,1.739-1.881,3.067-3.453,3.384c-1.543,0.313-3.107-0.389-4.412-1.968c-0.197-0.239-0.163-0.592,0.075-0.788
								c0.239-0.196,0.592-0.163,0.788,0.074c1.044,1.264,2.194,1.812,3.328,1.583c1.154-0.232,2.2-1.28,2.602-2.609
								c0.353-1.165,0.125-2.263-0.624-3.012c-4.243-4.244-11.84-2.58-19.354,4.234c-7.988,7.245-9.581,17.956-9.597,18.064
								l-0.067,0.481H251.229z"
              />
              <path
                fill="#AD8726"
                d="M242.797,285.063c-0.31,0-0.56-0.251-0.56-0.561l-0.002-52.879l0.555-0.007
								c0.199,0.005,24.755-0.055,35.642,18.642c0.155,0.267,0.065,0.609-0.202,0.765c-0.268,0.154-0.61,0.065-0.766-0.202
								c-9.654-16.578-30.449-17.961-34.108-18.074l0.001,51.756C243.356,284.813,243.106,285.063,242.797,285.063z"
              />
              <path
                fill="#AD8726"
                d="M269.519,251.718c-0.18,0-0.356-0.086-0.464-0.246c-6.779-10.002-26.104-11.439-26.297-11.453
								c-0.309-0.021-0.542-0.288-0.521-0.597s0.297-0.53,0.597-0.521c0.815,0.057,20.065,1.493,27.147,11.942
								c0.174,0.256,0.106,0.604-0.149,0.777C269.736,251.687,269.627,251.718,269.519,251.718z"
              />
              <path
                fill="#AD8726"
                d="M290.329,279.504h-47.533c-0.31,0-0.561-0.25-0.561-0.56s0.251-0.56,0.561-0.56h47.533
								c5.262,0,7.641-3.383,8.113-6.549c0.46-3.08-0.808-6.889-4.06-7.882c-3.175-0.965-5.521,0.578-6.36,2.423
								c-0.581,1.273-0.553,3.039,1.264,4.175c1.255,0.783,2.272,0.428,2.905-0.009c0.872-0.603,1.313-1.567,1.232-1.966
								c-0.061-0.304,0.136-0.599,0.439-0.659c0.304-0.062,0.598,0.135,0.659,0.439c0.19,0.953-0.554,2.317-1.694,3.106
								c-1.266,0.876-2.773,0.889-4.136,0.037c-2.003-1.251-2.666-3.444-1.689-5.588c1.068-2.349,4.06-4.145,7.707-3.029
								c3.381,1.032,5.462,4.952,4.84,9.117C299.009,275.628,296.302,279.504,290.329,279.504z"
              />
            </g>
            <path
              fill="#AD8726"
              d="M298.764,285.063H186.828c-0.31,0-0.56-0.251-0.56-0.561s0.25-0.56,0.56-0.56h111.936
							c0.31,0,0.56,0.25,0.56,0.56S299.073,285.063,298.764,285.063z"
            />
            <path
              fill="#AD8726"
              d="M251.228,261.43h-16.865c-0.31,0-0.56-0.251-0.56-0.561s0.25-0.56,0.56-0.56h16.865
							c0.31,0,0.561,0.25,0.561,0.56S251.537,261.43,251.228,261.43z"
            />
          </g>
        </g>
        <path
          fill="#AD8726"
          d="M242.796,360.318c-38.183,0-69.247-31.064-69.247-69.248c0-38.183,31.064-69.246,69.247-69.246
					s69.246,31.063,69.246,69.246C312.042,329.254,280.979,360.318,242.796,360.318z M242.796,222.943
					c-37.565,0-68.127,30.562-68.127,68.127c0,37.564,30.562,68.128,68.127,68.128s68.127-30.563,68.127-68.128
					C310.923,253.505,280.361,222.943,242.796,222.943z"
        />
      </g>
      <path
        fill="#AD8726"
        d="M260.714,389.088c-0.31,0-0.56-0.25-0.56-0.561v-31.132c0-0.311,0.25-0.56,0.56-0.56
				s0.561,0.249,0.561,0.56v31.132C261.274,388.838,261.023,389.088,260.714,389.088z"
      />
      <path
        fill="#AD8726"
        d="M260.714,225.306c-0.31,0-0.56-0.25-0.56-0.56v-31.134c0-0.31,0.25-0.561,0.56-0.561
				s0.561,0.251,0.561,0.561v31.134C261.274,225.056,261.023,225.306,260.714,225.306z"
      />
      <path
        fill="#AD8726"
        d="M242.796,409.432c-0.31,0-0.561-0.249-0.561-0.56v-49.114c0-0.311,0.251-0.56,0.561-0.56
				s0.56,0.249,0.56,0.56v49.114C243.355,409.183,243.105,409.432,242.796,409.432z"
      />
      <path
        fill="#AD8726"
        d="M242.796,222.943c-0.31,0-0.561-0.25-0.561-0.56v-49.116c0-0.309,0.251-0.56,0.561-0.56
				s0.56,0.251,0.56,0.56v49.116C243.355,222.693,243.105,222.943,242.796,222.943z"
      />
      <path
        fill="#AD8726"
        d="M224.877,389.088c-0.31,0-0.56-0.25-0.56-0.561v-31.132c0-0.309,0.25-0.56,0.56-0.56
				s0.561,0.251,0.561,0.56v31.132C225.438,388.838,225.187,389.088,224.877,389.088z"
      />
      <path
        fill="#AD8726"
        d="M224.877,225.306c-0.31,0-0.56-0.251-0.56-0.56v-31.134c0-0.31,0.25-0.561,0.56-0.561
				s0.561,0.251,0.561,0.561v31.134C225.438,225.055,225.187,225.306,224.877,225.306z"
      />
      <path
        fill="#AD8726"
        d="M176.47,309.549h-11.877c-0.31,0-0.56-0.252-0.56-0.561c0-0.311,0.25-0.56,0.56-0.56h11.877
				c0.31,0,0.56,0.249,0.56,0.56C177.029,309.297,176.779,309.549,176.47,309.549z"
      />
      <path
        fill="#AD8726"
        d="M320.998,309.549H309.12c-0.31,0-0.56-0.252-0.56-0.561c0-0.311,0.25-0.56,0.56-0.56h11.878
				c0.31,0,0.561,0.249,0.561,0.56C321.559,309.297,321.308,309.549,320.998,309.549z"
      />
      <path
        fill="#AD8726"
        d="M174.109,291.63h-15.849c-0.31,0-0.56-0.25-0.56-0.56s0.25-0.561,0.56-0.561h15.849
				c0.31,0,0.561,0.251,0.561,0.561S174.419,291.63,174.109,291.63z"
      />
      <path
        fill="#AD8726"
        stroke="#A01C37"
        stroke-width="1.1199"
        stroke-linecap="round"
        stroke-miterlimit="10"
        d="M174.109,291.07"
      />
      <path
        fill="#AD8726"
        d="M327.33,291.63h-15.848c-0.31,0-0.56-0.25-0.56-0.56s0.25-0.561,0.56-0.561h15.848
				c0.31,0,0.561,0.251,0.561,0.561S327.64,291.63,327.33,291.63z"
      />
      <path
        fill="#AD8726"
        d="M176.471,273.712h-11.878c-0.31,0-0.56-0.251-0.56-0.561s0.25-0.56,0.56-0.56h11.878
				c0.31,0,0.56,0.25,0.56,0.56S176.78,273.712,176.471,273.712z"
      />
      <path
        fill="#AD8726"
        d="M320.998,273.712H309.12c-0.31,0-0.56-0.251-0.56-0.561s0.25-0.56,0.56-0.56h11.878
				c0.31,0,0.561,0.25,0.561,0.56S321.308,273.712,320.998,273.712z"
      />
    </g>
  </g>
</svg>