<svg
	version="1.1"
	id="epsilon"
	xmlns="http://www.w3.org/2000/svg"
	viewBox="1056 548 202 282"
>
	<g>
		<path
			fill="#030E4E"
			d="M1257.995,558.123c0-5.565-4.513-10.077-10.078-10.077l0,0h-181.425l0,0l0,0
			c-5.566,0-10.079,4.512-10.079,10.077l0,0v262.058c0,5.566,4.513,10.079,10.079,10.079c0.007,0,0.015,0,0.022,0h181.379
			c0.008,0,0.016,0,0.022,0c5.566,0,10.079-4.513,10.079-10.079V558.123L1257.995,558.123z"
		/>
		<g>
			<g>
				<path
					fill="#AD8726"
					d="M1071.981,682.826h-1.12v-57.922c-1.702,0.734-3.145,1.213-3.827,1.426v56.496h-1.12v-57.335
					l0.405-0.116c0.052-0.015,2.082-0.606,4.542-1.708v-17.632c0-3.132-0.79-4.415-1.453-4.938
					c-0.689-0.545-1.399-0.396-1.405-0.396l-0.689,0.163v-8.536l0.549-0.011c0.094-0.002,6.153-0.168,11.771-2.895v-5.139
					c-4.146-0.516-8.585-0.617-13.08,0.024l-0.927,0.133l0.321-0.88c0.133-0.36,1.2-3.146,3.006-4.114
					c-0.891-1.004-2.487-3.053-3.025-5.365l-0.159-0.687h13.428v-7h4.422c-2.947-2.642-6.721-4.068-10.379-3.758l-0.606,0.051
					v-5.123h85.608l-0.592,0.874c-2.016,2.977-10.609,4.661-14.01,5.222c1.219,1.249,1.6,3.086,1.619,3.186l0.134,0.669h-59.163
					c0.39,0.477,0.756,0.978,1.097,1.501c2.354,3.605,3.051,7.577,2.044,11.257c5.856,0.382,13.188,0.18,17.699-2.439l1.072-0.623
					l-0.242,1.217c-0.047,0.232-1.122,5.408-4.625,6.468c0.211,0.998,0.496,3.186-0.137,6.139l-0.159,0.744l-0.663-0.373
					c-0.104-0.059-6.587-3.642-15.755-5.849c-1.645,1.995-3.686,3.484-5.808,4.597v24.842c0,4.354-4.772,7.518-8.771,9.404V682.826z
					 M1068.434,599.57c0.453,0.03,1.07,0.174,1.67,0.647c1.246,0.985,1.878,2.943,1.878,5.817v17.107
					c3.624-1.776,7.651-4.558,7.651-8.148v-24.292c-4.722,2.171-9.574,2.619-11.199,2.711V599.57z M1087.299,584.588
					c7.403,1.837,13.005,4.518,14.884,5.48c0.554-3.287-0.117-5.394-0.124-5.415l-0.205-0.628l0.651-0.102
					c2.234-0.344,3.434-2.946,3.96-4.518c-4.872,2.245-11.884,2.373-17.458,1.986c-0.212,0.567-0.467,1.126-0.763,1.672
					C1087.953,583.599,1087.638,584.106,1087.299,584.588z M1080.753,584.435v4.405c1.658-0.924,3.238-2.092,4.566-3.571
					C1083.853,584.946,1082.327,584.662,1080.753,584.435z M1080.753,583.306c1.859,0.265,3.653,0.607,5.363,0.999
					c0.417-0.553,0.8-1.144,1.144-1.774c0.219-0.402,0.411-0.813,0.579-1.227c-3.261-0.277-5.894-0.701-7.086-0.913V583.306z
					 M1072.992,582.741c2.271,0,4.493,0.153,6.641,0.417v-4.122l0.668,0.133c0.077,0.015,3.444,0.663,7.927,1.021
					c1.005-3.433,0.377-7.168-1.838-10.563c-0.495-0.757-1.044-1.463-1.64-2.113h-4.434v6.999h-13.101
					c0.879,2.591,3.104,4.752,3.129,4.776l0.837,0.805l-1.151,0.154c-1.107,0.147-2.094,1.681-2.651,2.82
					C1069.27,582.844,1071.146,582.741,1072.992,582.741z M1085.232,566.395h58.734c-0.277-0.799-0.881-2.086-1.997-2.564
					l-1.863-0.8l2.009-0.27c3.058-0.412,10.757-1.872,13.726-4.076h-82.088v2.801C1077.9,561.343,1082.106,563.178,1085.232,566.395
					z"
				/>
				<path
					fill="#AD8726"
					d="M1248.495,682.826h-1.119V626.33c-0.684-0.213-2.126-0.691-3.828-1.426v57.922h-1.12v-58.428
					c-4-1.887-8.771-5.05-8.771-9.404v-24.842c-2.124-1.112-4.164-2.602-5.81-4.597c-9.169,2.206-15.649,5.79-15.755,5.849
					l-0.662,0.372l-0.16-0.743c-0.633-2.953-0.347-5.141-0.135-6.139c-3.505-1.06-4.58-6.235-4.625-6.468l-0.244-1.217l1.074,0.623
					c4.511,2.621,11.847,2.821,17.698,2.44c-1.007-3.68-0.311-7.651,2.043-11.258c0.341-0.523,0.708-1.024,1.098-1.501h-59.164
					l0.135-0.669c0.02-0.1,0.401-1.937,1.618-3.186c-3.4-0.561-11.993-2.245-14.01-5.222l-0.592-0.874h85.609v5.123l-0.607-0.051
					c-3.658-0.304-7.429,1.116-10.379,3.758h4.423v7h13.428l-0.16,0.687c-0.537,2.313-2.134,4.361-3.025,5.365
					c1.806,0.968,2.874,3.754,3.007,4.114l0.321,0.88l-0.928-0.133c-4.493-0.643-8.936-0.541-13.079-0.024v5.143
					c5.617,2.727,11.678,2.889,11.771,2.891l0.549,0.011v8.536l-0.689-0.163c-0.024-0.004-0.734-0.147-1.426,0.411
					c-0.654,0.53-1.433,1.814-1.433,4.924v17.633c2.46,1.101,4.489,1.692,4.541,1.707l0.406,0.116V682.826z M1234.776,590.702
					v24.292c0,3.594,4.027,6.375,7.651,8.15v-17.109c0-2.874,0.631-4.832,1.878-5.817c0.599-0.474,1.216-0.617,1.67-0.647v-6.157
					C1244.35,593.321,1239.497,592.873,1234.776,590.702z M1207.946,579.407c0.528,1.572,1.729,4.173,3.958,4.517l0.651,0.101
					l-0.205,0.629c-0.008,0.021-0.678,2.129-0.124,5.415c1.879-0.963,7.48-3.644,14.883-5.48c-0.338-0.481-0.654-0.989-0.944-1.523
					c-0.297-0.546-0.551-1.104-0.764-1.672C1219.829,581.779,1212.819,581.651,1207.946,579.407z M1229.089,585.271
					c1.328,1.479,2.909,2.648,4.568,3.572v-4.408C1232.082,584.662,1230.554,584.946,1229.089,585.271z M1226.569,581.304
					c0.168,0.414,0.361,0.824,0.58,1.227c0.343,0.631,0.727,1.222,1.143,1.775c1.71-0.393,3.505-0.735,5.365-0.999v-2.916
					C1232.463,580.603,1229.83,581.026,1226.569,581.304z M1234.776,579.036v4.122c3.895-0.478,8.04-0.594,12.253-0.089
					c-0.558-1.14-1.544-2.673-2.651-2.82l-1.149-0.154l0.836-0.805c0.023-0.023,2.25-2.19,3.129-4.776h-13.101v-6.999h-4.435
					c-0.595,0.65-1.145,1.356-1.638,2.113c-2.217,3.395-2.844,7.13-1.839,10.563c4.484-0.358,7.849-1.007,7.927-1.021
					L1234.776,579.036z M1170.441,566.395h58.735c3.126-3.219,7.341-5.061,11.479-4.909v-2.801h-82.087
					c2.968,2.204,10.667,3.664,13.724,4.076l2.009,0.27l-1.863,0.8C1171.322,564.309,1170.719,565.596,1170.441,566.395z"
				/>
				<path
					fill="#AD8726"
					d="M1241.776,820.741h-85.609l0.592-0.874c2.017-2.978,10.609-4.661,14.01-5.223
					c-1.217-1.249-1.599-3.085-1.618-3.185l-0.135-0.669h59.164c-0.39-0.478-0.757-0.978-1.098-1.501
					c-2.354-3.605-3.05-7.578-2.043-11.257c-5.856-0.382-13.189-0.181-17.698,2.439l-1.074,0.623l0.244-1.218
					c0.045-0.231,1.12-5.407,4.625-6.468c-0.212-0.997-0.498-3.185,0.135-6.139l0.16-0.743l0.662,0.373
					c0.105,0.059,6.588,3.642,15.755,5.849c1.646-1.995,3.686-3.484,5.81-4.597v-24.843c0-4.354,4.771-7.518,8.771-9.404v-68.141
					h1.12v67.636c1.702-0.735,3.145-1.213,3.828-1.426v-66.21h1.119v67.049l-0.406,0.115c-0.052,0.016-2.081,0.607-4.541,1.709
					v17.632c0,3.132,0.79,4.415,1.452,4.938c0.689,0.546,1.4,0.396,1.406,0.396l0.689-0.163v8.535l-0.549,0.012
					c-0.093,0.002-6.153,0.168-11.771,2.895v5.138c4.146,0.517,8.584,0.619,13.079-0.023l0.928-0.133l-0.321,0.88
					c-0.133,0.36-1.201,3.146-3.007,4.114c0.892,1.004,2.488,3.052,3.025,5.365l0.16,0.687h-13.428v6.999h-4.423
					c2.949,2.643,6.721,4.063,10.379,3.758l0.607-0.05V820.741z M1158.569,819.621h82.087v-2.801
					c-4.155,0.151-8.354-1.692-11.479-4.91h-58.735c0.277,0.8,0.881,2.087,1.997,2.565l1.863,0.799l-2.009,0.271
					C1169.236,815.957,1161.537,817.417,1158.569,819.621z M1229.658,810.791h4.435v-7h13.101c-0.88-2.591-3.105-4.752-3.129-4.775
					l-0.838-0.805l1.151-0.154c1.107-0.148,2.094-1.682,2.651-2.821c-4.211,0.506-8.359,0.391-12.253-0.088v4.122l-0.668-0.133
					c-0.078-0.016-3.445-0.664-7.928-1.021c-1.004,3.432-0.377,7.168,1.84,10.563
					C1228.514,809.435,1229.063,810.14,1229.658,810.791z M1212.227,788.237c-0.554,3.286,0.116,5.393,0.124,5.415l0.205,0.628
					l-0.651,0.102c-2.235,0.343-3.435,2.946-3.96,4.518c4.872-2.245,11.885-2.373,17.457-1.987c0.213-0.566,0.467-1.125,0.764-1.671
					c0.29-0.535,0.606-1.042,0.944-1.523C1219.706,791.881,1214.105,789.2,1212.227,788.237z M1226.569,797.002
					c3.262,0.276,5.894,0.701,7.088,0.913V795c-1.86-0.266-3.654-0.607-5.363-0.999c-0.418,0.553-0.802,1.143-1.145,1.774
					C1226.931,796.178,1226.737,796.588,1226.569,797.002z M1229.09,793.036c1.466,0.323,2.992,0.607,4.567,0.835v-4.405
					C1231.998,790.39,1230.419,791.558,1229.09,793.036z M1242.428,755.163c-3.624,1.776-7.651,4.558-7.651,8.147v24.293
					c4.721-2.171,9.573-2.619,11.199-2.712v-6.157c-0.454-0.029-1.071-0.174-1.67-0.647c-1.247-0.985-1.878-2.942-1.878-5.816
					V755.163z"
				/>
				<path
					fill="#AD8726"
					d="M1158.241,820.741h-85.608v-5.123l0.606,0.05c3.658,0.307,7.43-1.115,10.379-3.758h-4.422v-6.999
					h-13.428l0.159-0.687c0.538-2.313,2.135-4.361,3.025-5.365c-1.806-0.969-2.873-3.754-3.006-4.114l-0.321-0.88l0.927,0.133
					c4.492,0.643,8.935,0.54,13.08,0.023v-5.142c-5.618-2.727-11.677-2.889-11.771-2.891l-0.549-0.012v-8.535l0.689,0.163
					c0.023,0.003,0.734,0.147,1.425-0.412c0.654-0.53,1.434-1.813,1.434-4.923v-17.633c-2.46-1.101-4.49-1.692-4.542-1.708
					l-0.405-0.115v-67.049h1.12v66.21c0.683,0.213,2.125,0.69,3.827,1.426v-67.636h1.12v68.141c3.999,1.887,8.771,5.051,8.771,9.404
					v24.843c2.122,1.112,4.163,2.602,5.808,4.597c9.169-2.206,15.65-5.79,15.755-5.849l0.663-0.372l0.159,0.742
					c0.633,2.954,0.348,5.142,0.137,6.139c3.503,1.061,4.578,6.236,4.625,6.468l0.242,1.218l-1.072-0.623
					c-4.511-2.62-11.845-2.82-17.699-2.439c1.007,3.679,0.311,7.651-2.044,11.257c-0.341,0.523-0.707,1.023-1.097,1.501h59.163
					l-0.134,0.669c-0.02,0.1-0.4,1.936-1.619,3.185c3.4,0.562,11.994,2.245,14.01,5.223L1158.241,820.741z M1073.753,819.621h82.088
					c-2.969-2.205-10.668-3.664-13.726-4.076l-2.009-0.271l1.863-0.799c1.123-0.481,1.725-1.767,1.999-2.565h-58.736
					c-3.126,3.218-7.349,5.048-11.479,4.91V819.621z M1080.316,810.791h4.434c0.596-0.651,1.145-1.356,1.64-2.113
					c2.215-3.395,2.843-7.131,1.838-10.563c-4.484,0.357-7.85,1.006-7.927,1.021l-0.668,0.133v-4.122
					c-3.895,0.478-8.041,0.593-12.254,0.088c0.558,1.14,1.544,2.673,2.651,2.821l1.15,0.154l-0.836,0.805
					c-0.023,0.022-2.25,2.19-3.129,4.775h13.101V810.791z M1093.689,796.743c4.468,0,9.195,0.507,12.773,2.155
					c-0.529-1.572-1.729-4.174-3.958-4.517l-0.652-0.101l0.206-0.629c0.007-0.022,0.678-2.13,0.124-5.415
					c-1.879,0.963-7.481,3.644-14.884,5.48c0.338,0.481,0.654,0.988,0.945,1.523c0.296,0.546,0.551,1.104,0.763,1.671
					C1090.489,796.81,1092.071,796.743,1093.689,796.743z M1080.753,794.998v2.917c1.192-0.212,3.826-0.637,7.086-0.913
					c-0.168-0.414-0.36-0.824-0.579-1.227c-0.344-0.632-0.727-1.222-1.144-1.775
					C1084.406,794.393,1082.612,794.734,1080.753,794.998z M1080.753,789.462v4.409c1.574-0.228,3.102-0.512,4.567-0.836
					C1083.992,791.557,1082.41,790.387,1080.753,789.462z M1068.434,784.892c1.625,0.093,6.478,0.541,11.199,2.712v-24.293
					c0-3.594-4.027-6.374-7.651-8.149v17.109c0,2.874-0.632,4.831-1.878,5.816c-0.6,0.474-1.217,0.618-1.67,0.647V784.892z"
				/>
			</g>
			<g>
				<g>
					<g>
						<g>
							<g>
								<path
									fill="#AD8726"
									d="M1184.988,672.73c-0.02,0-0.04,0-0.06-0.001c-1.012-0.019-1.82-0.543-2.218-1.435
									c-0.348-0.783-0.201-1.391-0.017-1.762c0.549-1.106,2.05-1.491,2.22-1.53c0.299-0.075,0.602,0.114,0.674,0.414
									c0.071,0.3-0.114,0.602-0.415,0.675c-0.319,0.078-1.209,0.398-1.477,0.941c-0.113,0.229-0.101,0.493,0.039,0.807
									c0.276,0.623,0.813,0.763,1.214,0.771c0.857,0.019,2-0.555,2.552-1.678c0.584-1.188,0.276-2.623-0.864-4.044
									c-3.509-4.37-12.684-4.073-12.771-4.061l-0.582,0.021v-17.94l-8.757,7.906c4.378,5.811,2.965,11.827,1.88,14.657
									c2.664-1.379,5.263-1.783,7.74-1.2c4.692,1.104,7.215,5.332,7.319,5.512c0.156,0.267,0.066,0.608-0.2,0.765
									c-0.265,0.157-0.609,0.067-0.766-0.198c-0.023-0.04-2.398-4.001-6.621-4.99c-2.644-0.617-5.473,0.038-8.409,1.956
									l-2.005,1.31l1.218-2.064c0.191-0.323,4.618-8.029-1.354-15.462l-0.332-0.412l11.407-10.298v19.31c0.002,0,0.004,0,0.006,0
									c2.184,0,9.747,0.312,13.099,4.487c1.929,2.401,1.453,4.314,0.997,5.24C1187.835,671.791,1186.396,672.73,1184.988,672.73z"
								/>
								<path
									fill="#AD8726"
									d="M1184.432,683.386h-28.287l2.349-1.069c0.046-0.021,4.609-2.105,6.11-3.453
									c1.532-1.373,5.416-4.504,8.332-3.881c1.013,0.215,1.793,0.88,2.259,1.923c0.771,1.726-0.139,2.529-0.565,2.795
									c-1.232,0.769-3.591,0.467-4.108-0.155c-0.198-0.237-0.166-0.591,0.072-0.788c0.237-0.196,0.592-0.165,0.788,0.073
									c0.272,0.183,2.063,0.414,2.756-0.152c0.113-0.092,0.456-0.373,0.035-1.315c-0.322-0.724-0.804-1.144-1.47-1.285
									c-1.652-0.352-4.47,1.035-7.351,3.62c-0.905,0.813-2.723,1.819-4.189,2.568h21.677c-5.374-13.669-21.309-9.182-21.996-8.981
									l-1.21,0.354l0.548-1.136c5.897-12.196-2.988-20.414-3.369-20.759l-0.445-0.401l14.979-14.494v28.802
									c0,0.31-0.25,0.56-0.56,0.56s-0.56-0.25-0.56-0.56v-26.159l-12.243,11.844c1.773,1.869,8.288,9.761,3.683,20.605
									c4.066-0.835,17.872-2.593,22.507,10.7L1184.432,683.386z"
								/>
							</g>
							<path
								fill="#AD8726"
								d="M1209.969,683.386h-19.607c-0.31,0-0.56-0.25-0.56-0.56s0.25-0.561,0.56-0.561h16.957
								c-3.111-3.112-9.244-8.772-11.544-8.772c-1.473,0-2.422,1.226-2.6,2.436c-0.153,1.05,0.246,2.34,1.827,2.814
								c0.296,0.089,0.465,0.4,0.376,0.697c-0.09,0.296-0.4,0.463-0.697,0.375c-1.867-0.561-2.893-2.149-2.614-4.049
								c0.248-1.687,1.601-3.394,3.708-3.394c3.497,0,12.291,9.034,13.282,10.064L1209.969,683.386z"
							/>
						</g>
						<g>
							<g>
								<path
									fill="#AD8726"
									d="M1129.383,672.73c-1.407,0-2.847-0.939-3.518-2.304c-0.454-0.926-0.931-2.839,0.997-5.24
									c3.352-4.175,10.915-4.487,13.1-4.487c0.002,0,0.003,0,0.005,0v-19.31l11.407,10.298l-0.332,0.412
									c-5.972,7.433-1.545,15.139-1.354,15.462l1.217,2.063l-2.005-1.308c-2.937-1.917-5.767-2.574-8.409-1.956
									c-4.223,0.989-6.598,4.95-6.62,4.99c-0.156,0.266-0.499,0.355-0.767,0.198c-0.267-0.156-0.355-0.498-0.2-0.765
									c0.106-0.18,2.628-4.407,7.321-5.512c2.477-0.583,5.074-0.179,7.739,1.2c-1.086-2.83-2.499-8.847,1.88-14.657l-8.758-7.906
									v17.94l-0.581-0.021c-0.098-0.008-9.268-0.305-12.771,4.061c-1.141,1.421-1.446,2.856-0.864,4.044
									c0.553,1.123,1.726,1.696,2.552,1.678c0.401-0.008,0.938-0.147,1.214-0.771c0.141-0.313,0.152-0.578,0.04-0.807
									c-0.269-0.543-1.157-0.863-1.478-0.941c-0.3-0.073-0.486-0.375-0.414-0.675s0.373-0.489,0.673-0.414
									c0.17,0.039,1.672,0.424,2.222,1.53c0.184,0.371,0.329,0.979-0.02,1.762c-0.396,0.892-1.203,1.416-2.215,1.435
									C1129.423,672.73,1129.403,672.73,1129.383,672.73z"
								/>
								<path
									fill="#AD8726"
									d="M1155.646,683.386h-25.705l0.26-0.745c4.632-13.291,18.438-11.533,22.506-10.7
									c-4.606-10.845,1.908-18.736,3.683-20.605l-12.244-11.844v26.159c0,0.31-0.25,0.56-0.56,0.56s-0.561-0.25-0.561-0.56
									v-28.802l14.981,14.494l-0.445,0.401c-0.382,0.345-9.268,8.563-3.37,20.759l0.549,1.136l-1.211-0.354
									c-0.687-0.2-16.621-4.686-21.995,8.981h21.677c-1.468-0.749-3.284-1.756-4.19-2.568c-2.879-2.585-5.695-3.972-7.351-3.62
									c-0.666,0.142-1.146,0.562-1.469,1.285c-0.421,0.942-0.079,1.224,0.033,1.315c0.695,0.566,2.484,0.337,2.791,0.117
									c0.201-0.238,0.535-0.254,0.772-0.055c0.237,0.196,0.253,0.567,0.055,0.805c-0.516,0.622-2.874,0.924-4.108,0.155
									c-0.427-0.266-1.336-1.069-0.565-2.795c0.465-1.043,1.246-1.708,2.258-1.923c2.927-0.629,6.801,2.508,8.332,3.881
									c1.501,1.348,6.063,3.433,6.11,3.453l2.35,1.069H1155.646z"
								/>
							</g>
							<path
								fill="#AD8726"
								d="M1124.01,683.386h-19.607l0.912-0.948c0.992-1.03,9.786-10.064,13.282-10.064
								c2.107,0,3.461,1.707,3.708,3.394c0.278,1.899-0.747,3.488-2.614,4.049c-0.298,0.088-0.608-0.079-0.696-0.375
								c-0.089-0.297,0.079-0.608,0.375-0.697c1.583-0.475,1.981-1.765,1.827-2.814c-0.177-1.21-1.127-2.436-2.6-2.436
								c-2.299,0-8.433,5.66-11.543,8.772h16.956c0.31,0,0.56,0.251,0.56,0.561S1124.319,683.386,1124.01,683.386z"
							/>
						</g>
					</g>
					<g>
						<g>
							<g>
								<path
									fill="#AD8726"
									d="M1139.967,727.202v-19.31c-0.002,0-0.003,0-0.005,0c-2.185,0-9.747-0.312-13.1-4.487
									c-1.928-2.401-1.451-4.314-0.997-5.241c0.671-1.363,2.11-2.303,3.518-2.303c0.021,0,0.04,0,0.062,0.001
									c1.012,0.019,1.818,0.542,2.215,1.435c0.349,0.783,0.203,1.391,0.02,1.761c-0.55,1.107-2.052,1.492-2.222,1.531
									c-0.3,0.078-0.601-0.113-0.673-0.414c-0.072-0.3,0.114-0.602,0.414-0.675c0.32-0.078,1.209-0.398,1.478-0.941
									c0.112-0.229,0.101-0.494-0.04-0.807c-0.276-0.623-0.813-0.764-1.214-0.771c-0.826-0.004-1.999,0.554-2.552,1.677
									c-0.582,1.188-0.276,2.624,0.865,4.045c3.508,4.369,12.677,4.068,12.77,4.061l0.582-0.021v17.939l8.758-7.905
									c-4.379-5.811-2.966-11.827-1.88-14.657c-2.665,1.38-5.263,1.782-7.739,1.199c-4.693-1.104-7.215-5.331-7.321-5.511
									c-0.155-0.267-0.066-0.609,0.2-0.766c0.266-0.157,0.61-0.066,0.767,0.199c0.022,0.039,2.397,4.001,6.62,4.99
									c2.645,0.617,5.473-0.038,8.409-1.956l2.005-1.31l-1.217,2.063c-0.191,0.324-4.618,8.03,1.354,15.463l0.332,0.412
									L1139.967,727.202z"
								/>
								<path
									fill="#AD8726"
									d="M1143.024,731.743v-28.802c0-0.31,0.251-0.56,0.561-0.56s0.56,0.25,0.56,0.56v26.159l12.244-11.845
									c-1.774-1.869-8.289-9.761-3.683-20.605c-4.068,0.834-17.871,2.594-22.506-10.7l-0.26-0.744h28.287l-2.35,1.069
									c-0.047,0.021-4.609,2.105-6.11,3.452c-1.531,1.375-5.407,4.515-8.332,3.882c-1.012-0.216-1.793-0.881-2.258-1.923
									c-0.771-1.726,0.139-2.529,0.565-2.795c1.233-0.768,3.593-0.466,4.108,0.155c0.198,0.237,0.165,0.59-0.072,0.788
									c-0.238,0.197-0.592,0.165-0.788-0.073c-0.273-0.184-2.064-0.415-2.758,0.152c-0.112,0.092-0.454,0.373-0.033,1.315
									c0.322,0.723,0.803,1.143,1.469,1.285c1.655,0.354,4.471-1.036,7.351-3.62c0.906-0.813,2.723-1.819,4.19-2.569h-21.677
									c5.374,13.669,21.308,9.183,21.995,8.982l1.211-0.354l-0.549,1.136c-5.897,12.196,2.988,20.414,3.37,20.759l0.445,0.401
									L1143.024,731.743z"
								/>
							</g>
							<path
								fill="#AD8726"
								d="M1118.597,696.219c-3.496,0-12.29-9.034-13.282-10.064l-0.912-0.948h19.607
								c0.31,0,0.56,0.25,0.56,0.56s-0.25,0.56-0.56,0.56h-16.956c3.11,3.113,9.244,8.773,11.543,8.773
								c1.473,0,2.423-1.226,2.6-2.436c0.154-1.05-0.244-2.34-1.827-2.814c-0.296-0.089-0.464-0.4-0.375-0.697
								c0.088-0.296,0.398-0.467,0.696-0.375c1.867,0.56,2.893,2.149,2.614,4.049
								C1122.058,694.512,1120.704,696.219,1118.597,696.219z"
							/>
						</g>
						<g>
							<g>
								<path
									fill="#AD8726"
									d="M1174.404,727.202l-11.407-10.298l0.332-0.412c5.973-7.433,1.546-15.139,1.354-15.463l-1.218-2.063
									l2.005,1.309c2.938,1.917,5.767,2.574,8.409,1.956c4.223-0.989,6.598-4.951,6.621-4.99c0.156-0.266,0.499-0.356,0.766-0.199
									c0.267,0.156,0.356,0.499,0.2,0.766c-0.104,0.18-2.627,4.406-7.319,5.511c-2.479,0.583-5.076,0.18-7.74-1.199
									c1.085,2.83,2.498,8.847-1.88,14.657l8.757,7.905v-17.939l0.582,0.021c0.095,0.009,9.267,0.304,12.771-4.061
									c1.141-1.421,1.448-2.856,0.864-4.045c-0.552-1.123-1.694-1.681-2.552-1.677c-0.4,0.007-0.938,0.147-1.214,0.771
									c-0.14,0.313-0.152,0.577-0.039,0.807c0.268,0.543,1.157,0.863,1.477,0.941c0.301,0.073,0.486,0.375,0.415,0.675
									c-0.072,0.301-0.375,0.492-0.674,0.414c-0.17-0.039-1.671-0.424-2.22-1.531c-0.185-0.37-0.331-0.978,0.017-1.761
									c0.397-0.893,1.206-1.416,2.218-1.435c0.02-0.001,0.04-0.001,0.06-0.001c1.407,0,2.847,0.939,3.518,2.303
									c0.456,0.927,0.932,2.84-0.995,5.241c-3.354,4.175-10.916,4.487-13.101,4.487c-0.002,0-0.004,0-0.006,0V727.202z"
								/>
								<path
									fill="#AD8726"
									d="M1171.346,731.743l-14.98-14.494l0.446-0.401c0.381-0.345,9.267-8.563,3.369-20.759l-0.549-1.136
									l1.211,0.354c0.688,0.2,16.622,4.686,21.996-8.982h-21.677c1.467,0.75,3.284,1.757,4.189,2.569
									c2.88,2.584,5.698,3.974,7.351,3.62c0.666-0.143,1.147-0.563,1.47-1.285c0.421-0.942,0.078-1.224-0.035-1.315
									c-0.693-0.566-2.483-0.336-2.791-0.117c-0.197,0.239-0.533,0.255-0.771,0.055c-0.237-0.197-0.253-0.567-0.055-0.805
									c0.518-0.621,2.875-0.923,4.108-0.155c0.427,0.266,1.336,1.069,0.565,2.795c-0.466,1.042-1.246,1.707-2.259,1.923
									c-2.923,0.63-6.8-2.508-8.332-3.882c-1.501-1.347-6.064-3.432-6.11-3.452l-2.349-1.069h28.287l-0.259,0.744
									c-4.635,13.293-18.438,11.536-22.507,10.7c4.605,10.845-1.909,18.736-3.683,20.605l12.243,11.845v-26.159
									c0-0.31,0.25-0.56,0.56-0.56s0.56,0.25,0.56,0.56V731.743z"
								/>
							</g>
							<path
								fill="#AD8726"
								d="M1195.774,696.219c-2.107,0-3.46-1.707-3.708-3.394c-0.278-1.899,0.747-3.489,2.614-4.049
								c0.297-0.092,0.607,0.079,0.697,0.375c0.089,0.297-0.08,0.608-0.376,0.697c-1.581,0.475-1.98,1.765-1.827,2.814
								c0.178,1.21,1.127,2.436,2.6,2.436c2.3,0,8.433-5.66,11.544-8.773h-16.957c-0.31,0-0.56-0.25-0.56-0.56s0.25-0.56,0.56-0.56
								h19.607l-0.912,0.948C1208.065,687.185,1199.271,696.219,1195.774,696.219z"
							/>
						</g>
					</g>
				</g>
				<g>
					<g>
						<path
							fill="#AD8726"
							d="M1180.687,651.406c-0.309,0-0.56-0.25-0.56-0.56v-48.008l-22.941,8.671l-22.941-8.671v48.008
							c0,0.31-0.251,0.56-0.56,0.56c-0.311,0-0.561-0.25-0.561-0.56v-49.629l24.062,9.096l24.062-9.096v49.629
							C1181.247,651.156,1180.996,651.406,1180.687,651.406z"
						/>
						<path
							fill="#AD8726"
							d="M1202.579,657.971c-0.311,0-0.561-0.251-0.561-0.561v-39.341l-44.833,16.946l-0.198-0.074
							l-44.635-16.872v39.341c0,0.31-0.251,0.561-0.561,0.561c-0.309,0-0.56-0.251-0.56-0.561v-40.961l45.953,17.37l45.953-17.37
							v40.961C1203.139,657.72,1202.888,657.971,1202.579,657.971z"
						/>
					</g>
					<g>
						<path
							fill="#AD8726"
							d="M1181.247,767.375l-24.062-9.096l-24.062,9.096v-49.629c0-0.31,0.25-0.56,0.561-0.56
							c0.309,0,0.56,0.25,0.56,0.56v48.008l22.941-8.671l22.941,8.671v-48.008c0-0.31,0.251-0.56,0.56-0.56
							c0.31,0,0.561,0.25,0.561,0.56V767.375z"
						/>
						<path
							fill="#AD8726"
							d="M1203.139,752.144l-45.953-17.37l-45.953,17.37v-40.962c0-0.309,0.251-0.56,0.56-0.56
							c0.31,0,0.561,0.251,0.561,0.56v39.342l44.833-16.946l0.198,0.074l44.635,16.872v-39.342c0-0.309,0.25-0.56,0.561-0.56
							c0.309,0,0.56,0.251,0.56,0.56V752.144z"
						/>
					</g>
				</g>
			</g>
		</g>
	</g>
</svg>