<svg
	version="1.1"
	id="eta"
	xmlns="http://www.w3.org/2000/svg"
	viewBox="595 548 202 283"
>
	<g>
		<path
			fill="#030E4E"
			d="M796.852,558.514c0-5.566-4.513-10.079-10.078-10.079l0,0H605.35l0,0l0,0
			c-5.567,0-10.079,4.513-10.079,10.079l0,0V820.57c0,5.566,4.512,10.079,10.079,10.079c0.006,0,0.014,0,0.021,0h181.38
			c0.008,0,0.015,0,0.021,0c5.566,0,10.079-4.513,10.079-10.079V558.514L796.852,558.514z"
		/>
		<g>
			<g>
				<path
					fill="#AD8726"
					d="M610.838,683.217h-1.12v-57.922c-1.702,0.734-3.145,1.211-3.828,1.426v56.496h-1.119v-57.336
					l0.406-0.116c0.051-0.016,2.081-0.605,4.541-1.708v-17.632c0-3.133-0.79-4.414-1.453-4.939
					c-0.688-0.544-1.399-0.396-1.405-0.396l-0.689,0.164v-8.537l0.549-0.011c0.093-0.003,6.153-0.169,11.771-2.894v-5.139
					c-4.146-0.516-8.585-0.619-13.08,0.024l-0.927,0.131l0.321-0.879c0.133-0.361,1.2-3.146,3.006-4.114
					c-0.891-1.004-2.487-3.052-3.024-5.365l-0.16-0.688h13.428v-6.999h4.422c-2.948-2.643-6.724-4.066-10.379-3.758l-0.606,0.05
					v-5.122h85.608l-0.592,0.875c-2.016,2.977-10.609,4.661-14.01,5.221c1.218,1.249,1.6,3.087,1.619,3.185l0.134,0.67h-59.163
					c0.389,0.477,0.756,0.978,1.098,1.5c2.354,3.607,3.049,7.579,2.043,11.258c5.856,0.381,13.188,0.18,17.698-2.438l1.074-0.623
					l-0.244,1.216c-0.046,0.231-1.121,5.409-4.625,6.468c0.212,0.997,0.497,3.185-0.136,6.14l-0.159,0.744l-0.662-0.374
					c-0.105-0.06-6.588-3.642-15.755-5.849c-1.646,1.994-3.686,3.484-5.81,4.598v24.841c0,4.354-4.771,7.518-8.771,9.405V683.217z
					 M607.29,599.961c0.453,0.028,1.071,0.173,1.67,0.647c1.246,0.984,1.878,2.942,1.878,5.816v17.106
					c3.624-1.775,7.651-4.556,7.651-8.147v-24.292c-4.721,2.172-9.573,2.62-11.199,2.712V599.961z M626.156,584.979
					c7.402,1.837,13.004,4.517,14.883,5.479c0.553-3.285-0.117-5.392-0.124-5.413l-0.205-0.628l0.651-0.103
					c2.235-0.344,3.434-2.944,3.96-4.517c-4.872,2.246-11.885,2.373-17.457,1.985c-0.213,0.566-0.467,1.127-0.764,1.671
					C626.81,583.989,626.494,584.497,626.156,584.979z M619.608,584.825v4.405c1.659-0.926,3.238-2.094,4.567-3.572
					C622.71,585.337,621.184,585.053,619.608,584.825z M619.608,583.696c1.86,0.265,3.654,0.605,5.363,0.997
					c0.418-0.551,0.802-1.142,1.145-1.773c0.219-0.402,0.411-0.812,0.58-1.228c-3.262-0.275-5.894-0.699-7.088-0.912V583.696z
					 M611.849,583.132c2.271,0,4.493,0.153,6.641,0.416v-4.121l0.668,0.131c0.078,0.016,3.444,0.665,7.927,1.021
					c1.005-3.432,0.378-7.167-1.839-10.563c-0.493-0.757-1.043-1.461-1.639-2.112h-4.435v6.999h-13.1
					c0.879,2.592,3.104,4.753,3.129,4.777l0.838,0.805l-1.152,0.153c-1.107,0.148-2.093,1.682-2.65,2.821
					C608.125,583.232,610.002,583.132,611.849,583.132z M624.088,566.784h58.735c-0.276-0.799-0.88-2.087-1.997-2.563l-1.863-0.801
					l2.009-0.269c3.058-0.414,10.757-1.873,13.725-4.077h-82.087v2.802C616.759,561.727,620.963,563.566,624.088,566.784z"
				/>
				<path
					fill="#AD8726"
					d="M787.353,683.217h-1.12v-56.496c-0.685-0.215-2.126-0.691-3.828-1.426v57.922h-1.12v-58.428
					c-4-1.888-8.771-5.051-8.771-9.405v-24.841c-2.124-1.113-4.165-2.604-5.81-4.598c-9.169,2.207-15.65,5.789-15.755,5.849
					l-0.663,0.372l-0.158-0.742c-0.634-2.955-0.347-5.143-0.137-6.14c-3.503-1.059-4.578-6.236-4.624-6.468l-0.244-1.216
					l1.073,0.623c4.511,2.62,11.849,2.819,17.699,2.438c-1.006-3.679-0.311-7.65,2.043-11.258c0.341-0.522,0.709-1.023,1.098-1.5
					h-59.164l0.134-0.67c0.02-0.098,0.402-1.936,1.619-3.185c-3.399-0.56-11.994-2.244-14.01-5.221l-0.591-0.875h85.608v5.122
					l-0.607-0.05c-3.659-0.302-7.43,1.115-10.378,3.758h4.421v6.999h13.428l-0.159,0.688c-0.538,2.313-2.135,4.361-3.025,5.365
					c1.806,0.969,2.874,3.753,3.006,4.114l0.321,0.879l-0.927-0.131c-4.493-0.644-8.936-0.543-13.078-0.024v5.143
					c5.616,2.726,11.676,2.887,11.77,2.89l0.549,0.011v8.537l-0.688-0.164c-0.024-0.002-0.735-0.146-1.427,0.411
					c-0.653,0.531-1.433,1.815-1.433,4.924v17.634c2.459,1.101,4.489,1.69,4.541,1.706l0.407,0.116V683.217z M773.634,591.092
					v24.292c0,3.594,4.026,6.376,7.65,8.149v-17.108c0-2.874,0.632-4.832,1.877-5.816c0.6-0.475,1.218-0.619,1.671-0.647v-6.157
					C783.206,593.712,778.354,593.264,773.634,591.092z M746.802,579.797c0.529,1.572,1.73,4.173,3.959,4.517l0.652,0.101
					l-0.206,0.63c-0.008,0.021-0.678,2.128-0.125,5.413c1.879-0.962,7.481-3.642,14.884-5.479c-0.338-0.481-0.654-0.989-0.943-1.525
					c-0.298-0.544-0.552-1.104-0.765-1.671C758.685,582.17,751.675,582.043,746.802,579.797z M767.944,585.66
					c1.33,1.479,2.91,2.649,4.569,3.572v-4.407C770.938,585.053,769.411,585.337,767.944,585.66z M765.426,581.692
					c0.168,0.416,0.361,0.825,0.58,1.228c0.343,0.632,0.727,1.223,1.144,1.776c1.709-0.395,3.504-0.735,5.364-1v-2.916
					C771.319,580.993,768.686,581.417,765.426,581.692z M773.634,579.427v4.121c3.893-0.478,8.039-0.593,12.252-0.088
					c-0.558-1.14-1.543-2.673-2.651-2.821l-1.149-0.153l0.836-0.805c0.023-0.024,2.25-2.192,3.128-4.777h-13.1v-6.999h-4.435
					c-0.595,0.651-1.145,1.355-1.638,2.112c-2.217,3.396-2.844,7.131-1.84,10.563c4.484-0.356,7.85-1.006,7.927-1.021
					L773.634,579.427z M709.298,566.784h58.736c3.124-3.218,7.348-5.055,11.479-4.908v-2.802h-82.087
					c2.968,2.204,10.667,3.663,13.724,4.077l2.01,0.269l-1.864,0.801C710.179,564.697,709.575,565.985,709.298,566.784z"
				/>
				<path
					fill="#AD8726"
					d="M780.633,821.13h-85.608l0.591-0.872c2.016-2.978,10.61-4.661,14.01-5.224
					c-1.217-1.249-1.6-3.084-1.619-3.185l-0.134-0.67h59.164c-0.389-0.477-0.757-0.978-1.098-1.5
					c-2.354-3.604-3.049-7.577-2.043-11.256c-5.857-0.383-13.189-0.182-17.699,2.438l-1.073,0.624l0.244-1.219
					c0.046-0.231,1.121-5.407,4.624-6.468c-0.21-0.997-0.497-3.185,0.137-6.138l0.158-0.743l0.663,0.371
					c0.104,0.06,6.588,3.643,15.755,5.85c1.645-1.995,3.686-3.484,5.81-4.596V763.7c0-4.353,4.771-7.518,8.771-9.403v-68.141h1.12
					v67.636c1.702-0.735,3.144-1.214,3.828-1.427v-66.209h1.12v67.047l-0.407,0.116c-0.052,0.016-2.082,0.608-4.541,1.708v17.632
					c0,3.133,0.79,4.417,1.452,4.939c0.689,0.544,1.4,0.396,1.407,0.396l0.688-0.162v8.535l-0.549,0.011
					c-0.094,0.003-6.153,0.169-11.77,2.896v5.138c4.145,0.517,8.584,0.617,13.078-0.023l0.927-0.134l-0.321,0.879
					c-0.132,0.361-1.2,3.147-3.006,4.114c0.891,1.004,2.487,3.054,3.025,5.366l0.159,0.687h-13.428v6.999h-4.421
					c2.947,2.643,6.718,4.064,10.378,3.758l0.607-0.05V821.13z M697.426,820.01h82.087v-2.799
					c-4.151,0.131-8.354-1.693-11.479-4.911h-58.736c0.277,0.801,0.881,2.087,1.997,2.565l1.864,0.799l-2.01,0.271
					C708.093,816.347,700.394,817.808,697.426,820.01z M768.515,811.18h4.435v-6.999h13.1c-0.879-2.59-3.104-4.751-3.128-4.774
					l-0.838-0.806l1.151-0.155c1.108-0.146,2.094-1.68,2.651-2.819c-4.212,0.506-8.359,0.39-12.252-0.09v4.123l-0.67-0.133
					c-0.077-0.016-3.443-0.663-7.927-1.021c-1.004,3.432-0.377,7.168,1.84,10.563C767.37,809.824,767.92,810.53,768.515,811.18z
					 M751.082,788.627c-0.553,3.287,0.117,5.394,0.125,5.416l0.206,0.627l-0.652,0.101c-2.235,0.344-3.434,2.946-3.961,4.52
					c4.873-2.246,11.885-2.373,17.458-1.988c0.213-0.566,0.467-1.124,0.765-1.671c0.289-0.534,0.605-1.041,0.943-1.522
					C758.563,792.271,752.961,789.589,751.082,788.627z M765.426,797.392c3.262,0.277,5.894,0.702,7.088,0.914v-2.916
					c-1.861-0.265-3.655-0.607-5.363-0.999c-0.418,0.553-0.802,1.144-1.145,1.773C765.787,796.566,765.594,796.978,765.426,797.392z
					 M767.946,793.426c1.466,0.323,2.992,0.608,4.567,0.836v-4.405C770.854,790.779,769.274,791.947,767.946,793.426z
					 M781.284,755.553c-3.624,1.776-7.65,4.559-7.65,8.147v24.292c4.72-2.17,9.572-2.618,11.198-2.71v-6.157
					c-0.453-0.03-1.071-0.175-1.671-0.647c-1.245-0.986-1.877-2.944-1.877-5.818V755.553z"
				/>
				<path
					fill="#AD8726"
					d="M697.098,821.13h-85.608v-5.122l0.606,0.05c3.657,0.309,7.431-1.113,10.379-3.758h-4.422v-6.999h-13.428
					l0.16-0.687c0.537-2.313,2.134-4.362,3.024-5.366c-1.806-0.967-2.873-3.753-3.006-4.114l-0.321-0.879l0.927,0.134
					c4.493,0.641,8.936,0.537,13.08,0.023v-5.143c-5.618-2.728-11.678-2.889-11.771-2.892l-0.549-0.011v-8.535l0.689,0.162
					c0.023,0.005,0.734,0.148,1.425-0.411c0.654-0.529,1.434-1.813,1.434-4.924v-17.632c-2.46-1.1-4.49-1.692-4.541-1.708
					l-0.406-0.116v-67.047h1.119v66.209c0.685,0.213,2.126,0.691,3.828,1.427v-67.636h1.12v68.141c4,1.886,8.771,5.051,8.771,9.403
					v24.844c2.124,1.111,4.164,2.601,5.81,4.596c9.169-2.205,15.649-5.79,15.755-5.85l0.662-0.371l0.159,0.743
					c0.633,2.953,0.348,5.141,0.136,6.138c3.504,1.061,4.579,6.236,4.625,6.468l0.244,1.219l-1.074-0.624
					c-4.51-2.62-11.842-2.821-17.698-2.438c1.006,3.679,0.311,7.651-2.043,11.256c-0.342,0.522-0.709,1.023-1.098,1.5h59.163
					l-0.134,0.67c-0.02,0.101-0.401,1.936-1.619,3.185c3.4,0.563,11.994,2.246,14.01,5.224L697.098,821.13z M612.609,820.01h82.088
					c-2.969-2.204-10.668-3.663-13.726-4.074l-2.01-0.271l1.864-0.799c1.123-0.48,1.725-1.767,1.999-2.565h-58.737
					c-3.126,3.22-7.354,5.053-11.479,4.911V820.01z M619.172,811.18h4.435c0.596-0.649,1.146-1.355,1.639-2.112
					c2.217-3.395,2.844-7.131,1.839-10.563c-4.483,0.358-7.849,1.006-7.927,1.021l-0.668,0.133v-4.123
					c-3.895,0.479-8.04,0.593-12.253,0.09c0.558,1.14,1.543,2.673,2.65,2.819l1.15,0.155l-0.836,0.806
					c-0.023,0.021-2.25,2.189-3.129,4.774h13.1V811.18z M632.546,797.133c4.467,0,9.195,0.508,12.773,2.155
					c-0.528-1.573-1.729-4.174-3.958-4.518l-0.652-0.101l0.206-0.627c0.007-0.022,0.677-2.131,0.124-5.416
					c-1.879,0.962-7.481,3.644-14.883,5.481c0.338,0.481,0.653,0.988,0.944,1.522c0.296,0.547,0.551,1.104,0.764,1.671
					C629.346,797.199,630.928,797.133,632.546,797.133z M619.608,795.388v2.918c1.194-0.212,3.827-0.637,7.088-0.914
					c-0.169-0.414-0.361-0.825-0.58-1.228c-0.343-0.63-0.727-1.221-1.144-1.773C623.263,794.782,621.469,795.125,619.608,795.388z
					 M619.608,789.852v4.41c1.575-0.228,3.103-0.513,4.568-0.836C622.848,791.947,621.268,790.777,619.608,789.852z M607.29,785.282
					c1.626,0.092,6.479,0.54,11.199,2.71V763.7c0-3.594-4.027-6.374-7.651-8.149v17.108c0,2.874-0.632,4.832-1.878,5.818
					c-0.599,0.473-1.217,0.617-1.67,0.647V785.282z"
				/>
			</g>
			<path
				fill="#AD8726"
				d="M717.489,741.836c-0.146,0-0.288-0.057-0.396-0.164l-21.033-21.033l-21.032,21.033
				c-0.16,0.16-0.4,0.208-0.61,0.12c-0.209-0.085-0.346-0.291-0.346-0.516v-29.745h-29.744c-0.226,0-0.431-0.138-0.517-0.346
				c-0.087-0.21-0.039-0.451,0.121-0.61l21.032-21.033l-21.032-21.031c-0.16-0.159-0.208-0.402-0.121-0.61
				c0.086-0.209,0.291-0.345,0.517-0.345h29.744v-29.745c0-0.228,0.137-0.432,0.346-0.519c0.21-0.086,0.45-0.04,0.61,0.122
				l21.032,21.031l21.033-21.031c0.16-0.162,0.4-0.208,0.61-0.122c0.208,0.087,0.346,0.291,0.346,0.519v29.745h29.743
				c0.228,0,0.431,0.136,0.518,0.345c0.087,0.208,0.039,0.451-0.122,0.61l-21.031,21.031l21.031,21.033
				c0.161,0.159,0.209,0.4,0.122,0.61c-0.087,0.208-0.29,0.346-0.518,0.346H718.05v29.745c0,0.225-0.138,0.431-0.346,0.516
				C717.634,741.82,717.562,741.836,717.489,741.836z M696.853,719.847l20.077,20.078v-28.394h-11.761L696.853,719.847z
				 M675.192,711.531v28.394l20.076-20.078l-8.316-8.315H675.192z M688.535,711.531l7.525,7.524l7.524-7.524H688.535z
				 M718.05,710.411h28.391l-20.074-20.077l-8.316,8.316V710.411z M706.288,710.411h10.642V699.77L706.288,710.411z
				 M687.416,710.411h17.289l12.225-12.225v-17.289l-12.225-12.223h-17.289l-12.224,12.223v17.289L687.416,710.411z
				 M675.192,710.411h10.641l-10.641-10.642V710.411z M645.681,710.411h28.392V698.65l-8.315-8.316L645.681,710.411z
				 M718.05,682.018v15.049l7.524-7.524L718.05,682.018z M666.548,689.542l7.524,7.524v-15.049L666.548,689.542z M718.05,680.435
				l8.316,8.315l20.074-20.075H718.05V680.435z M645.681,668.675l20.076,20.075l8.315-8.315v-11.76H645.681z M706.288,668.675
				l10.642,10.64v-10.64H706.288z M675.192,668.675v10.64l10.641-10.64H675.192z M705.169,667.556h11.761v-28.394l-20.077,20.075
				L705.169,667.556z M688.535,667.556h15.05l-7.524-7.524L688.535,667.556z M675.192,667.556h11.76l8.316-8.318l-20.076-20.075
				V667.556z"
			/>
		</g>
	</g>
</svg>