<svg
	version="1.1"
	id="gamma"
	xmlns="http://www.w3.org/2000/svg"
	viewBox="595 149 202 283"
>
	<g>
		<path
			fill="#030E4E"
			d="M796.848,159.43c0-5.566-4.513-10.079-10.078-10.079l0,0H605.345l0,0l0,0
			c-5.566,0-10.079,4.513-10.079,10.079l0,0v262.058c0,5.566,4.513,10.079,10.079,10.079c0.007,0,0.015,0,0.021,0h181.38
			c0.008,0,0.016,0,0.022,0c5.566,0,10.079-4.513,10.079-10.079V159.43L796.848,159.43z"
		/>
		<g>
			<g>
				<g>
					<g>
						<path
							fill="#AD8726"
							d="M786.769,291.019c-0.309,0-0.561-0.251-0.561-0.561v-12.596l-5.677-9.515
							c-0.052-0.087-0.08-0.187-0.08-0.287v-8.68c0-0.31,0.252-0.56,0.56-0.56h2.189v-25.534c-0.399-0.421-1.459-1.576-2.644-3.157
							v2.933c0,0.209-0.116,0.4-0.303,0.497c-0.184,0.096-0.407,0.081-0.579-0.039c-6.032-4.232-8.596-13.275-7.509-19.226
							c0.604-3.311,2.292-5.48,4.753-6.111c1.801-0.461,3.386-0.227,4.71,0.696c2.106,1.467,3.002,4.309,3.356,5.948
							c0.943-1.417,2.148-4.445-0.683-8.543c-1.992-2.885-4.846-3.952-7.866-5.082c-3.903-1.459-7.938-2.969-9.89-8.601
							c-0.921-2.661-0.159-6.151,1.942-8.893c2.338-3.049,5.934-4.646,9.854-4.358c5.234,0.37,7.976,4.218,8.733,7.4
							c0.812,3.407-0.377,6.633-3.029,8.218c-2.244,1.341-4.563,1.222-6.36-0.324c-1.774-1.524-2.498-4.014-1.72-5.919
							c0.901-2.215,2.687-2.823,3.938-2.681c1.092,0.13,1.887,0.8,2.025,1.71c0.258,1.677-1.299,2.577-2.157,2.818
							c-0.297,0.083-0.605-0.09-0.689-0.386c-0.084-0.297,0.088-0.605,0.384-0.691c0.063-0.019,1.528-0.455,1.356-1.572
							c-0.06-0.392-0.481-0.699-1.05-0.767c-0.866-0.106-2.104,0.359-2.77,1.991c-0.592,1.449,0.016,3.446,1.413,4.647
							c1.41,1.212,3.253,1.29,5.056,0.211c2.259-1.349,3.221-4.029,2.515-6.996c-0.671-2.813-3.095-6.216-7.724-6.544
							c-4.851-0.337-7.648,2.312-8.886,3.924c-1.85,2.412-2.563,5.565-1.772,7.844c1.779,5.135,5.395,6.487,9.224,7.919
							c3.049,1.141,6.203,2.32,8.395,5.494c4.479,6.482-0.159,10.849-0.207,10.893c-0.156,0.143-0.379,0.188-0.577,0.11
							c-0.197-0.075-0.335-0.255-0.357-0.466c-0.005-0.045-0.512-4.592-3.095-6.389c-1.046-0.727-2.321-0.903-3.791-0.528
							c-2.012,0.516-3.407,2.372-3.93,5.227c-0.972,5.325,1.285,13.314,6.17,17.43v-3.377c-1.429-2.141-2.8-4.744-3.242-7.308
							c-0.376-2.183-0.086-3.912,0.86-5.143c1.144-1.485,2.821-1.651,2.894-1.657c0.156-0.013,0.311,0.039,0.427,0.146
							c0.115,0.105,0.182,0.256,0.182,0.412v13.189c1.767,2.591,3.571,4.45,3.604,4.483c0.102,0.104,0.159,0.245,0.159,0.392v25.759
							h2.448c0.223,0,0.425,0.132,0.514,0.337c0.09,0.204,0.048,0.442-0.105,0.605l-3.007,3.22c-0.158,0.168-0.4,0.222-0.615,0.139
							c-0.214-0.085-0.354-0.292-0.354-0.521v-2.659h-1.629v7.965l5.678,9.515c0.053,0.087,0.079,0.187,0.079,0.287v12.75
							C787.328,290.768,787.079,291.019,786.769,291.019z M784.32,259.941v1.24l1.159-1.24H784.32z M779.437,215.711
							c-0.441,0.158-1.039,0.473-1.505,1.084c-0.739,0.972-0.952,2.403-0.634,4.255c0.313,1.813,1.15,3.679,2.139,5.371V215.711z"
						/>
						<path
							fill="#AD8726"
							d="M783.886,201.133c-0.156,0-0.309-0.065-0.417-0.187c-0.806-0.901-1.768-1.216-3.098-1.651
							c-1.884-0.616-4.231-1.384-7.278-4.207c-1.415-1.313-2.117-2.833-2.082-4.519c0.074-3.707,3.701-6.849,3.856-6.98
							c0.236-0.201,0.588-0.174,0.789,0.062c0.2,0.234,0.173,0.588-0.061,0.789c-0.035,0.029-3.403,2.954-3.466,6.156
							c-0.025,1.351,0.555,2.586,1.725,3.671c2.867,2.656,5.084,3.382,6.865,3.965c0.959,0.313,1.828,0.598,2.605,1.118v-4.861
							c0-0.31,0.252-0.56,0.561-0.56c0.311,0,0.56,0.25,0.56,0.56v6.084c0,0.232-0.143,0.44-0.36,0.523
							C784.021,201.12,783.953,201.133,783.886,201.133z"
						/>
						<path
							fill="#AD8726"
							d="M779.996,188.589c-0.309,0-0.56-0.251-0.56-0.561v-21.267h-21.268c-0.309,0-0.56-0.251-0.56-0.561
							s0.251-0.56,0.56-0.56h21.827c0.311,0,0.561,0.25,0.561,0.56v21.827C780.557,188.338,780.307,188.589,779.996,188.589z"
						/>
						<path
							fill="#AD8726"
							d="M756.008,180.037c-0.847,0-1.662-0.126-2.411-0.386c-5.633-1.951-7.142-5.986-8.602-9.889
							c-1.13-3.021-2.197-5.874-5.081-7.867c-4.123-2.849-7.144-1.631-8.553-0.684c1.639,0.353,4.488,1.247,5.958,3.357
							c0.923,1.325,1.156,2.91,0.696,4.71c-0.631,2.462-2.802,4.15-6.111,4.754c-5.953,1.089-14.994-1.478-19.227-7.511
							c-0.12-0.171-0.135-0.395-0.038-0.579c0.097-0.186,0.287-0.302,0.497-0.302h2.932c-1.582-1.186-2.735-2.244-3.156-2.644
							h-21.728c-0.311,0-0.561-0.25-0.561-0.56s0.25-0.561,0.561-0.561h21.952c0.146,0,0.287,0.058,0.392,0.16
							c0.033,0.032,1.893,1.837,4.482,3.604H731.2c0.157,0,0.307,0.066,0.413,0.182c0.106,0.116,0.158,0.271,0.145,0.428
							c-0.006,0.07-0.171,1.748-1.657,2.893c-1.229,0.947-2.958,1.235-5.144,0.86c-2.563-0.441-5.166-1.814-7.308-3.242h-3.375
							c4.114,4.885,12.109,7.143,17.429,6.17c2.854-0.521,4.711-1.917,5.228-3.93c0.376-1.472,0.197-2.747-0.53-3.793
							c-1.804-2.588-6.343-3.088-6.389-3.092c-0.21-0.021-0.389-0.161-0.465-0.358c-0.075-0.197-0.032-0.421,0.11-0.577
							c0.042-0.048,4.411-4.687,10.894-0.207c3.174,2.192,4.353,5.346,5.494,8.396c1.431,3.828,2.783,7.444,7.918,9.223
							c2.279,0.791,5.431,0.078,7.844-1.772c1.612-1.236,4.268-4.034,3.924-8.886c-0.328-4.628-3.73-7.053-6.544-7.723
							c-2.964-0.707-5.647,0.257-6.996,2.514c-1.077,1.803-1.001,3.646,0.211,5.056c1.201,1.397,3.202,2.006,4.647,1.414
							c1.632-0.666,2.093-1.908,1.991-2.77c-0.068-0.568-0.375-0.99-0.767-1.051c-1.128-0.166-1.567,1.339-1.572,1.354
							c-0.083,0.298-0.389,0.472-0.689,0.388c-0.299-0.084-0.472-0.394-0.389-0.691c0.243-0.858,1.146-2.416,2.819-2.157
							c0.91,0.14,1.582,0.935,1.71,2.025c0.147,1.253-0.465,3.035-2.68,3.938c-1.908,0.777-4.396,0.053-5.92-1.722
							c-1.547-1.799-1.663-4.116-0.324-6.359c1.584-2.652,4.808-3.843,8.218-3.029c3.183,0.758,7.03,3.5,7.401,8.733
							c0.278,3.926-1.312,7.518-4.36,9.854C760.52,179.219,758.165,180.037,756.008,180.037z M719.776,166.762
							c1.692,0.988,3.56,1.826,5.371,2.139c1.853,0.32,3.285,0.106,4.257-0.634c0.61-0.465,0.925-1.063,1.083-1.505H719.776z"
						/>
						<path
							fill="#AD8726"
							d="M755.513,175.189c-1.64,0-3.12-0.701-4.402-2.084c-2.823-3.047-3.59-5.393-4.207-7.277
							c-0.436-1.331-0.749-2.291-1.651-3.098c-0.173-0.155-0.232-0.4-0.149-0.617s0.291-0.36,0.522-0.36h6.085
							c0.309,0,0.561,0.251,0.561,0.56c0,0.31-0.252,0.561-0.561,0.561h-4.861c0.521,0.778,0.805,1.646,1.119,2.606
							c0.583,1.781,1.308,3.997,3.964,6.864c1.087,1.171,2.292,1.742,3.675,1.725c3.21-0.064,6.124-3.43,6.152-3.464
							c0.201-0.235,0.555-0.263,0.789-0.062c0.235,0.2,0.263,0.554,0.062,0.789c-0.131,0.154-3.272,3.781-6.979,3.856
							C755.591,175.189,755.551,175.189,755.513,175.189z"
						/>
						<path
							fill="#AD8726"
							d="M783.886,182.872c-0.309,0-0.561-0.251-0.561-0.561v-19.438h-19.438c-0.311,0-0.56-0.251-0.56-0.561
							c0-0.309,0.249-0.56,0.56-0.56h19.999c0.311,0,0.56,0.251,0.56,0.56v19.999C784.445,182.621,784.196,182.872,783.886,182.872z
							"
						/>
					</g>
					<g>
						<path
							fill="#AD8726"
							d="M605.344,291.019c-0.309,0-0.56-0.251-0.56-0.561v-12.75c0-0.101,0.027-0.2,0.079-0.287l5.678-9.515
							v-7.965h-1.628v2.659c0,0.229-0.141,0.437-0.354,0.521c-0.214,0.083-0.458,0.029-0.615-0.139l-3.008-3.22
							c-0.153-0.163-0.194-0.401-0.104-0.605c0.088-0.205,0.29-0.337,0.513-0.337h2.449v-25.759c0-0.146,0.058-0.287,0.159-0.392
							c0.033-0.033,1.837-1.893,3.604-4.483v-13.189c0-0.156,0.065-0.307,0.182-0.412c0.115-0.106,0.271-0.158,0.427-0.146
							c0.071,0.006,1.749,0.172,2.893,1.657c0.947,1.23,1.236,2.96,0.86,5.143c-0.441,2.563-1.813,5.167-3.242,7.308v3.377
							c4.885-4.115,7.142-12.104,6.17-17.43c-0.521-2.854-1.916-4.711-3.93-5.227c-1.471-0.375-2.745-0.198-3.79,0.528
							c-2.583,1.797-3.09,6.344-3.095,6.389c-0.021,0.211-0.16,0.391-0.358,0.466c-0.197,0.077-0.42,0.032-0.576-0.11
							c-0.048-0.044-4.687-4.41-0.209-10.893c2.193-3.174,5.347-4.354,8.396-5.494c3.828-1.432,7.444-2.784,9.223-7.919
							c0.79-2.278,0.077-5.432-1.771-7.844c-1.237-1.613-4.047-4.266-8.887-3.924c-4.628,0.328-7.053,3.73-7.723,6.544
							c-0.707,2.967,0.256,5.647,2.514,6.996c1.806,1.079,3.647,1.001,5.057-0.211c1.396-1.201,2.004-3.198,1.413-4.647
							c-0.665-1.632-1.908-2.098-2.77-1.991c-0.568,0.067-0.99,0.375-1.051,0.767c-0.173,1.129,1.34,1.567,1.354,1.571
							c0.298,0.084,0.472,0.394,0.388,0.69c-0.083,0.298-0.393,0.472-0.69,0.388c-0.859-0.241-2.416-1.142-2.158-2.818
							c0.14-0.91,0.935-1.58,2.026-1.71c1.257-0.14,3.035,0.468,3.938,2.681c0.777,1.905,0.054,4.395-1.72,5.919
							c-1.8,1.544-4.118,1.663-6.361,0.324c-2.651-1.585-3.841-4.811-3.029-8.218c0.758-3.183,3.5-7.03,8.733-7.4
							c3.919-0.288,7.517,1.31,9.854,4.358c2.102,2.741,2.864,6.231,1.942,8.893c-1.951,5.632-5.986,7.142-9.889,8.601
							c-3.021,1.13-5.874,2.197-7.867,5.082c-2.831,4.098-1.625,7.126-0.682,8.543c0.354-1.64,1.25-4.481,3.355-5.948
							c1.325-0.924,2.909-1.156,4.71-0.696c2.462,0.631,4.15,2.801,4.755,6.111c1.086,5.95-1.477,14.993-7.511,19.226
							c-0.171,0.12-0.396,0.135-0.579,0.039c-0.186-0.097-0.302-0.288-0.302-0.497v-2.933c-1.186,1.581-2.245,2.736-2.644,3.157
							v25.534h2.188c0.31,0,0.56,0.25,0.56,0.56v8.68c0,0.101-0.027,0.2-0.079,0.287l-5.678,9.515v12.596
							C605.904,290.768,605.653,291.019,605.344,291.019z M606.634,259.941l1.159,1.24v-1.24H606.634z M612.676,215.711v10.71
							c0.988-1.692,1.827-3.559,2.139-5.371c0.319-1.852,0.105-3.283-0.634-4.255C613.716,216.184,613.118,215.869,612.676,215.711z
							"
						/>
						<path
							fill="#AD8726"
							d="M608.228,201.133c-0.067,0-0.135-0.013-0.2-0.037c-0.217-0.083-0.36-0.291-0.36-0.523v-6.084
							c0-0.31,0.251-0.56,0.561-0.56c0.309,0,0.56,0.25,0.56,0.56v4.861c0.778-0.521,1.647-0.805,2.606-1.118
							c1.78-0.583,3.997-1.309,6.864-3.965c1.172-1.087,1.752-2.323,1.725-3.675c-0.064-3.21-3.43-6.123-3.464-6.152
							c-0.235-0.2-0.263-0.554-0.062-0.789c0.2-0.235,0.555-0.263,0.789-0.062c0.154,0.132,3.781,3.273,3.856,6.98
							c0.034,1.686-0.667,3.206-2.083,4.519c-3.047,2.823-5.394,3.591-7.278,4.207c-1.329,0.436-2.29,0.75-3.097,1.651
							C608.536,201.067,608.384,201.133,608.228,201.133z"
						/>
						<path
							fill="#AD8726"
							d="M612.116,188.589c-0.31,0-0.56-0.251-0.56-0.561v-21.827c0-0.31,0.25-0.56,0.56-0.56h21.827
							c0.31,0,0.56,0.25,0.56,0.56s-0.25,0.561-0.56,0.561h-21.268v21.267C612.676,188.338,612.426,188.589,612.116,188.589z"
						/>
						<path
							fill="#AD8726"
							d="M636.104,180.037c-2.156,0-4.511-0.818-6.479-2.327c-3.048-2.337-4.638-5.929-4.359-9.854
							c0.371-5.233,4.219-7.976,7.401-8.733c3.409-0.813,6.633,0.377,8.217,3.029c1.34,2.243,1.223,4.561-0.323,6.359
							c-1.524,1.774-4.013,2.5-5.92,1.722c-2.214-0.903-2.827-2.686-2.68-3.938c0.129-1.091,0.8-1.886,1.709-2.025
							c1.683-0.26,2.577,1.299,2.819,2.157c0.083,0.297-0.089,0.604-0.386,0.689c-0.294,0.086-0.605-0.088-0.692-0.384
							c-0.018-0.063-0.448-1.525-1.57-1.356c-0.393,0.061-0.7,0.482-0.768,1.051c-0.102,0.861,0.358,2.104,1.99,2.77
							c1.449,0.589,3.447-0.018,4.647-1.414c1.212-1.41,1.289-3.253,0.212-5.056c-1.35-2.257-4.029-3.221-6.996-2.514
							c-2.814,0.67-6.217,3.095-6.545,7.723c-0.343,4.852,2.312,7.649,3.925,8.886c2.413,1.85,5.563,2.562,7.844,1.772
							c5.134-1.778,6.486-5.395,7.918-9.223c1.142-3.05,2.321-6.203,5.495-8.396c6.482-4.478,10.849,0.161,10.892,0.208
							c0.143,0.156,0.186,0.38,0.11,0.577c-0.074,0.197-0.255,0.336-0.465,0.357c-0.046,0.005-4.593,0.512-6.39,3.096
							c-0.727,1.045-0.904,2.32-0.528,3.79c0.516,2.013,2.372,3.408,5.228,3.93c5.324,0.971,13.314-1.285,17.429-6.17h-3.375
							c-2.142,1.428-4.745,2.801-7.309,3.242c-2.185,0.375-3.914,0.087-5.143-0.86c-1.486-1.145-1.651-2.822-1.658-2.893
							c-0.014-0.157,0.039-0.312,0.146-0.428c0.105-0.115,0.256-0.182,0.413-0.182h13.191c2.59-1.768,4.447-3.571,4.479-3.604
							c0.105-0.103,0.246-0.16,0.393-0.16h21.953c0.309,0,0.56,0.251,0.56,0.561s-0.251,0.56-0.56,0.56h-21.728
							c-0.422,0.399-1.576,1.458-3.158,2.644h2.933c0.209,0,0.4,0.116,0.497,0.302c0.096,0.185,0.081,0.408-0.039,0.579
							c-4.231,6.034-13.268,8.6-19.226,7.511c-3.31-0.604-5.48-2.292-6.111-4.754c-0.461-1.8-0.227-3.385,0.696-4.71
							c1.467-2.106,4.309-3.002,5.948-3.356c-1.416-0.943-4.445-2.148-8.543,0.683c-2.884,1.993-3.951,4.846-5.081,7.867
							c-1.46,3.902-2.97,7.938-8.602,9.889C637.767,179.911,636.951,180.037,636.104,180.037z M661.625,166.762
							c0.159,0.441,0.474,1.04,1.084,1.505c0.972,0.74,2.404,0.954,4.256,0.634c1.814-0.313,3.682-1.15,5.373-2.139H661.625z"
						/>
						<path
							fill="#AD8726"
							d="M636.601,175.189c-0.039,0-0.078,0-0.117-0.001c-3.707-0.075-6.849-3.702-6.98-3.856
							c-0.201-0.235-0.173-0.588,0.062-0.789c0.234-0.2,0.588-0.174,0.789,0.061c0.029,0.034,2.953,3.402,6.156,3.465
							c1.338,0.023,2.585-0.553,3.671-1.725c2.656-2.867,3.382-5.083,3.965-6.864c0.313-0.96,0.598-1.828,1.118-2.606h-4.86
							c-0.31,0-0.56-0.251-0.56-0.561c0-0.309,0.25-0.56,0.56-0.56h6.084c0.232,0,0.44,0.144,0.523,0.36s0.022,0.462-0.149,0.617
							c-0.902,0.807-1.217,1.767-1.652,3.098c-0.616,1.885-1.384,4.23-4.207,7.277C639.72,174.488,638.239,175.189,636.601,175.189z
							"
						/>
						<path
							fill="#AD8726"
							d="M608.228,182.872c-0.31,0-0.561-0.251-0.561-0.561v-19.999c0-0.309,0.251-0.56,0.561-0.56h19.999
							c0.31,0,0.561,0.251,0.561,0.56c0,0.31-0.251,0.561-0.561,0.561h-19.439v19.438
							C608.787,182.621,608.536,182.872,608.228,182.872z"
						/>
					</g>
				</g>
				<g>
					<g>
						<path
							fill="#AD8726"
							d="M614.647,401.597c-0.291,0-0.583-0.01-0.878-0.03c-5.233-0.371-7.976-4.219-8.733-7.402
							c-0.812-3.406,0.378-6.632,3.029-8.217c2.245-1.34,4.563-1.22,6.361,0.325c1.773,1.524,2.497,4.013,1.72,5.918
							c-0.902,2.215-2.684,2.834-3.938,2.679c-1.092-0.128-1.887-0.799-2.026-1.708c-0.258-1.677,1.299-2.576,2.158-2.818
							c0.296-0.084,0.604,0.09,0.689,0.387c0.084,0.296-0.088,0.605-0.385,0.69c-0.062,0.019-1.527,0.456-1.356,1.57
							c0.061,0.392,0.482,0.7,1.051,0.768c0.859,0.099,2.104-0.358,2.77-1.991c0.591-1.447-0.017-3.444-1.412-4.645
							c-1.411-1.214-3.254-1.291-5.058-0.212c-2.258,1.348-3.221,4.027-2.514,6.995c0.67,2.813,3.095,6.216,7.723,6.543
							c4.857,0.349,7.65-2.311,8.887-3.924c1.849-2.413,2.562-5.564,1.771-7.843c-1.778-5.135-5.395-6.487-9.223-7.919
							c-3.05-1.142-6.203-2.321-8.396-5.494c-4.479-6.482,0.16-10.849,0.208-10.893c0.156-0.143,0.379-0.183,0.576-0.11
							c0.198,0.076,0.337,0.256,0.358,0.466c0.005,0.046,0.512,4.592,3.095,6.388c1.046,0.728,2.322,0.904,3.79,0.528
							c2.013-0.516,3.409-2.371,3.93-5.226c0.972-5.324-1.285-13.315-6.17-17.431v3.377c1.429,2.143,2.801,4.745,3.242,7.309
							c0.376,2.182,0.087,3.912-0.86,5.142c-1.144,1.487-2.821,1.651-2.893,1.658c-0.155,0.01-0.312-0.04-0.427-0.145
							c-0.116-0.106-0.182-0.256-0.182-0.413v-13.192c-1.768-2.59-3.571-4.447-3.604-4.481c-0.102-0.104-0.159-0.245-0.159-0.392
							v-25.758h-2.449c-0.223,0-0.425-0.132-0.513-0.337c-0.09-0.204-0.049-0.442,0.104-0.605l3.008-3.22
							c0.157-0.167,0.401-0.222,0.615-0.138s0.354,0.291,0.354,0.521v2.659h1.628v-7.965l-5.678-9.518
							c-0.052-0.087-0.079-0.187-0.079-0.287v-12.748c0-0.31,0.251-0.56,0.56-0.56c0.31,0,0.561,0.25,0.561,0.56v12.594l5.678,9.519
							c0.052,0.086,0.079,0.186,0.079,0.286v8.68c0,0.31-0.25,0.56-0.56,0.56h-2.188v25.532c0.398,0.423,1.458,1.577,2.644,3.159
							v-2.934c0-0.209,0.116-0.4,0.302-0.496c0.184-0.097,0.408-0.084,0.579,0.038c6.034,4.233,8.597,13.276,7.51,19.228
							c-0.604,3.31-2.292,5.479-4.754,6.108c-1.801,0.461-3.384,0.227-4.71-0.695c-2.105-1.467-3.001-4.308-3.355-5.947
							c-0.943,1.416-2.149,4.444,0.682,8.543c1.993,2.884,4.847,3.951,7.867,5.081c3.902,1.46,7.938,2.97,9.889,8.602
							c0.922,2.661,0.159,6.15-1.941,8.892C621.463,400.026,618.227,401.597,614.647,401.597z M612.676,354.494v10.712
							c0.441-0.159,1.04-0.473,1.505-1.084c0.739-0.972,0.953-2.403,0.634-4.255C614.503,358.053,613.664,356.187,612.676,354.494z
							 M606.634,320.976h1.159v-1.24L606.634,320.976z"
						/>
						<path
							fill="#AD8726"
							d="M616.883,397.462c-0.158,0-0.315-0.067-0.426-0.196c-0.201-0.235-0.174-0.588,0.062-0.789
							c0.033-0.03,3.402-2.953,3.465-6.155c0.025-1.35-0.555-2.585-1.726-3.669c-2.867-2.659-5.084-3.384-6.864-3.967
							c-0.959-0.314-1.828-0.599-2.606-1.119v4.862c0,0.31-0.251,0.56-0.56,0.56c-0.31,0-0.561-0.25-0.561-0.56v-6.085
							c0-0.231,0.144-0.44,0.36-0.522c0.216-0.083,0.462-0.024,0.617,0.149c0.807,0.901,1.768,1.215,3.097,1.65
							c1.885,0.617,4.231,1.384,7.278,4.21c1.416,1.312,2.117,2.831,2.083,4.517c-0.075,3.707-3.702,6.848-3.856,6.979
							C617.141,397.418,617.012,397.462,616.883,397.462z"
						/>
						<path
							fill="#AD8726"
							d="M633.943,415.275h-21.827c-0.31,0-0.56-0.251-0.56-0.561v-21.827c0-0.31,0.25-0.56,0.56-0.56
							s0.56,0.25,0.56,0.56v21.268h21.268c0.31,0,0.56,0.25,0.56,0.56S634.253,415.275,633.943,415.275z"
						/>
						<path
							fill="#AD8726"
							d="M634.764,422.047c-0.682,0-1.386-0.082-2.097-0.252c-3.183-0.758-7.03-3.5-7.401-8.733
							c-0.278-3.927,1.312-7.518,4.361-9.856c2.74-2.1,6.229-2.858,8.89-1.939c5.632,1.951,7.142,5.986,8.602,9.889
							c1.13,3.021,2.197,5.874,5.081,7.866c4.098,2.832,7.126,1.625,8.544,0.683c-1.64-0.354-4.481-1.249-5.949-3.356
							c-0.923-1.324-1.157-2.91-0.696-4.71c0.631-2.461,2.801-4.149,6.11-4.753c5.95-1.084,14.994,1.476,19.227,7.51
							c0.12,0.171,0.135,0.395,0.039,0.579c-0.097,0.187-0.288,0.303-0.497,0.303h-2.934c1.582,1.186,2.737,2.245,3.159,2.644
							h21.728c0.309,0,0.56,0.251,0.56,0.561s-0.251,0.56-0.56,0.56h-21.953c-0.146,0-0.287-0.058-0.392-0.159
							c-0.033-0.033-1.894-1.838-4.483-3.604h-13.188c-0.157,0-0.308-0.066-0.413-0.182c-0.106-0.116-0.159-0.271-0.146-0.428
							c0.007-0.071,0.172-1.749,1.658-2.893c1.23-0.946,2.959-1.234,5.143-0.861c2.563,0.442,5.166,1.814,7.308,3.243h3.376
							c-4.114-4.886-12.107-7.139-17.43-6.171c-2.854,0.521-4.711,1.916-5.227,3.93c-0.376,1.47-0.198,2.745,0.528,3.791
							c1.797,2.583,6.344,3.089,6.39,3.095c0.21,0.021,0.391,0.161,0.465,0.357c0.075,0.198,0.032,0.421-0.109,0.577
							c-0.044,0.048-4.41,4.688-10.893,0.207c-3.174-2.191-4.354-5.346-5.495-8.395c-1.432-3.829-2.784-7.444-7.918-9.223
							c-2.278-0.791-5.43-0.078-7.843,1.771c-1.613,1.236-4.269,4.035-3.926,8.888c0.328,4.628,3.73,7.053,6.545,7.724
							c2.967,0.708,5.646-0.256,6.996-2.515c1.077-1.802,1-3.646-0.212-5.056c-1.2-1.397-3.197-2.005-4.647-1.415
							c-1.632,0.666-2.092,1.908-1.99,2.771c0.066,0.568,0.375,0.99,0.768,1.051c1.124,0.181,1.566-1.339,1.57-1.355
							c0.084-0.296,0.394-0.469,0.69-0.387c0.298,0.084,0.472,0.393,0.388,0.691c-0.242,0.858-1.141,2.417-2.819,2.157
							c-0.909-0.14-1.58-0.937-1.709-2.026c-0.147-1.252,0.466-3.034,2.68-3.938c1.904-0.78,4.395-0.054,5.92,1.722
							c1.546,1.8,1.664,4.118,0.323,6.361C639.631,420.864,637.35,422.047,634.764,422.047z M661.621,414.155h10.714
							c-1.692-0.989-3.558-1.826-5.37-2.139c-1.862-0.322-3.299-0.104-4.27,0.645C662.086,413.129,661.776,413.72,661.621,414.155z"
						/>
						<path
							fill="#AD8726"
							d="M646.487,419.164h-6.084c-0.31,0-0.56-0.251-0.56-0.56c0-0.31,0.25-0.561,0.56-0.561h4.86
							c-0.521-0.778-0.805-1.646-1.118-2.607c-0.583-1.78-1.309-3.997-3.965-6.863c-1.086-1.17-2.333-1.719-3.671-1.725
							c-3.203,0.063-6.127,3.431-6.156,3.465c-0.201,0.234-0.555,0.26-0.789,0.061c-0.234-0.201-0.263-0.555-0.062-0.789
							c0.132-0.154,3.273-3.781,6.98-3.856c1.678-0.005,3.206,0.667,4.519,2.083c2.823,3.046,3.591,5.392,4.207,7.277
							c0.436,1.33,0.75,2.291,1.652,3.098c0.172,0.155,0.232,0.4,0.149,0.617S646.72,419.164,646.487,419.164z"
						/>
						<path
							fill="#AD8726"
							d="M628.227,419.164h-19.999c-0.31,0-0.561-0.251-0.561-0.56v-19.999c0-0.31,0.251-0.56,0.561-0.56
							c0.309,0,0.56,0.25,0.56,0.56v19.438h19.439c0.31,0,0.561,0.251,0.561,0.561C628.787,418.913,628.536,419.164,628.227,419.164
							z"
						/>
					</g>
					<g>
						<path
							fill="#AD8726"
							d="M777.466,401.597c-3.58,0-6.814-1.57-8.977-4.391c-2.102-2.741-2.863-6.23-1.942-8.892
							c1.952-5.632,5.986-7.142,9.89-8.602c3.021-1.13,5.874-2.197,7.866-5.081c2.849-4.122,1.632-7.143,0.684-8.552
							c-0.353,1.639-1.248,4.487-3.356,5.956c-1.325,0.922-2.909,1.157-4.711,0.695c-2.461-0.63-4.149-2.799-4.753-6.108
							c-1.087-5.951,1.475-14.994,7.509-19.228c0.171-0.122,0.396-0.135,0.579-0.038c0.187,0.096,0.303,0.287,0.303,0.496v2.934
							c1.185-1.582,2.245-2.736,2.644-3.159v-25.532h-2.189c-0.308,0-0.56-0.25-0.56-0.56v-8.68c0-0.101,0.028-0.2,0.08-0.286
							l5.677-9.519v-12.594c0-0.31,0.252-0.56,0.561-0.56c0.311,0,0.56,0.25,0.56,0.56v12.748c0,0.101-0.026,0.2-0.079,0.287
							l-5.678,9.518v7.965h1.629v-2.659c0-0.229,0.141-0.437,0.354-0.521c0.215-0.084,0.457-0.029,0.615,0.138l3.007,3.22
							c0.153,0.163,0.195,0.401,0.105,0.605c-0.089,0.205-0.291,0.337-0.514,0.337h-2.448v25.758c0,0.146-0.058,0.286-0.159,0.392
							c-0.033,0.034-1.838,1.894-3.604,4.484v13.189c0,0.157-0.066,0.307-0.182,0.413c-0.116,0.104-0.271,0.154-0.427,0.145
							c-0.072-0.007-1.75-0.171-2.894-1.658c-0.946-1.229-1.236-2.96-0.86-5.142c0.442-2.563,1.813-5.166,3.242-7.309v-3.377
							c-4.885,4.115-7.142,12.106-6.17,17.431c0.522,2.854,1.918,4.71,3.93,5.226c1.47,0.377,2.747,0.198,3.793-0.529
							c2.588-1.803,3.088-6.341,3.092-6.387c0.021-0.21,0.161-0.39,0.357-0.466c0.197-0.073,0.421-0.032,0.578,0.11
							c0.048,0.044,4.686,4.41,0.208,10.893c-2.192,3.173-5.347,4.353-8.396,5.494c-3.829,1.432-7.444,2.784-9.224,7.919
							c-0.79,2.278-0.077,5.43,1.772,7.843c1.237,1.613,4.031,4.277,8.886,3.924c4.629-0.327,7.053-3.729,7.724-6.543
							c0.706-2.968-0.256-5.647-2.515-6.995c-1.803-1.079-3.647-1.002-5.057,0.212c-1.396,1.2-2.004,3.197-1.412,4.644
							c0.665,1.634,1.912,2.091,2.77,1.992c0.568-0.067,0.99-0.376,1.05-0.768c0.174-1.126-1.339-1.564-1.354-1.569
							c-0.297-0.084-0.471-0.393-0.387-0.69c0.083-0.297,0.392-0.47,0.69-0.388c0.858,0.242,2.415,1.142,2.157,2.818
							c-0.139,0.909-0.934,1.58-2.025,1.708c-1.251,0.155-3.036-0.464-3.938-2.68c-0.778-1.904-0.055-4.393,1.72-5.917
							c1.798-1.545,4.116-1.663,6.36-0.325c2.652,1.585,3.841,4.811,3.029,8.217c-0.758,3.184-3.499,7.031-8.733,7.402
							C778.05,401.587,777.757,401.597,777.466,401.597z M779.437,354.496c-0.988,1.692-1.826,3.559-2.139,5.371
							c-0.32,1.861-0.104,3.298,0.645,4.269c0.468,0.609,1.059,0.919,1.494,1.074V354.496z M784.32,320.976h1.159l-1.159-1.24
							V320.976z"
						/>
						<path
							fill="#AD8726"
							d="M775.23,397.462c-0.13,0-0.259-0.044-0.363-0.135c-0.154-0.132-3.782-3.272-3.856-6.979
							c-0.035-1.686,0.667-3.205,2.082-4.519c3.047-2.824,5.395-3.591,7.278-4.208c1.33-0.436,2.292-0.749,3.098-1.65
							c0.155-0.174,0.401-0.232,0.616-0.149c0.218,0.082,0.36,0.291,0.36,0.522v6.085c0,0.31-0.249,0.56-0.56,0.56
							c-0.309,0-0.561-0.25-0.561-0.56v-4.862c-0.777,0.521-1.646,0.805-2.605,1.119c-1.781,0.583-3.998,1.308-6.865,3.965
							c-1.172,1.086-1.752,2.323-1.724,3.675c0.063,3.21,3.43,6.121,3.464,6.151c0.234,0.2,0.263,0.554,0.062,0.789
							C775.545,397.395,775.389,397.462,775.23,397.462z"
						/>
						<path
							fill="#AD8726"
							d="M779.996,415.275h-21.827c-0.309,0-0.56-0.251-0.56-0.561s0.251-0.56,0.56-0.56h21.268v-21.268
							c0-0.31,0.251-0.56,0.56-0.56c0.311,0,0.561,0.25,0.561,0.56v21.827C780.557,415.024,780.307,415.275,779.996,415.275z"
						/>
						<path
							fill="#AD8726"
							d="M757.349,422.047c-2.585,0-4.866-1.183-6.12-3.28c-1.341-2.243-1.223-4.562,0.324-6.361
							c1.524-1.775,4.015-2.5,5.919-1.722c2.216,0.904,2.828,2.687,2.681,3.938c-0.128,1.09-0.8,1.887-1.71,2.026
							c-1.669,0.26-2.576-1.298-2.819-2.157c-0.083-0.298,0.09-0.605,0.388-0.689c0.294-0.086,0.604,0.087,0.69,0.384
							c0.018,0.063,0.455,1.525,1.571,1.356c0.393-0.061,0.7-0.482,0.768-1.051c0.102-0.862-0.359-2.104-1.991-2.771
							c-1.447-0.59-3.446,0.018-4.647,1.415c-1.212,1.41-1.288,3.254-0.211,5.056c1.349,2.259,4.028,3.223,6.996,2.515
							c2.813-0.671,6.216-3.096,6.544-7.724c0.344-4.853-2.312-7.651-3.926-8.888c-2.413-1.85-5.564-2.563-7.842-1.771
							c-5.134,1.778-6.487,5.394-7.918,9.223c-1.142,3.049-2.32,6.203-5.494,8.395c-6.483,4.481-10.85-0.159-10.894-0.207
							c-0.142-0.156-0.186-0.379-0.11-0.577c0.076-0.196,0.255-0.336,0.465-0.357c0.046-0.006,4.594-0.512,6.39-3.095
							c0.727-1.046,0.905-2.321,0.529-3.791c-0.517-2.014-2.372-3.409-5.227-3.93c-5.323-0.966-13.315,1.286-17.43,6.171h3.376
							c2.142-1.429,4.744-2.801,7.307-3.243c2.183-0.374,3.913-0.084,5.144,0.861c1.486,1.144,1.651,2.821,1.657,2.893
							c0.014,0.156-0.038,0.312-0.145,0.428c-0.106,0.115-0.256,0.182-0.413,0.182h-13.188c-2.591,1.767-4.45,3.571-4.483,3.604
							c-0.104,0.102-0.245,0.159-0.392,0.159h-21.952c-0.311,0-0.561-0.25-0.561-0.56s0.25-0.561,0.561-0.561h21.728
							c0.421-0.398,1.575-1.458,3.158-2.644h-2.934c-0.21,0-0.4-0.116-0.497-0.303c-0.097-0.185-0.082-0.408,0.038-0.579
							c4.233-6.035,13.276-8.6,19.228-7.51c3.31,0.604,5.479,2.292,6.11,4.753c0.46,1.8,0.227,3.386-0.697,4.71
							c-1.466,2.107-4.309,3.002-5.948,3.356c1.418,0.943,4.447,2.149,8.544-0.683c2.884-1.992,3.951-4.846,5.081-7.866
							c1.46-3.902,2.969-7.938,8.602-9.889c2.661-0.919,6.149-0.16,8.891,1.939c3.049,2.339,4.639,5.93,4.36,9.856
							c-0.371,5.233-4.219,7.976-7.401,8.733C758.734,421.965,758.031,422.047,757.349,422.047z M719.777,414.155h10.71
							c-0.158-0.442-0.473-1.04-1.083-1.505c-0.973-0.739-2.403-0.955-4.257-0.634C723.336,412.329,721.471,413.166,719.777,414.155
							z"
						/>
						<path
							fill="#AD8726"
							d="M751.71,419.164h-6.085c-0.231,0-0.439-0.144-0.522-0.36s-0.023-0.462,0.149-0.617
							c0.902-0.807,1.216-1.768,1.651-3.098c0.616-1.886,1.384-4.231,4.207-7.277c1.313-1.417,2.849-2.089,4.52-2.083
							c3.707,0.075,6.849,3.702,6.979,3.856c0.201,0.234,0.174,0.588-0.062,0.789c-0.232,0.199-0.586,0.174-0.789-0.061
							c-0.028-0.034-2.953-3.402-6.155-3.465c-1.354-0.003-2.587,0.555-3.672,1.725c-2.656,2.866-3.381,5.083-3.964,6.863
							c-0.314,0.961-0.599,1.829-1.119,2.607h4.861c0.309,0,0.561,0.251,0.561,0.561
							C752.271,418.913,752.019,419.164,751.71,419.164z"
						/>
						<path
							fill="#AD8726"
							d="M783.886,419.164h-19.999c-0.311,0-0.56-0.251-0.56-0.56c0-0.31,0.249-0.561,0.56-0.561h19.438
							v-19.438c0-0.31,0.252-0.56,0.561-0.56c0.311,0,0.56,0.25,0.56,0.56v19.999C784.445,418.913,784.196,419.164,783.886,419.164z
							"
						/>
					</g>
				</g>
			</g>
			<path
				fill="#AD8726"
				d="M696.054,379.545c-0.076,0-0.153-0.016-0.226-0.048l-38.079-16.884c-0.202-0.09-0.333-0.29-0.333-0.512
				V218.817c0-0.222,0.131-0.422,0.333-0.512l38.079-16.886c0.144-0.064,0.31-0.064,0.453,0l38.082,16.886
				c0.203,0.09,0.334,0.29,0.334,0.512v143.284c0,0.222-0.131,0.422-0.334,0.512l-38.082,16.884
				C696.21,379.529,696.132,379.545,696.054,379.545z M658.536,361.737l37.518,16.636l37.523-16.636V219.182l-37.523-16.638
				l-37.518,16.638V361.737z"
			/>
			<g>
				<path
					fill="#AD8726"
					d="M696.057,409.787c-0.078,0-0.155-0.017-0.228-0.048l-22.183-9.837c-0.202-0.09-0.333-0.291-0.333-0.512
					v-88.029c0-0.31,0.251-0.56,0.56-0.56c0.31,0,0.561,0.25,0.561,0.56v87.665l21.623,9.588l21.623-9.588v-87.664
					c0-0.309,0.25-0.56,0.561-0.56c0.309,0,0.56,0.251,0.56,0.56v88.028c0,0.222-0.131,0.422-0.333,0.512l-22.185,9.837
					C696.211,409.771,696.133,409.787,696.057,409.787z"
				/>
				<path
					fill="#AD8726"
					d="M718.24,270.116c-0.311,0-0.561-0.25-0.561-0.56v-87.666l-21.623-9.588l-21.623,9.588v87.661
					c0,0.31-0.251,0.56-0.561,0.56c-0.309,0-0.56-0.25-0.56-0.56v-88.025c0-0.222,0.131-0.422,0.333-0.512l22.183-9.837
					c0.145-0.064,0.31-0.064,0.453,0l22.185,9.837c0.202,0.09,0.333,0.29,0.333,0.512v88.03
					C718.8,269.866,718.549,270.116,718.24,270.116z"
				/>
			</g>
			<path
				fill="#AD8726"
				d="M696.054,357.515c-0.085,0-0.172-0.02-0.251-0.06l-51.329-25.837c-0.188-0.095-0.308-0.289-0.308-0.5
				V249.8c0-0.211,0.119-0.405,0.308-0.5l51.329-25.838c0.157-0.079,0.346-0.079,0.503,0L747.64,249.3
				c0.188,0.095,0.309,0.289,0.309,0.5v81.318c0,0.211-0.121,0.405-0.309,0.5l-51.334,25.837
				C696.227,357.495,696.142,357.515,696.054,357.515z M645.285,330.774l50.769,25.554l50.774-25.554v-80.629l-50.774-25.557
				l-50.769,25.557V330.774z"
			/>
			<path
				fill="#AD8726"
				d="M696.057,321.268c-16.989,0-30.81-13.82-30.81-30.809c0-16.989,13.82-30.81,30.81-30.81
				c16.988,0,30.81,13.82,30.81,30.81C726.866,307.447,713.045,321.268,696.057,321.268z M696.057,260.769
				c-16.371,0-29.69,13.319-29.69,29.69s13.319,29.689,29.69,29.689c16.37,0,29.69-13.318,29.69-29.689
				S712.427,260.769,696.057,260.769z"
			/>
		</g>
	</g>
</svg>