<svg
	version="1.1"
	id="iota"
	xmlns="http://www.w3.org/2000/svg"
	viewBox="142 548 202 282"
>
	<g>
		<path
			fill="#030E4E"
			d="M343.625,558.123c0-5.565-4.513-10.077-10.078-10.077l0,0H152.122l0,0l0,0
			c-5.566,0-10.079,4.512-10.079,10.077l0,0v262.058c0,5.566,4.513,10.079,10.079,10.079c0.007,0,0.015,0,0.022,0h181.379
			c0.008,0,0.016,0,0.022,0c5.566,0,10.079-4.513,10.079-10.079V558.123L343.625,558.123z"
		/>
		<g>
			<g>
				<path
					fill="#AD8726"
					d="M157.61,682.827h-1.119v-57.923c-1.703,0.734-3.145,1.213-3.828,1.426v56.497h-1.12v-57.336l0.406-0.116
					c0.052-0.015,2.082-0.606,4.542-1.708v-17.632c0-3.132-0.791-4.415-1.453-4.938c-0.689-0.545-1.399-0.396-1.406-0.396
					l-0.688,0.163v-8.536l0.549-0.011c0.093-0.002,6.152-0.168,11.77-2.895v-5.139c-4.145-0.516-8.585-0.617-13.079,0.024
					l-0.927,0.133l0.321-0.88c0.132-0.36,1.2-3.146,3.006-4.114c-0.891-1.004-2.487-3.053-3.025-5.365l-0.16-0.687h13.428v-7h4.423
					c-2.948-2.642-6.725-4.068-10.379-3.758l-0.606,0.051v-5.123h85.608l-0.592,0.874c-2.017,2.977-10.609,4.661-14.01,5.222
					c1.218,1.249,1.6,3.086,1.619,3.186l0.134,0.669h-59.164c0.39,0.477,0.757,0.978,1.098,1.501
					c2.354,3.605,3.05,7.577,2.044,11.257c5.854,0.382,13.188,0.18,17.698-2.439l1.073-0.623l-0.243,1.217
					c-0.047,0.232-1.121,5.408-4.625,6.468c0.211,0.998,0.497,3.186-0.136,6.139l-0.159,0.744l-0.662-0.373
					c-0.106-0.059-6.588-3.642-15.756-5.849c-1.646,1.995-3.686,3.484-5.809,4.597v24.842c0,4.354-4.771,7.518-8.771,9.404V682.827z
					 M154.063,599.57c0.454,0.03,1.071,0.174,1.67,0.647c1.247,0.985,1.878,2.943,1.878,5.817v17.107
					c3.625-1.776,7.651-4.558,7.651-8.148v-24.292c-4.721,2.171-9.573,2.619-11.199,2.711V599.57z M172.929,584.588
					c7.403,1.837,13.004,4.518,14.883,5.48c0.554-3.287-0.116-5.394-0.123-5.415l-0.206-0.628l0.652-0.102
					c2.234-0.344,3.434-2.946,3.96-4.518c-4.872,2.245-11.885,2.373-17.458,1.986c-0.212,0.567-0.467,1.126-0.764,1.672
					C173.583,583.599,173.267,584.106,172.929,584.588z M166.382,584.435v4.405c1.659-0.924,3.238-2.092,4.567-3.571
					C169.482,584.946,167.957,584.662,166.382,584.435z M166.382,583.306c1.86,0.265,3.653,0.607,5.363,0.999
					c0.418-0.553,0.801-1.144,1.144-1.774c0.219-0.402,0.412-0.813,0.58-1.227c-3.262-0.277-5.894-0.701-7.087-0.913V583.306z
					 M158.622,582.741c2.271,0,4.493,0.153,6.64,0.417v-4.122l0.668,0.133c0.078,0.015,3.445,0.663,7.928,1.021
					c1.005-3.433,0.377-7.168-1.839-10.563c-0.494-0.757-1.044-1.463-1.639-2.113h-4.435v6.999h-13.1
					c0.879,2.591,3.104,4.752,3.129,4.776l0.837,0.805l-1.151,0.154c-1.107,0.147-2.093,1.681-2.651,2.82
					C154.898,582.844,156.775,582.741,158.622,582.741z M170.861,566.395h58.735c-0.277-0.799-0.881-2.086-1.997-2.564l-1.864-0.8
					l2.01-0.27c3.057-0.412,10.757-1.872,13.725-4.076h-82.087v2.801C163.53,561.343,167.736,563.178,170.861,566.395z"
				/>
				<path
					fill="#AD8726"
					d="M334.125,682.827h-1.12V626.33c-0.684-0.213-2.125-0.691-3.828-1.426v57.923h-1.119v-58.429
					c-4-1.887-8.771-5.05-8.771-9.404v-24.842c-2.123-1.112-4.163-2.602-5.809-4.597c-9.17,2.206-15.649,5.79-15.756,5.849
					l-0.662,0.372l-0.159-0.743c-0.633-2.953-0.347-5.141-0.136-6.139c-3.504-1.06-4.578-6.235-4.625-6.468l-0.243-1.217
					l1.073,0.623c4.512,2.621,11.848,2.821,17.698,2.44c-1.006-3.68-0.311-7.651,2.044-11.258c0.341-0.523,0.708-1.024,1.098-1.501
					h-59.164l0.134-0.669c0.02-0.1,0.401-1.937,1.619-3.186c-3.4-0.561-11.993-2.245-14.01-5.222l-0.592-0.874h85.608v5.123
					l-0.606-0.051c-3.657-0.304-7.43,1.116-10.379,3.758h4.423v7h13.428l-0.16,0.687c-0.538,2.313-2.135,4.361-3.025,5.365
					c1.806,0.968,2.874,3.754,3.006,4.114l0.321,0.88l-0.927-0.133c-4.493-0.643-8.936-0.541-13.079-0.024v5.143
					c5.617,2.727,11.677,2.889,11.77,2.891l0.549,0.011v8.536l-0.688-0.163c-0.023-0.004-0.735-0.147-1.426,0.411
					c-0.654,0.53-1.434,1.814-1.434,4.924v17.633c2.46,1.101,4.49,1.692,4.542,1.707l0.406,0.116V682.827z M320.406,590.702v24.292
					c0,3.594,4.026,6.375,7.651,8.15v-17.109c0-2.874,0.631-4.832,1.877-5.817c0.6-0.474,1.217-0.617,1.671-0.647v-6.157
					C329.979,593.321,325.127,592.873,320.406,590.702z M293.575,579.407c0.529,1.572,1.729,4.173,3.958,4.517l0.652,0.101
					l-0.206,0.629c-0.007,0.021-0.677,2.129-0.123,5.415c1.879-0.963,7.48-3.644,14.883-5.48c-0.338-0.481-0.654-0.989-0.944-1.523
					c-0.297-0.546-0.552-1.104-0.765-1.672C305.458,581.779,298.449,581.651,293.575,579.407z M314.718,585.271
					c1.329,1.479,2.91,2.648,4.568,3.572v-4.408C317.711,584.662,316.184,584.946,314.718,585.271z M312.199,581.304
					c0.168,0.414,0.361,0.824,0.58,1.227c0.343,0.631,0.726,1.222,1.144,1.775c1.709-0.393,3.504-0.735,5.363-0.999v-2.916
					C318.093,580.603,315.46,581.026,312.199,581.304z M320.406,579.036v4.122c3.895-0.478,8.04-0.594,12.253-0.089
					c-0.559-1.14-1.544-2.673-2.651-2.82l-1.15-0.154l0.836-0.805c0.024-0.023,2.251-2.19,3.129-4.776h-13.1v-6.999h-4.435
					c-0.596,0.65-1.145,1.356-1.639,2.113c-2.216,3.395-2.844,7.13-1.838,10.563c4.483-0.358,7.848-1.007,7.927-1.021
					L320.406,579.036z M256.071,566.395h58.735c3.125-3.219,7.338-5.061,11.479-4.909v-2.801h-82.087
					c2.968,2.204,10.668,3.664,13.725,4.076l2.009,0.27l-1.863,0.8C256.952,564.309,256.349,565.596,256.071,566.395z"
				/>
				<path
					fill="#AD8726"
					d="M327.405,820.741h-85.608l0.592-0.874c2.017-2.978,10.609-4.661,14.01-5.223
					c-1.218-1.249-1.6-3.085-1.619-3.185l-0.134-0.669h59.164c-0.39-0.478-0.757-0.978-1.098-1.501
					c-2.354-3.605-3.05-7.578-2.044-11.257c-5.855-0.382-13.188-0.181-17.698,2.439l-1.073,0.623l0.243-1.218
					c0.047-0.231,1.121-5.407,4.625-6.468c-0.211-0.997-0.497-3.185,0.136-6.139l0.159-0.743l0.662,0.373
					c0.106,0.059,6.588,3.642,15.756,5.849c1.646-1.995,3.686-3.484,5.809-4.597v-24.843c0-4.354,4.771-7.518,8.771-9.404v-68.14
					h1.119v67.635c1.703-0.735,3.145-1.213,3.828-1.426v-66.209h1.12v67.048l-0.406,0.115c-0.052,0.016-2.082,0.607-4.542,1.709
					v17.632c0,3.132,0.791,4.415,1.453,4.938c0.689,0.546,1.399,0.396,1.406,0.396l0.688-0.163v8.535l-0.549,0.012
					c-0.093,0.002-6.152,0.168-11.77,2.895v5.138c4.145,0.517,8.585,0.619,13.079-0.023l0.927-0.133l-0.321,0.88
					c-0.132,0.36-1.2,3.146-3.006,4.114c0.891,1.004,2.487,3.052,3.025,5.365l0.16,0.687h-13.428v6.999h-4.423
					c2.947,2.643,6.718,4.063,10.379,3.758l0.606-0.05V820.741z M244.198,819.621h82.087v-2.801
					c-4.153,0.151-8.354-1.692-11.479-4.91h-58.735c0.277,0.8,0.881,2.087,1.997,2.565l1.863,0.799l-2.009,0.271
					C254.866,815.957,247.166,817.417,244.198,819.621z M315.288,810.791h4.435v-7h13.1c-0.879-2.591-3.104-4.752-3.129-4.775
					l-0.837-0.805l1.151-0.154c1.107-0.148,2.093-1.682,2.651-2.821c-4.212,0.506-8.359,0.391-12.253-0.088v4.122l-0.668-0.133
					c-0.079-0.016-3.445-0.664-7.928-1.021c-1.005,3.432-0.377,7.168,1.839,10.563C314.144,809.435,314.692,810.14,315.288,810.791z
					 M297.855,788.237c-0.553,3.286,0.117,5.393,0.124,5.415l0.206,0.628l-0.652,0.102c-2.234,0.343-3.434,2.945-3.96,4.518
					c4.873-2.245,11.885-2.373,17.457-1.987c0.213-0.566,0.468-1.125,0.765-1.671c0.29-0.535,0.606-1.042,0.944-1.523
					C305.336,791.881,299.735,789.2,297.855,788.237z M312.199,797.002c3.262,0.276,5.894,0.701,7.087,0.913V795
					c-1.86-0.266-3.654-0.607-5.363-0.999c-0.418,0.553-0.801,1.143-1.144,1.774C312.561,796.178,312.367,796.588,312.199,797.002z
					 M314.719,793.036c1.467,0.323,2.992,0.607,4.567,0.835v-4.405C317.627,790.39,316.048,791.558,314.719,793.036z
					 M328.058,755.163c-3.625,1.776-7.651,4.558-7.651,8.147v24.293c4.721-2.171,9.573-2.619,11.199-2.712v-6.157
					c-0.454-0.029-1.071-0.174-1.671-0.647c-1.246-0.985-1.877-2.942-1.877-5.816V755.163z"
				/>
				<path
					fill="#AD8726"
					d="M243.871,820.741h-85.608v-5.123l0.606,0.05c3.658,0.307,7.431-1.115,10.379-3.758h-4.423v-6.999
					h-13.428l0.16-0.687c0.538-2.313,2.135-4.361,3.025-5.365c-1.806-0.969-2.874-3.754-3.006-4.114l-0.321-0.88l0.927,0.133
					c4.493,0.643,8.936,0.54,13.079,0.023v-5.142c-5.617-2.727-11.677-2.889-11.77-2.891l-0.549-0.012v-8.535l0.688,0.163
					c0.024,0.003,0.735,0.147,1.426-0.412c0.654-0.53,1.434-1.813,1.434-4.923v-17.633c-2.46-1.101-4.49-1.692-4.542-1.708
					l-0.406-0.115v-67.048h1.12v66.209c0.684,0.213,2.125,0.69,3.828,1.426v-67.635h1.119v68.14c4,1.887,8.771,5.051,8.771,9.404
					v24.843c2.123,1.112,4.163,2.602,5.809,4.597c9.169-2.206,15.649-5.79,15.756-5.849l0.662-0.372l0.159,0.742
					c0.633,2.954,0.347,5.142,0.136,6.139c3.504,1.061,4.578,6.236,4.625,6.468l0.243,1.218l-1.073-0.623
					c-4.51-2.62-11.846-2.821-17.698-2.439c1.006,3.679,0.311,7.651-2.044,11.257c-0.341,0.523-0.708,1.023-1.098,1.501h59.164
					l-0.134,0.669c-0.02,0.1-0.401,1.936-1.619,3.185c3.4,0.562,11.993,2.245,14.01,5.223L243.871,820.741z M159.383,819.621h82.087
					c-2.968-2.205-10.668-3.664-13.725-4.076l-2.01-0.271l1.864-0.799c1.122-0.481,1.724-1.767,1.999-2.565h-58.737
					c-3.126,3.218-7.351,5.048-11.479,4.91V819.621z M165.945,810.791h4.435c0.595-0.651,1.145-1.356,1.639-2.113
					c2.216-3.395,2.844-7.131,1.839-10.563c-4.484,0.357-7.85,1.006-7.928,1.021l-0.668,0.133v-4.122
					c-3.895,0.478-8.04,0.593-12.253,0.088c0.559,1.14,1.544,2.673,2.651,2.821l1.15,0.154l-0.836,0.805
					c-0.024,0.022-2.251,2.19-3.129,4.775h13.1V810.791z M179.318,796.743c4.468,0,9.196,0.507,12.774,2.155
					c-0.529-1.572-1.729-4.174-3.958-4.517l-0.652-0.101l0.206-0.629c0.007-0.022,0.677-2.13,0.123-5.415
					c-1.879,0.963-7.48,3.644-14.883,5.48c0.338,0.481,0.654,0.988,0.944,1.523c0.297,0.546,0.552,1.104,0.764,1.671
					C176.118,796.81,177.701,796.743,179.318,796.743z M166.382,794.998v2.917c1.193-0.212,3.826-0.637,7.087-0.913
					c-0.168-0.414-0.361-0.824-0.58-1.227c-0.343-0.632-0.726-1.222-1.144-1.775C170.036,794.393,168.242,794.734,166.382,794.998z
					 M166.382,789.462v4.409c1.575-0.228,3.103-0.512,4.568-0.836C169.621,791.557,168.04,790.387,166.382,789.462z
					 M154.063,784.892c1.626,0.093,6.479,0.541,11.199,2.712v-24.293c0-3.594-4.026-6.374-7.651-8.149v17.109
					c0,2.874-0.631,4.831-1.878,5.816c-0.599,0.474-1.216,0.618-1.67,0.647V784.892z"
				/>
			</g>
			<g>
				<g>
					<path
						fill="#AD8726"
						d="M219,663.521h-34.369v-1.119h32.836c-0.303-1.039-0.823-3.026-1.026-5.017
						c-1.103,1.519-3.035,3.67-5.219,3.818c-1.798,0.124-2.162-0.776-2.233-1.168c-0.169-0.931,0.635-2.011,1.411-2.243l0.321,1.072
						c-0.276,0.083-0.687,0.658-0.63,0.971c0.034,0.189,0.454,0.292,1.055,0.251c2.72-0.185,5.257-4.688,5.282-4.733l1.091-1.958
						l-0.041,2.24c-0.058,3.077,1.266,7.109,1.278,7.15L219,663.521z"
					/>
					<path
						fill="#AD8726"
						d="M235.953,684.017h-31.185l-0.001-1.119c0.109,0,10.924-0.105,13.155-8.057
						c0.571-2.036,0.203-3.787-1.037-4.93c-1.117-1.032-2.782-1.385-4.141-0.884c-1.586,0.587-2.004,1.616-1.867,2.384
						c0.114,0.634,0.594,1.076,1.168,1.076v1.12c-1.126,0-2.06-0.822-2.271-1.999c-0.207-1.158,0.345-2.804,2.581-3.631
						c1.745-0.646,3.87-0.2,5.289,1.11c1.543,1.423,2.036,3.63,1.355,6.055c-1.241,4.423-4.818,6.641-8.075,7.755h20.729
						c-9.193-5.788-11.843-14.445-12.361-16.523h-29.815c5.949,1.567,15.601,4.75,17.714,9.32h6.519v1.12h-7.282l-0.135-0.367
						c-2.282-6.211-21.575-10.046-21.77-10.083l0.107-1.11h35.574l0.084,0.46c0.021,0.109,2.157,11.046,13.704,17.25
						L235.953,684.017z"
					/>
					<path
						fill="#AD8726"
						d="M245.111,686.203l-2.589-0.863c-7.197-2.399-12.156-7.463-13.141-8.525h-8.662v-1.12h9.163l0.167,0.19
						c0.045,0.05,4.024,4.51,10.119,7.317c-3.757-3.659-11.06-11.439-11.033-16.594c0.006-1.335,0.488-2.428,1.434-3.251
						c1.677-1.461,3.032-1.296,3.693-1.065c0.994,0.344,1.745,1.263,1.959,2.396c0.228,1.206-0.19,2.398-1.119,3.191l-0.727-0.851
						c0.619-0.529,0.897-1.326,0.745-2.133c-0.14-0.74-0.609-1.333-1.226-1.546c-0.742-0.26-1.663,0.042-2.59,0.852
						c-0.702,0.611-1.045,1.399-1.051,2.411c-0.031,6.287,12.688,17.663,12.816,17.776L245.111,686.203z"
					/>
					<path
						fill="#AD8726"
						d="M228.062,677.425l-2.447-3.339c-0.42-0.573-10.23-14.141-6.372-24.87
						c2.763-7.687,7.038-9.818,9.341-10.406c2.609-0.665,5.249-0.03,7.24,1.74c1.27,1.129,1.539,2.977,0.742,5.073
						c-0.602,1.58-1.807,3.191-3.311,4.308c0.041,0.149,0.075,0.301,0.103,0.456c0.549,3.049-1.202,6.542-4.684,9.344
						c-5.56,4.477-2.12,13.731-2.085,13.824L228.062,677.425z M230.607,639.673c-0.578,0-1.163,0.073-1.748,0.223
						c-3.552,0.904-6.674,4.44-8.563,9.698c-2.625,7.3,1.674,16.328,4.345,20.893c-0.579-3.383-0.604-8.461,3.331-11.629
						c3.11-2.502,4.752-5.673,4.283-8.272c0-0.003-0.001-0.008-0.002-0.011c-0.936,0.509-1.948,0.814-2.979,0.814v-1.119
						c0.911,0,1.81-0.291,2.637-0.771c-0.485-1.02-1.371-1.774-2.576-2.177c-1.668-0.555-3.293,0.081-4.344,1.708
						c-1.067,1.651-1.41,4.3,0.357,6.216l-0.822,0.759c-2.173-2.354-1.77-5.581-0.476-7.583c1.325-2.051,3.486-2.88,5.639-2.162
						c1.427,0.476,2.52,1.39,3.15,2.6c1.207-0.969,2.178-2.313,2.68-3.635c0.295-0.773,0.842-2.698-0.438-3.837
						C233.815,640.264,232.246,639.673,230.607,639.673z"
					/>
					<path
						fill="#AD8726"
						d="M301.037,663.521h-34.369l0.243-0.735c0.014-0.041,1.336-4.076,1.279-7.15l-0.041-2.241l1.09,1.959
						c0.025,0.046,2.563,4.549,5.281,4.733c0.594,0.044,1.021-0.061,1.057-0.251c0.057-0.313-0.354-0.888-0.632-0.971l0.322-1.072
						c0.776,0.232,1.58,1.313,1.411,2.243c-0.071,0.393-0.436,1.285-2.233,1.168c-2.183-0.148-4.116-2.3-5.219-3.818
						c-0.203,1.99-0.724,3.978-1.026,5.017h32.837V663.521z"
					/>
					<path
						fill="#AD8726"
						d="M280.898,684.017h-31.185l1.96-1.053c11.568-6.217,13.684-17.141,13.704-17.25l0.084-0.46h35.575
						l0.107,1.11c-0.195,0.037-19.488,3.874-21.771,10.083l-0.134,0.367h-7.282v-1.12h6.518c2.114-4.57,11.765-7.753,17.714-9.32
						h-29.814c-0.52,2.078-3.169,10.735-12.362,16.523h20.729c-3.258-1.114-6.834-3.332-8.075-7.755
						c-0.681-2.425-0.187-4.632,1.356-6.055c1.42-1.311,3.545-1.755,5.288-1.11c2.236,0.827,2.788,2.473,2.581,3.631
						c-0.21,1.177-1.145,1.999-2.271,1.999v-1.12c0.574,0,1.055-0.442,1.168-1.076c0.138-0.768-0.281-1.797-1.866-2.384
						c-1.36-0.502-3.023-0.147-4.141,0.883c-1.24,1.144-1.609,2.895-1.038,4.931c2.236,7.964,13.046,8.057,13.154,8.057V684.017z"
					/>
					<path
						fill="#AD8726"
						d="M240.557,686.203l2.04-1.813c0.129-0.113,12.848-11.489,12.815-17.776
						c-0.005-1.012-0.348-1.801-1.049-2.411c-0.927-0.809-1.849-1.111-2.592-0.852c-0.616,0.213-1.086,0.806-1.226,1.546
						c-0.152,0.807,0.127,1.604,0.746,2.133l-0.728,0.851c-0.929-0.793-1.347-1.984-1.119-3.191c0.214-1.133,0.965-2.052,1.96-2.396
						c0.658-0.229,2.016-0.396,3.693,1.065c0.945,0.823,1.428,1.916,1.434,3.251c0.026,5.154-7.276,12.935-11.033,16.595
						c6.095-2.809,10.073-7.269,10.118-7.318l0.167-0.19h9.164v1.12h-8.663c-0.983,1.063-5.942,6.126-13.14,8.525L240.557,686.203z"
					/>
					<path
						fill="#AD8726"
						d="M257.616,677.41l1.462-3.855c0.035-0.093,3.466-9.354-2.085-13.824
						c-3.48-2.802-5.231-6.295-4.684-9.344c0.028-0.155,0.063-0.307,0.103-0.456c-1.503-1.116-2.709-2.728-3.31-4.308
						c-0.798-2.097-0.527-3.945,0.742-5.073c1.991-1.771,4.631-2.405,7.239-1.74c2.303,0.588,6.578,2.719,9.342,10.406
						c3.858,10.729-5.953,24.297-6.372,24.87L257.616,677.41z M253.414,650.574c-0.001,0.003-0.001,0.008-0.002,0.011
						c-0.468,2.6,1.174,5.771,4.283,8.272c3.935,3.168,3.91,8.246,3.331,11.629c2.672-4.563,6.97-13.593,4.346-20.893
						c-1.891-5.258-5.013-8.794-8.564-9.699c-2.241-0.569-4.509-0.027-6.22,1.493c-1.28,1.139-0.733,3.063-0.439,3.837
						c0.502,1.32,1.473,2.666,2.68,3.635c0.632-1.21,1.725-2.124,3.151-2.6c2.152-0.718,4.313,0.111,5.639,2.162
						c1.294,2.002,1.696,5.229-0.477,7.583l-0.822-0.759c1.768-1.916,1.425-4.564,0.358-6.216c-1.052-1.627-2.677-2.268-4.345-1.708
						c-1.205,0.402-2.091,1.157-2.575,2.177c0.826,0.48,1.725,0.771,2.637,0.771v1.119
						C255.363,651.389,254.351,651.083,253.414,650.574z"
					/>
					<path
						fill="#AD8726"
						d="M242.969,681.281l-15.63-35.101l0.102-0.228l15.528-34.877l15.629,35.104l-0.103,0.228L242.969,681.281
						z M228.565,646.181l14.403,32.348l14.402-32.348l-14.402-32.351L228.565,646.181z"
					/>
					<path
						fill="#AD8726"
						d="M242.969,661.084l-6.637-14.905l6.637-14.905l6.636,14.905L242.969,661.084z M237.558,646.179
						l5.411,12.151l5.41-12.151l-5.41-12.151L237.558,646.179z"
					/>
				</g>
				<g>
					<path
						fill="#AD8726"
						d="M268.149,724.909l0.041-2.239c0.057-3.076-1.266-7.11-1.279-7.15l-0.243-0.736h34.369v1.12H268.2
						c0.303,1.039,0.823,3.026,1.026,5.017c1.103-1.52,3.035-3.67,5.219-3.819c1.803-0.128,2.163,0.778,2.233,1.171
						c0.169,0.928-0.635,2.009-1.411,2.24l-0.321-1.071c0.277-0.083,0.688-0.657,0.631-0.97c-0.035-0.191-0.459-0.295-1.057-0.252
						c-2.718,0.185-5.256,4.688-5.281,4.733L268.149,724.909z"
					/>
					<path
						fill="#AD8726"
						d="M301.037,713.051h-35.574l-0.085-0.459c-0.021-0.109-2.157-11.046-13.704-17.25l-1.96-1.054h31.186
						v1.12c-0.109,0-10.923,0.105-13.155,8.056c-0.571,2.037-0.203,3.788,1.037,4.932c1.116,1.031,2.781,1.387,4.142,0.885
						c1.586-0.589,2.004-1.617,1.866-2.386c-0.113-0.633-0.594-1.074-1.168-1.074v-1.12c1.126,0,2.06,0.821,2.271,1.997
						c0.207,1.158-0.344,2.804-2.58,3.633c-1.746,0.646-3.872,0.199-5.29-1.112c-1.542-1.423-2.036-3.63-1.355-6.056
						c1.241-4.423,4.818-6.641,8.075-7.754h-20.728c9.192,5.788,11.842,14.445,12.361,16.523h29.814
						c-5.949-1.567-15.6-4.75-17.714-9.32h-6.518v-1.12h7.282l0.134,0.366c2.283,6.212,21.575,10.047,21.771,10.084L301.037,713.051
						z"
					/>
					<path
						fill="#AD8726"
						d="M252.319,716.165c-0.378,0-0.688-0.071-0.915-0.15c-0.994-0.346-1.745-1.263-1.959-2.397
						c-0.228-1.205,0.191-2.396,1.119-3.189l0.728,0.851c-0.619,0.529-0.898,1.325-0.746,2.132c0.14,0.74,0.609,1.333,1.226,1.546
						c0.743,0.257,1.664-0.045,2.591-0.851c0.701-0.611,1.045-1.4,1.05-2.412c0.031-6.289-12.688-17.664-12.816-17.777l-2.04-1.813
						l2.59,0.862c7.197,2.399,12.156,7.463,13.14,8.526h8.663v1.12h-9.163l-0.168-0.19c-0.045-0.051-4.024-4.511-10.119-7.318
						c3.757,3.66,11.059,11.44,11.034,16.596c-0.007,1.334-0.489,2.428-1.434,3.252
						C253.999,715.906,253.037,716.165,252.319,716.165z"
					/>
					<path
						fill="#AD8726"
						d="M255.054,739.754c-1.907,0-3.735-0.688-5.21-1.998c-1.269-1.127-1.539-2.975-0.742-5.071
						c0.602-1.582,1.807-3.193,3.31-4.31c-0.039-0.149-0.073-0.302-0.102-0.458c-0.548-3.048,1.203-6.54,4.684-9.342
						c5.551-4.468,2.12-13.729,2.085-13.822l-1.462-3.855l2.438,3.324c0.419,0.573,10.23,14.141,6.372,24.87
						c-2.764,7.686-7.039,9.816-9.341,10.404C256.405,739.668,255.725,739.754,255.054,739.754z M252.828,729.447
						c-1.207,0.969-2.178,2.314-2.68,3.635c-0.294,0.774-0.841,2.699,0.438,3.836c1.711,1.521,3.978,2.063,6.221,1.493
						c3.553-0.906,6.674-4.44,8.563-9.698c2.625-7.299-1.673-16.326-4.345-20.892c0.579,3.383,0.604,8.461-3.331,11.627
						c-3.109,2.502-4.751,5.671-4.283,8.271c0.001,0.005,0.001,0.009,0.002,0.013c0.936-0.509,1.949-0.815,2.979-0.815v1.12
						c-0.911,0-1.81,0.291-2.636,0.771c0.484,1.02,1.37,1.775,2.575,2.178c1.668,0.556,3.293-0.082,4.345-1.708
						c1.066-1.651,1.409-4.3-0.359-6.217l0.824-0.76c2.172,2.354,1.77,5.582,0.476,7.584c-1.326,2.052-3.485,2.882-5.639,2.164
						C254.553,731.571,253.459,730.656,252.828,729.447z"
					/>
					<path
						fill="#AD8726"
						d="M217.519,724.911l-1.091-1.959c-0.025-0.046-2.563-4.549-5.281-4.733
						c-0.599-0.043-1.021,0.061-1.056,0.252c-0.057,0.313,0.354,0.887,0.631,0.97l-0.321,1.071c-0.776-0.231-1.58-1.313-1.412-2.24
						c0.071-0.395,0.428-1.291,2.233-1.171c2.184,0.149,4.116,2.3,5.219,3.819c0.204-1.99,0.724-3.978,1.026-5.017h-32.836v-1.12
						h34.368l-0.243,0.736c-0.013,0.04-1.336,4.078-1.278,7.15L217.519,724.911z"
					/>
					<path
						fill="#AD8726"
						d="M220.206,713.051h-35.575l-0.107-1.109c0.194-0.037,19.488-3.874,21.77-10.084l0.135-0.366h7.282v1.12
						h-6.519c-2.113,4.57-11.765,7.753-17.714,9.32h29.815c0.519-2.078,3.168-10.735,12.361-16.523h-20.729
						c3.258,1.113,6.834,3.331,8.075,7.754c0.681,2.426,0.187,4.634-1.355,6.057c-1.418,1.31-3.544,1.758-5.289,1.111
						c-2.237-0.829-2.788-2.475-2.581-3.633c0.211-1.176,1.145-1.997,2.271-1.997v1.12c-0.574,0-1.054,0.441-1.168,1.074
						c-0.137,0.769,0.28,1.797,1.867,2.386c1.357,0.503,3.023,0.146,4.141-0.885c1.24-1.144,1.608-2.895,1.037-4.932
						c-2.235-7.964-13.045-8.056-13.154-8.056v-1.12h31.186l-1.96,1.054c-11.569,6.216-13.685,17.141-13.705,17.25L220.206,713.051z
						"
					/>
					<path
						fill="#AD8726"
						d="M233.349,716.165c-0.719,0-1.681-0.259-2.779-1.215c-0.945-0.824-1.428-1.918-1.435-3.252
						c-0.025-5.155,7.277-12.936,11.034-16.596c-6.095,2.808-10.074,7.268-10.119,7.318l-0.167,0.19h-9.163v-1.12h8.662
						c0.984-1.063,5.942-6.127,13.14-8.526l2.59-0.862l-2.041,1.813c-0.128,0.113-12.846,11.488-12.815,17.777
						c0.005,1.012,0.349,1.801,1.05,2.412c0.927,0.807,1.847,1.109,2.592,0.851c0.616-0.213,1.086-0.806,1.225-1.546
						c0.152-0.807-0.126-1.603-0.745-2.132l0.727-0.851c0.929,0.792,1.347,1.984,1.12,3.189c-0.214,1.134-0.965,2.052-1.96,2.397
						C234.036,716.094,233.726,716.165,233.349,716.165z"
					/>
					<path
						fill="#AD8726"
						d="M230.613,739.754c-0.671,0-1.352-0.086-2.03-0.258c-2.303-0.587-6.577-2.719-9.342-10.404
						c-3.857-10.729,5.953-24.297,6.373-24.87l2.438-3.324l-1.463,3.855c-0.035,0.093-3.465,9.354,2.085,13.822
						c3.48,2.802,5.231,6.294,4.684,9.342c-0.027,0.156-0.062,0.309-0.102,0.458c1.503,1.116,2.709,2.728,3.31,4.31
						c0.797,2.097,0.526,3.944-0.742,5.071C234.35,739.065,232.521,739.754,230.613,739.754z M224.641,707.821
						c-2.671,4.565-6.97,13.593-4.345,20.892c1.891,5.258,5.012,8.792,8.563,9.698c2.241,0.569,4.51,0.026,6.22-1.493
						c1.28-1.137,0.734-3.062,0.44-3.836c-0.502-1.32-1.473-2.666-2.681-3.635c-0.631,1.209-1.724,2.124-3.15,2.601
						c-2.152,0.718-4.313-0.112-5.639-2.164c-1.294-2.002-1.697-5.229,0.476-7.584l0.823,0.76c-1.769,1.917-1.426,4.565-0.358,6.217
						c1.05,1.625,2.676,2.264,4.344,1.708c1.205-0.402,2.092-1.158,2.576-2.178c-0.827-0.479-1.726-0.771-2.637-0.771v-1.12
						c1.031,0,2.044,0.307,2.979,0.816c0.001-0.005,0.002-0.009,0.003-0.014c0.467-2.6-1.175-5.769-4.284-8.271
						C224.037,716.282,224.062,711.204,224.641,707.821z"
					/>
					<path
						fill="#AD8726"
						d="M242.699,767.229l-15.629-35.103l0.102-0.228l15.527-34.876l15.629,35.104l-0.102,0.228
						L242.699,767.229z M228.296,732.127l14.403,32.349l14.403-32.349l-14.403-32.35L228.296,732.127z"
					/>
					<path
						fill="#AD8726"
						d="M242.699,747.032l-6.637-14.905l6.637-14.905l6.637,14.905L242.699,747.032z M237.289,732.127
						l5.41,12.151l5.41-12.151l-5.41-12.152L237.289,732.127z"
					/>
				</g>
			</g>
		</g>
	</g>
</svg>