<svg
  version="1.1"
  id="theta"
  xmlns="http://www.w3.org/2000/svg"
  viewBox="824 548 202 283"
>
  <g>
    <path
      fill="#030E4E"
      d="M1025.745,558.123c0-5.565-4.513-10.077-10.079-10.077l0,0H834.242l0,0l0,0
			c-5.566,0-10.079,4.512-10.079,10.077l0,0v262.058c0,5.566,4.513,10.079,10.079,10.079c0.007,0,0.014,0,0.022,0h181.38
			c0.006,0,0.015,0,0.021,0c5.566,0,10.079-4.513,10.079-10.079V558.123L1025.745,558.123z"
    />
    <g>
      <g>
        <g>
          <g>
            <g>
              <path
                fill="#AD8726"
                d="M953.348,730.449c-1.112,0-2.001-0.302-2.607-0.6c-2.051-1.008-3.455-3.184-3.414-5.29
								c0.028-1.45,0.776-2.606,2.052-3.174c0.89-0.395,1.725-0.405,2.478-0.034c1.626,0.806,2.198,3.153,2.222,3.253
								c0.071,0.301-0.115,0.602-0.415,0.674c-0.295,0.068-0.603-0.114-0.675-0.415c-0.129-0.538-0.674-2.036-1.631-2.509
								c-0.446-0.221-0.946-0.202-1.523,0.055c-1.121,0.498-1.373,1.456-1.387,2.173c-0.027,1.424,0.922,3.345,2.788,4.263
								c1.966,0.967,4.322,0.475,6.638-1.384c6.931-5.564,6.45-20.013,6.445-20.158l-0.023-0.582h28.338l-12.986-14.385
								c-9.604,7.406-19.619,4.419-23.564,2.742c2.439,4.351,3.196,8.583,2.249,12.604c-1.691,7.184-8.167,11.048-8.442,11.209
								c-0.265,0.152-0.608,0.067-0.766-0.2c-0.155-0.268-0.066-0.609,0.2-0.767c0.063-0.038,6.344-3.795,7.921-10.51
								c0.987-4.207-0.053-8.699-3.089-13.354l-1.312-2.009l2.065,1.221c0.125,0.075,12.691,7.313,24.453-2.136l0.411-0.331
								l15.379,17.035h-29.703c0.029,2.862-0.248,15.173-6.875,20.493C956.552,729.957,954.768,730.449,953.348,730.449z"
              />
              <path
                fill="#AD8726"
                d="M930.72,723.34v-42.202l1.07,2.35c0.032,0.072,3.301,7.226,5.433,9.603
								c4.394,4.896,6.628,9.646,5.976,12.71c-0.319,1.497-1.268,2.606-2.819,3.3c-2.373,1.06-3.502-0.022-3.962-0.761
								c-1.104-1.774-0.698-5.271,0.176-5.999c0.237-0.197,0.591-0.165,0.787,0.073c0.199,0.237,0.167,0.591-0.072,0.789
								c-0.372,0.407-0.819,3.33,0.131,4.649c0.181,0.251,0.725,1.012,2.484,0.225c1.224-0.546,1.938-1.367,2.18-2.51
								c0.568-2.674-1.621-7.168-5.713-11.729c-1.477-1.645-3.38-5.266-4.55-7.643v35.558c22.093-8.312,14.93-33.732,14.61-34.821
								l-0.354-1.211l1.136,0.549c19.252,9.31,32.586-5.176,32.718-5.323l0.4-0.447l21.845,22.577h-44.147
								c-0.31,0-0.56-0.251-0.56-0.561c0-0.309,0.25-0.56,0.56-0.56h41.505l-19.188-19.833c-2.416,2.367-15.041,13.437-32.553,5.65
								c1.202,5.374,4.846,27.919-16.347,35.307L930.72,723.34z"
              />
            </g>
            <path
              fill="#AD8726"
              d="M930.72,762.843v-29.82c0-0.31,0.251-0.56,0.561-0.56s0.56,0.25,0.56,0.56v27.176
							c4.731-4.676,14.299-14.919,14.299-18.741c0-2.471-2.046-4.064-4.064-4.361c-1.764-0.253-3.934,0.41-4.731,3.068
							c-0.088,0.295-0.4,0.465-0.696,0.375c-0.297-0.089-0.465-0.4-0.375-0.696c1.004-3.344,3.843-4.161,5.966-3.854
							c2.494,0.366,5.021,2.362,5.021,5.469c0,5.412-14.953,19.861-15.59,20.474L930.72,762.843z"
            />
          </g>
          <g>
            <g>
              <path
                fill="#AD8726"
                d="M979.772,671.835l-0.411-0.332c-11.778-9.465-24.327-2.21-24.453-2.137l-2.07,1.229l1.316-2.016
								c3.04-4.657,4.077-9.153,3.087-13.363c-1.584-6.722-7.855-10.462-7.919-10.499c-0.268-0.156-0.355-0.5-0.2-0.767
								c0.156-0.268,0.501-0.355,0.766-0.2c0.275,0.16,6.751,4.024,8.442,11.209c0.947,4.02,0.19,8.252-2.249,12.603
								c3.944-1.674,13.96-4.665,23.564,2.742l12.986-14.385h-28.337l0.022-0.582c0.005-0.146,0.479-14.598-6.445-20.158
								c-2.315-1.858-4.672-2.348-6.638-1.384c-1.866,0.918-2.815,2.84-2.788,4.264c0.014,0.716,0.266,1.674,1.387,2.172
								c0.578,0.258,1.078,0.275,1.525,0.054c0.962-0.477,1.501-1.971,1.629-2.507c0.071-0.301,0.371-0.493,0.674-0.416
								c0.301,0.071,0.487,0.373,0.416,0.674c-0.023,0.1-0.596,2.448-2.222,3.253c-0.753,0.373-1.588,0.362-2.478-0.034
								c-1.275-0.567-2.023-1.724-2.052-3.174c-0.041-2.106,1.363-4.281,3.414-5.29c1.378-0.677,4.226-1.379,7.833,1.516
								c6.627,5.321,6.904,17.631,6.875,20.493h29.703L979.772,671.835z"
              />
              <path
                fill="#AD8726"
                d="M980.351,682.141l-0.401-0.446c-0.132-0.147-13.491-14.621-32.718-5.324l-1.136,0.549l0.354-1.211
								c0.319-1.089,7.482-26.51-14.61-34.821v35.558c1.17-2.376,3.073-5.997,4.55-7.643c4.092-4.561,6.281-9.054,5.713-11.728
								c-0.242-1.144-0.956-1.965-2.18-2.511c-1.758-0.786-2.304-0.026-2.484,0.225c-0.95,1.32-0.503,4.242-0.119,4.66
								c0.237,0.198,0.265,0.546,0.066,0.784c-0.198,0.236-0.555,0.265-0.793,0.067c-0.874-0.728-1.28-4.225-0.176-5.998
								c0.46-0.738,1.589-1.819,3.962-0.762c1.552,0.693,2.5,1.804,2.819,3.3c0.652,3.064-1.582,7.815-5.976,12.71
								c-2.132,2.377-5.4,9.53-5.433,9.603l-1.07,2.351V639.3l0.744,0.26c21.192,7.388,17.549,29.933,16.347,35.307
								c17.511-7.785,30.138,3.284,32.553,5.651l19.188-19.834h-41.505c-0.31,0-0.56-0.25-0.56-0.56s0.25-0.56,0.56-0.56h44.147
								L980.351,682.141z"
              />
            </g>
            <path
              fill="#AD8726"
              d="M931.28,630.178c-0.31,0-0.561-0.251-0.561-0.561v-29.82l0.948,0.912
							c0.637,0.612,15.59,15.062,15.59,20.475c0,3.105-2.526,5.102-5.021,5.468c-2.123,0.308-4.963-0.51-5.966-3.854
							c-0.09-0.297,0.078-0.608,0.375-0.697c0.296-0.092,0.608,0.079,0.696,0.376c0.798,2.656,2.968,3.325,4.731,3.067
							c2.019-0.297,4.064-1.89,4.064-4.36c0-3.822-9.567-14.065-14.299-18.742v27.176C931.84,629.927,931.59,630.178,931.28,630.178
							z"
            />
          </g>
        </g>
        <g>
          <g>
            <g>
              <path
                fill="#AD8726"
                d="M878.206,671.835l-15.379-17.036h29.702c-0.028-2.862,0.249-15.172,6.876-20.493
								c3.607-2.894,6.455-2.192,7.832-1.516c2.052,1.009,3.456,3.184,3.414,5.29c-0.027,1.45-0.774,2.606-2.051,3.174
								c-0.89,0.396-1.723,0.407-2.477,0.034c-1.627-0.806-2.198-3.153-2.223-3.253c-0.071-0.301,0.115-0.602,0.416-0.674
								c0.299-0.066,0.602,0.114,0.674,0.415c0.129,0.538,0.673,2.036,1.631,2.509c0.449,0.221,0.946,0.203,1.523-0.055
								c1.121-0.498,1.373-1.456,1.387-2.172c0.027-1.424-0.922-3.346-2.789-4.264c-1.963-0.964-4.32-0.475-6.637,1.384
								c-6.93,5.564-6.45,20.013-6.445,20.158l0.023,0.582h-28.338l12.985,14.385c9.604-7.406,19.62-4.419,23.565-2.742
								c-2.439-4.351-3.196-8.583-2.25-12.603c1.692-7.185,8.168-11.049,8.442-11.209c0.268-0.154,0.61-0.068,0.766,0.2
								c0.157,0.267,0.068,0.608-0.199,0.767c-0.063,0.037-6.345,3.795-7.921,10.509c-0.987,4.207,0.052,8.7,3.09,13.354
								l1.311,2.009l-2.065-1.221c-0.127-0.076-12.693-7.314-24.452,2.136L878.206,671.835z"
              />
              <path
                fill="#AD8726"
                d="M877.628,682.142l-21.843-22.577h44.146c0.31,0,0.56,0.25,0.56,0.56s-0.25,0.56-0.56,0.56h-41.504
								l19.188,19.834c2.417-2.367,15.041-13.435,32.553-5.651c-1.201-5.374-4.845-27.919,16.346-35.307l0.745-0.26v42.203
								l-1.07-2.351c-0.032-0.072-3.301-7.226-5.432-9.603c-4.395-4.895-6.629-9.646-5.976-12.71c0.317-1.496,1.267-2.606,2.818-3.3
								c2.374-1.058,3.502,0.023,3.962,0.762c1.104,1.773,0.698,5.271-0.175,5.998c-0.238,0.197-0.593,0.164-0.79-0.073
								c-0.196-0.237-0.165-0.591,0.072-0.788c0.374-0.408,0.821-3.33-0.129-4.65c-0.179-0.251-0.725-1.011-2.484-0.225
								c-1.223,0.546-1.936,1.367-2.18,2.511c-0.57,2.674,1.619,7.167,5.714,11.728c1.475,1.646,3.378,5.267,4.549,7.643v-35.558
								c-22.093,8.312-14.93,33.732-14.61,34.821l0.354,1.211l-1.135-0.549c-19.25-9.307-32.587,5.178-32.718,5.324L877.628,682.142
								z"
              />
            </g>
            <path
              fill="#AD8726"
              d="M926.698,630.178c-0.31,0-0.56-0.251-0.56-0.561v-27.176c-4.732,4.677-14.298,14.92-14.298,18.742
							c0,2.471,2.045,4.063,4.064,4.36c1.763,0.261,3.933-0.411,4.729-3.067c0.09-0.297,0.4-0.468,0.698-0.376
							c0.296,0.089,0.464,0.4,0.376,0.697c-1.004,3.343-3.836,4.161-5.967,3.854c-2.494-0.366-5.02-2.362-5.02-5.468
							c0-5.413,14.952-19.862,15.589-20.475l0.948-0.912v29.82C927.259,629.927,927.008,630.178,926.698,630.178z"
            />
          </g>
          <g>
            <g>
              <path
                fill="#AD8726"
                d="M904.63,730.449c-1.42,0-3.202-0.492-5.225-2.115c-6.627-5.32-6.904-17.631-6.876-20.493h-29.702
								l15.379-17.035l0.412,0.331c11.776,9.466,24.327,2.211,24.452,2.137l2.07-1.229l-1.315,2.016
								c-3.041,4.657-4.08,9.153-3.087,13.363c1.583,6.722,7.854,10.462,7.918,10.5c0.268,0.156,0.356,0.499,0.2,0.767
								c-0.156,0.265-0.501,0.353-0.767,0.2c-0.274-0.161-6.75-4.025-8.442-11.209c-0.946-4.021-0.189-8.253,2.25-12.604
								c-3.945,1.675-13.96,4.665-23.565-2.742l-12.985,14.385h28.338l-0.023,0.582c-0.005,0.146-0.479,14.599,6.445,20.158
								c2.315,1.858,4.674,2.351,6.637,1.384c1.867-0.918,2.816-2.839,2.789-4.263c-0.014-0.717-0.266-1.675-1.387-2.173
								c-0.577-0.257-1.074-0.275-1.523-0.055c-0.958,0.473-1.502,1.971-1.631,2.509c-0.072,0.301-0.377,0.483-0.674,0.415
								c-0.301-0.072-0.487-0.373-0.416-0.674c0.024-0.1,0.596-2.446,2.223-3.253c0.754-0.371,1.587-0.36,2.477,0.034
								c1.276,0.567,2.023,1.724,2.051,3.174c0.042,2.106-1.362,4.282-3.414,5.29C906.632,730.147,905.743,730.449,904.63,730.449z"
              />
              <path
                fill="#AD8726"
                d="M927.259,723.34l-0.745-0.26c-21.19-7.388-17.547-29.933-16.346-35.307
								c-17.508,7.788-30.137-3.284-32.553-5.65l-19.188,19.833h41.504c0.31,0,0.56,0.251,0.56,0.56c0,0.31-0.25,0.561-0.56,0.561
								h-44.146l21.843-22.576l0.401,0.446c0.133,0.147,13.492,14.622,32.719,5.323l1.135-0.549l-0.354,1.211
								c-0.319,1.089-7.482,26.51,14.61,34.821v-35.558c-1.171,2.377-3.074,5.998-4.549,7.643
								c-4.095,4.561-6.284,9.055-5.714,11.729c0.244,1.143,0.957,1.964,2.18,2.51c1.759,0.787,2.306,0.026,2.484-0.225
								c0.95-1.319,0.503-4.242,0.12-4.66c-0.238-0.197-0.266-0.545-0.067-0.783c0.198-0.235,0.556-0.266,0.794-0.068
								c0.873,0.728,1.279,4.225,0.175,5.999c-0.46,0.738-1.588,1.819-3.962,0.761c-1.552-0.693-2.501-1.803-2.818-3.3
								c-0.653-3.063,1.581-7.814,5.976-12.71c2.131-2.377,5.399-9.53,5.432-9.603l1.07-2.35V723.34z"
              />
            </g>
            <path
              fill="#AD8726"
              d="M927.259,762.843l-0.948-0.912c-0.637-0.612-15.589-15.062-15.589-20.474
							c0-3.106,2.525-5.103,5.02-5.469c2.128-0.309,4.964,0.511,5.967,3.854c0.088,0.296-0.08,0.607-0.376,0.696
							c-0.298,0.09-0.608-0.08-0.698-0.375c-0.796-2.658-2.97-3.33-4.729-3.068c-2.02,0.297-4.064,1.891-4.064,4.361
							c0,3.822,9.565,14.065,14.298,18.741v-27.176c0-0.31,0.25-0.56,0.56-0.56s0.561,0.25,0.561,0.56V762.843z"
            />
          </g>
        </g>
      </g>
      <g>
        <g>
          <path
            fill="#AD8726"
            d="M1008.546,668.161h-1.119V565.684h-14.384l10.079,10.499h-1.314c-0.031,0.005-1.427,0.165-5.819,3.525
						c-1.986,1.518-2.652,3.816-3.357,6.251c-0.905,3.121-1.931,6.66-5.92,9.221c-1.895,1.216-4.779,1.055-7.013-0.394
						c-2.264-1.468-3.338-3.813-2.942-6.438c0.583-3.877,3.192-5.196,5.451-5.2c2.248,0.028,4.114,1.397,4.337,3.184
						c0.381,3.043-1.568,4.386-2.653,4.671l-0.284-1.083l0.143,0.542l-0.146-0.54c0.09-0.025,2.182-0.641,1.83-3.45
						c-0.151-1.215-1.574-2.183-3.24-2.203c-1.78,0-3.853,1.081-4.329,4.246c-0.326,2.17,0.563,4.113,2.445,5.332
						c1.876,1.216,4.261,1.378,5.798,0.391c3.636-2.333,4.557-5.515,5.449-8.59c0.757-2.616,1.474-5.087,3.752-6.83
						c2.82-2.156,4.507-3.077,5.461-3.469l-10.355-10.784h18.133V668.161z"
          />
          <path
            fill="#AD8726"
            d="M974.518,586.563c-0.028-0.171-0.659-4.222,2.398-6.36c1.479-1.033,3.489-1.35,5.517-0.865
						c1.234,0.296,2.285,0.849,2.977,1.546c0.951-1.706,3.462-5.575,7.001-6.324l-16.862-15.875h-22.953v-1.12h23.396l19.131,18.01
						l-1.442-0.021c-4.517-0.035-7.643,6.54-7.674,6.608l-0.475,1.007l-0.526-0.98c-0.403-0.755-1.517-1.445-2.833-1.76
						c-1.69-0.401-3.417-0.145-4.615,0.694c-2.484,1.736-1.94,5.223-1.935,5.258L974.518,586.563z"
          />
          <polygon
            fill="#AD8726"
            points="1016.226,681.32 1015.106,681.32 1015.106,561.204 978.446,561.204 978.446,560.084 
						1016.226,560.084 					"
          />
          <path
            fill="#AD8726"
            d="M976.775,577.33c-0.251,0-0.517-0.012-0.798-0.039c-1.986-0.193-3.375-0.986-4.125-2.358
						c-1.842-3.368,0.992-8.986,1.114-9.224l1.014,0.475c-0.228,0.533-0.209,2.315,0.549,3.042c0.148,0.143,0.6,0.575,1.774,0.013
						c1.189-0.568,1.717-2.306,1.281-4.223c-0.398-1.758-1.754-3.812-4.26-3.812c-1.311,0-2.324,0.382-3.015,1.133
						c-1.265,1.378-1.094,3.557-1.093,3.579l0.051,0.607h-16.674c-7.131,0-12.551-6.498-13.594-7.839h-8.493v-1.12h9.056
						l0.168,0.229c0.055,0.076,5.654,7.61,12.863,7.61h15.497c0.03-0.892,0.249-2.577,1.394-3.825
						c0.912-0.991,2.203-1.495,3.84-1.495c3.166,0,4.862,2.523,5.353,4.685c0.551,2.43-0.227,4.685-1.891,5.48
						c-1.549,0.741-2.504,0.293-3.033-0.216c-0.366-0.352-0.62-0.822-0.782-1.329c-0.564,1.77-1.004,4.107-0.135,5.693
						c0.568,1.04,1.631,1.621,3.25,1.778c1.787,0.176,3.117-0.328,3.752-1.412c0.536-0.915,0.433-1.974,0.063-2.506
						c-0.28-0.401-0.591-0.346-0.692-0.33l-0.194-1.103c0.712-0.128,1.368,0.164,1.806,0.794c0.679,0.977,0.673,2.537-0.016,3.711
						C980.349,576.108,979.238,577.33,976.775,577.33z"
          />
          <path
            fill="#AD8726"
            d="M1015.235,630.169l-11.448-13.735v-10.562c-0.58-3.103-2.535-5.901-4.427-8.608
						c-2.05-2.934-3.986-5.705-3.833-8.64c0.181-3.417,3.465-5.783,6.42-5.849c2.06-0.022,3.479,1.06,3.657,2.885
						c0.455,4.711-3.955,6.439-3.998,6.457l-0.399-1.047c0.149-0.058,3.655-1.454,3.282-5.303c-0.168-1.736-1.817-1.867-2.517-1.872
						c-2.13,0.047-5.166,1.736-5.325,4.788c-0.136,2.549,1.695,5.167,3.631,7.939c1.96,2.805,3.986,5.705,4.619,9.148l0.009,10.257
						l11.19,13.423L1015.235,630.169z"
          />
        </g>
        <g>
          <path
            fill="#AD8726"
            d="M842.479,668.161h-1.119V564.564h18.132l-10.354,10.784c0.953,0.392,2.64,1.313,5.461,3.469
						c2.278,1.743,2.994,4.214,3.752,6.83c0.892,3.075,1.813,6.257,5.449,8.59c1.537,0.987,3.923,0.825,5.798-0.391
						c1.881-1.219,2.771-3.162,2.444-5.332c-0.471-3.133-2.507-4.246-4.275-4.246c-0.018,0-0.035,0-0.053,0
						c-1.666,0.021-3.089,0.988-3.241,2.203c-0.354,2.841,1.737,3.425,1.827,3.448l-0.285,1.083
						c-1.084-0.285-3.033-1.628-2.653-4.671c0.223-1.786,2.089-3.155,4.338-3.184c0.023,0,0.046,0,0.069,0
						c2.236,0,4.803,1.362,5.382,5.2c0.395,2.624-0.678,4.97-2.943,6.438c-2.234,1.446-5.117,1.607-7.013,0.394
						c-3.989-2.561-5.015-6.1-5.918-9.221c-0.707-2.435-1.372-4.733-3.358-6.251c-4.393-3.36-5.789-3.521-5.846-3.526l-1.16-0.104
						l0.782-0.843l9.169-9.551h-14.385V668.161z"
          />
          <path
            fill="#AD8726"
            d="M875.39,586.563l-1.105-0.183c0.006-0.034,0.538-3.531-1.935-5.259
						c-1.198-0.839-2.925-1.096-4.615-0.694c-1.316,0.314-2.429,1.005-2.833,1.76l-0.525,0.98l-0.475-1.007
						c-0.032-0.067-3.166-6.608-7.609-6.608c-0.022,0-0.043,0-0.065,0l-1.441,0.021l19.131-18.01h23.396v1.12h-22.952
						l-16.864,15.875c3.541,0.749,6.051,4.618,7.002,6.324c0.691-0.697,1.743-1.25,2.977-1.546c2.028-0.483,4.039-0.167,5.518,0.865
						C876.048,582.342,875.418,586.393,875.39,586.563z"
          />
          <polygon
            fill="#AD8726"
            points="834.8,681.32 833.681,681.32 833.681,560.084 871.462,560.084 871.462,561.204 834.8,561.204 
											"
          />
          <path
            fill="#AD8726"
            d="M873.131,577.33c-2.463,0-3.572-1.222-4.029-2c-0.687-1.174-0.693-2.734-0.016-3.711
						c0.438-0.63,1.095-0.922,1.807-0.794l-0.194,1.103c-0.101-0.016-0.411-0.071-0.692,0.33c-0.37,0.532-0.474,1.591,0.063,2.506
						c0.634,1.084,1.966,1.588,3.752,1.412c1.618-0.157,2.681-0.738,3.251-1.778c0.867-1.586,0.429-3.924-0.136-5.693
						c-0.163,0.507-0.416,0.978-0.782,1.329c-0.529,0.509-1.484,0.956-3.034,0.216c-1.664-0.796-2.44-3.051-1.89-5.48
						c0.49-2.161,2.186-4.685,5.353-4.685c1.636,0,2.928,0.504,3.839,1.495c1.146,1.248,1.365,2.934,1.394,3.825h15.497
						c7.22,0,12.809-7.533,12.863-7.61l0.168-0.229h9.057v1.12h-8.494c-1.042,1.341-6.461,7.839-13.594,7.839H880.64l0.05-0.606
						c0.001-0.022,0.164-2.216-1.098-3.585c-0.69-0.748-1.703-1.128-3.01-1.128c-2.507,0-3.861,2.054-4.261,3.812
						c-0.436,1.917,0.092,3.654,1.281,4.223c1.175,0.563,1.627,0.13,1.774-0.013c0.759-0.727,0.776-2.509,0.549-3.042l1.015-0.475
						c0.121,0.237,2.955,5.855,1.113,9.224c-0.75,1.372-2.138,2.165-4.125,2.358C873.648,577.317,873.382,577.33,873.131,577.33z"
          />
          <path
            fill="#AD8726"
            d="M834.671,630.169l-0.86-0.718L845,616.029v-10.157c0.643-3.544,2.668-6.444,4.628-9.249
						c1.937-2.772,3.767-5.391,3.632-7.939c-0.16-3.052-3.196-4.741-5.325-4.788c-0.706,0.005-2.349,0.136-2.518,1.872
						c-0.374,3.869,3.244,5.289,3.281,5.302l-0.396,1.048c-0.045-0.018-4.455-1.746-3.999-6.457
						c0.173-1.789,1.522-2.886,3.532-2.886c0.041,0,0.082,0.001,0.124,0.001c2.955,0.065,6.24,2.432,6.42,5.849
						c0.154,2.935-1.783,5.706-3.832,8.64c-1.893,2.707-3.848,5.506-4.437,8.709l0.009,10.461L834.671,630.169z"
          />
        </g>
      </g>
      <g>
        <g>
          <path
            fill="#AD8726"
            d="M859.492,813.741H841.36V710.145h1.119v102.477h14.385l-10.079-10.499h1.313
						c0.031-0.004,1.428-0.165,5.82-3.524c1.986-1.518,2.651-3.816,3.358-6.251c0.903-3.122,1.929-6.661,5.918-9.221
						c1.896-1.217,4.779-1.054,7.013,0.394c2.266,1.468,3.338,3.813,2.943,6.438c-0.579,3.837-3.146,5.2-5.382,5.2
						c-0.023,0-0.046,0-0.069,0c-2.249-0.028-4.115-1.397-4.338-3.184c-0.38-3.043,1.569-4.386,2.653-4.671l0.285,1.082
						l-0.144-0.541l0.146,0.54c-0.09,0.025-2.181,0.64-1.83,3.449c0.152,1.216,1.575,2.184,3.241,2.204c0.018,0,0.035,0,0.053,0
						c1.769,0,3.805-1.112,4.275-4.247c0.327-2.169-0.563-4.112-2.444-5.331c-1.877-1.215-4.262-1.378-5.798-0.391
						c-3.637,2.333-4.558,5.515-5.449,8.59c-0.758,2.616-1.474,5.086-3.752,6.83c-2.821,2.156-4.508,3.077-5.461,3.469
						L859.492,813.741z"
          />
          <path
            fill="#AD8726"
            d="M897.312,820.741h-23.396l-19.131-18.01l1.441,0.021c0.022,0,0.044,0,0.065,0
						c4.444,0,7.577-6.541,7.609-6.607l0.475-1.007l0.525,0.98c0.404,0.755,1.517,1.445,2.833,1.76
						c1.69,0.4,3.417,0.145,4.615-0.694c2.484-1.736,1.94-5.224,1.936-5.258l1.104-0.185c0.028,0.172,0.658,4.223-2.398,6.361
						c-1.479,1.033-3.489,1.349-5.518,0.864c-1.233-0.295-2.285-0.849-2.977-1.545c-0.951,1.706-3.463,5.574-7.002,6.323
						l16.864,15.876h22.952V820.741z"
          />
          <polygon
            fill="#AD8726"
            points="871.462,818.221 833.681,818.221 833.681,696.985 834.8,696.985 834.8,817.102 
						871.462,817.102 					"
          />
          <path
            fill="#AD8726"
            d="M919.399,820.741h-9.057l-0.168-0.23c-0.055-0.075-5.654-7.609-12.863-7.609h-15.497
						c-0.028,0.892-0.247,2.577-1.394,3.824c-0.911,0.992-2.203,1.495-3.839,1.495c-3.167,0-4.862-2.522-5.353-4.684
						c-0.551-2.431,0.226-4.685,1.89-5.48c1.551-0.739,2.505-0.292,3.034,0.216c0.366,0.352,0.619,0.822,0.782,1.328
						c0.564-1.77,1.003-4.106,0.136-5.692c-0.57-1.04-1.633-1.622-3.251-1.778c-1.786-0.179-3.118,0.328-3.752,1.412
						c-0.536,0.914-0.433,1.973-0.063,2.506c0.281,0.401,0.592,0.347,0.692,0.33l0.194,1.103c-0.712,0.13-1.368-0.163-1.807-0.794
						c-0.678-0.977-0.671-2.537,0.016-3.711c0.503-0.858,1.799-2.253,4.827-1.961c1.987,0.193,3.375,0.986,4.125,2.357
						c1.842,3.369-0.992,8.987-1.113,9.225l-1.015-0.475c0.228-0.533,0.21-2.315-0.549-3.042c-0.147-0.143-0.6-0.576-1.774-0.013
						c-1.189,0.568-1.717,2.306-1.281,4.223c0.399,1.757,1.754,3.812,4.261,3.812c1.311,0,2.324-0.382,3.014-1.134
						c1.266-1.378,1.095-3.557,1.094-3.578l-0.052-0.608h16.674c7.133,0,12.552,6.499,13.594,7.84h8.494V820.741z"
          />
          <path
            fill="#AD8726"
            d="M847.835,795.531c-2.011,0-3.359-1.098-3.532-2.887c-0.456-4.71,3.954-6.439,3.999-6.457l0.398,1.047
						c-0.15,0.059-3.654,1.455-3.283,5.304c0.169,1.736,1.812,1.879,2.518,1.872c2.129-0.047,5.165-1.736,5.325-4.788
						c0.135-2.55-1.695-5.168-3.632-7.94c-1.96-2.804-3.985-5.704-4.618-9.147L845,762.277l-11.189-13.424l0.86-0.717l11.448,13.735
						v10.562c0.58,3.103,2.535,5.9,4.428,8.607c2.049,2.935,3.986,5.706,3.832,8.64c-0.18,3.418-3.465,5.783-6.42,5.85
						C847.917,795.53,847.876,795.531,847.835,795.531z"
          />
        </g>
        <g>
          <path
            fill="#AD8726"
            d="M1008.546,813.741h-18.133l10.355-10.784c-0.954-0.392-2.641-1.313-5.461-3.469
						c-2.278-1.744-2.995-4.214-3.752-6.83c-0.893-3.075-1.813-6.257-5.449-8.59c-1.537-0.986-3.922-0.824-5.798,0.391
						c-1.882,1.219-2.771,3.162-2.445,5.331c0.472,3.134,2.509,4.247,4.275,4.247c0.019,0,0.036,0,0.054,0
						c1.666-0.021,3.089-0.988,3.24-2.204c0.354-2.84-1.736-3.424-1.826-3.448l0.284-1.082c1.085,0.285,3.034,1.628,2.653,4.671
						c-0.223,1.786-2.089,3.155-4.337,3.184c-0.023,0-0.046,0-0.07,0c-2.235,0-4.803-1.363-5.381-5.2
						c-0.396-2.624,0.679-4.97,2.942-6.438c2.234-1.449,5.116-1.61,7.013-0.394c3.989,2.56,5.015,6.099,5.92,9.221
						c0.705,2.435,1.371,4.733,3.357,6.251c4.393,3.359,5.788,3.521,5.847,3.525l1.159,0.105l-0.782,0.842l-9.169,9.551h14.384
						V710.145h1.119V813.741z"
          />
          <path
            fill="#AD8726"
            d="M975.991,820.741h-23.396v-1.12h22.953l16.862-15.876c-3.539-0.749-6.05-4.617-7.001-6.323
						c-0.691,0.696-1.742,1.25-2.977,1.545c-2.027,0.484-4.038,0.169-5.517-0.864c-3.058-2.139-2.427-6.189-2.398-6.361l1.105,0.183
						c-0.007,0.035-0.538,3.531,1.934,5.26c1.198,0.839,2.925,1.095,4.615,0.694c1.316-0.314,2.43-1.005,2.833-1.76l0.526-0.98
						l0.475,1.007c0.031,0.066,3.165,6.607,7.61,6.607c0.021,0,0.042,0,0.063,0l1.442-0.021L975.991,820.741z"
          />
          <polygon
            fill="#AD8726"
            points="1016.226,818.221 978.446,818.221 978.446,817.102 1015.106,817.102 1015.106,696.985 
						1016.226,696.985 					"
          />
          <path
            fill="#AD8726"
            d="M939.563,820.741h-9.056v-1.12h8.493c1.043-1.341,6.463-7.84,13.594-7.84h16.672l-0.049,0.607
						c-0.001,0.021-0.164,2.216,1.097,3.585c0.691,0.748,1.704,1.128,3.011,1.128c2.506,0,3.861-2.055,4.26-3.812
						c0.436-1.917-0.092-3.654-1.281-4.223c-1.175-0.563-1.626-0.13-1.774,0.013c-0.758,0.727-0.776,2.509-0.549,3.042l-1.014,0.475
						c-0.122-0.237-2.956-5.855-1.114-9.225c0.75-1.371,2.139-2.164,4.125-2.357c3.031-0.278,4.324,1.104,4.827,1.961
						c0.688,1.174,0.694,2.734,0.016,3.711c-0.438,0.631-1.094,0.924-1.806,0.794l0.194-1.103c0.102,0.017,0.412,0.071,0.692-0.33
						c0.37-0.533,0.474-1.592-0.063-2.506c-0.635-1.084-1.965-1.591-3.752-1.412c-1.619,0.156-2.682,0.738-3.25,1.778
						c-0.869,1.586-0.43,3.923,0.135,5.692c0.162-0.506,0.416-0.977,0.782-1.328c0.529-0.508,1.484-0.955,3.033-0.216
						c1.664,0.796,2.441,3.05,1.891,5.48c-0.49,2.161-2.187,4.684-5.353,4.684c-1.637,0-2.928-0.503-3.84-1.495
						c-1.145-1.247-1.363-2.933-1.394-3.824h-15.497c-7.22,0-12.808,7.533-12.863,7.609L939.563,820.741z"
          />
          <path
            fill="#AD8726"
            d="M1002.072,795.531c-0.042,0-0.083-0.001-0.125-0.001c-2.955-0.066-6.239-2.432-6.42-5.85
						c-0.153-2.934,1.783-5.705,3.833-8.64c1.892-2.707,3.847-5.505,4.436-8.709l-0.009-10.46l11.448-13.735l0.861,0.717
						l-11.19,13.423v10.157c-0.642,3.544-2.668,6.444-4.628,9.248c-1.936,2.772-3.767,5.391-3.631,7.94
						c0.159,3.052,3.195,4.741,5.325,4.788c0.699,0.007,2.349-0.136,2.517-1.872c0.374-3.87-3.244-5.289-3.281-5.303l0.398-1.048
						c0.043,0.018,4.453,1.747,3.998,6.457C1005.432,794.434,1004.082,795.531,1002.072,795.531z"
          />
        </g>
      </g>
    </g>
  </g>
</svg>