<svg
	version="1.1"
	id="zeta"
	xmlns="http://www.w3.org/2000/svg"
	viewBox="370 548 202 282"
>
	<g>
		<path
			fill="#030E4E"
			d="M572.111,558.123c0-5.565-4.513-10.077-10.078-10.077l0,0H380.608l0,0l0,0
			c-5.566,0-10.079,4.512-10.079,10.077l0,0v262.058c0,5.566,4.513,10.079,10.079,10.079c0.007,0,0.015,0,0.022,0h181.38
			c0.008,0,0.015,0,0.021,0c5.566,0,10.079-4.513,10.079-10.079V558.123L572.111,558.123z"
		/>
		<g>
			<path
				fill="#AD8726"
				d="M431.359,720.829c-3.942,0.001-7.741-1.24-10.84-3.704c-7.14-5.676-7.525-13.881-5.506-19.667
				c2.237-6.408,7.477-10.714,13.037-10.714c4.98,0,9.059,2.227,11.189,6.108c1.853,3.374,1.876,7.401,0.058,10.26
				c-2.188,3.438-6.958,4.168-10.305,2.886c-2.675-1.024-4.027-3.104-3.617-5.563c0.308-1.847,1.117-3.202,2.405-4.03
				c2.276-1.459,5.19-0.697,5.313-0.663c0.299,0.079,0.476,0.387,0.395,0.686c-0.08,0.297-0.387,0.47-0.685,0.396
				c-0.026-0.006-2.57-0.665-4.423,0.528c-1.008,0.649-1.647,1.749-1.9,3.268c-0.454,2.73,1.887,3.94,2.914,4.335
				c2.926,1.122,7.077,0.515,8.959-2.442c1.602-2.518,1.564-6.098-0.095-9.12c-1.929-3.512-5.649-5.526-10.208-5.526
				c-5.085,0-9.899,4.004-11.979,9.963c-1.893,5.423-1.535,13.11,5.145,18.421c5.499,4.372,13.378,4.62,20.075,0.637
				c5.615-3.342,11.025-10.269,9.365-19.689c-0.054-0.305,0.149-0.595,0.454-0.648c0.303-0.061,0.596,0.149,0.648,0.454
				c1.76,9.981-3.958,17.313-9.896,20.846C438.514,719.84,434.88,720.829,431.359,720.829z"
			/>
			<path
				fill="#AD8726"
				d="M432.759,715.507c-1.028,0-1.91-0.209-2.564-0.636c-4.17-2.719-2.046-6.183-2.023-6.218
				c0.165-0.261,0.512-0.337,0.772-0.174c0.261,0.165,0.339,0.511,0.175,0.771c-0.164,0.267-1.48,2.616,1.688,4.682
				c1.375,0.899,4.436,0.435,7.447-1.121c2.158-1.115,9.227-5.455,9.578-14.491c0.012-0.309,0.281-0.53,0.581-0.537
				c0.31,0.012,0.55,0.271,0.538,0.581c-0.376,9.641-7.89,14.257-10.184,15.442C436.604,714.925,434.476,715.507,432.759,715.507z"
			/>
			<path
				fill="#AD8726"
				d="M442.392,728.238c-3.611,0-6.234-2.032-6.362-2.133c-0.158-0.126-0.237-0.326-0.206-0.525
				c0.031-0.2,0.166-0.367,0.355-0.438c17.91-6.753,19.668-21.896,17.72-27.766c-0.098-0.293,0.062-0.61,0.354-0.708
				c0.297-0.1,0.61,0.062,0.708,0.355c2.016,6.075,0.342,21.537-17.361,28.764c1.24,0.697,3.67,1.734,6.472,1.162
				c3.213-0.658,6.061-3.212,8.464-7.592c0.149-0.271,0.488-0.372,0.761-0.223c0.271,0.149,0.37,0.489,0.222,0.761
				c-2.573,4.688-5.681,7.433-9.237,8.154C443.628,728.182,442.995,728.238,442.392,728.238z"
			/>
			<path
				fill="#AD8726"
				d="M442.352,695.801c-0.017,0-0.034-0.001-0.052-0.002c-0.309-0.028-0.534-0.302-0.507-0.609
				c0.005-0.051,0.437-5.202-2.573-9.569c-2.322-3.37-7.268-5.846-12.598-6.305c-6.71-0.574-13.278,2.035-18.495,7.358
				c-0.216,0.223-0.57,0.223-0.792,0.008c-0.221-0.216-0.225-0.57-0.008-0.791c5.455-5.568,12.347-8.297,19.392-7.69
				c5.649,0.486,10.919,3.149,13.423,6.783c3.247,4.713,2.788,10.084,2.767,10.311C442.881,695.583,442.638,695.801,442.352,695.801
				z"
			/>
			<g>
				<g>
					<g>
						<path
							fill="#AD8726"
							d="M402.063,741.674c0.31,0,0.56,0.25,0.56,0.561v32.663c0,8.841,0.22,13.104,5.178,13.44
							c2.761,0.191,4.482-2.055,4.716-4.256c0.127-1.21-0.234-2.694-1.669-2.898c-0.746-0.109-1.735-0.121-2.228,0.416
							c-0.526,0.576-0.315,1.561-0.312,1.57c0.069,0.301-0.117,0.602-0.418,0.672c-0.31,0.07-0.603-0.117-0.674-0.418
							c-0.015-0.063-0.353-1.564,0.577-2.579c0.659-0.721,1.74-0.982,3.211-0.771c1.803,0.257,2.858,1.915,2.625,4.125
							c-0.285,2.722-2.404,5.499-5.905,5.257c-6.221-0.423-6.221-6.353-6.221-14.559v-32.663
							C401.503,741.924,401.753,741.674,402.063,741.674z"
						/>
					</g>
					<g>
						<path
							fill="#AD8726"
							d="M396.593,741.674c-0.31,0-0.56,0.25-0.56,0.561v32.663c0,8.841-0.22,13.104-5.178,13.44
							c-2.76,0.191-4.482-2.055-4.716-4.256c-0.127-1.21,0.234-2.694,1.669-2.898c0.746-0.109,1.736-0.121,2.229,0.416
							c0.525,0.576,0.314,1.561,0.312,1.57c-0.07,0.301,0.117,0.602,0.417,0.672c0.31,0.07,0.604-0.117,0.674-0.418
							c0.015-0.063,0.353-1.564-0.577-2.579c-0.659-0.721-1.74-0.982-3.211-0.771c-1.803,0.257-2.857,1.915-2.625,4.125
							c0.286,2.722,2.404,5.499,5.906,5.257c6.221-0.423,6.221-6.353,6.221-14.559v-32.663
							C397.153,741.924,396.902,741.674,396.593,741.674z"
						/>
					</g>
				</g>
				<path
					fill="#AD8726"
					d="M392.89,793.742c0.949,0.16,1.938-0.17,2.855-0.948c2.143-1.815,3.582-5.707,3.582-9.684
					c0,3.977,1.439,7.868,3.582,9.684c0.918,0.778,1.906,1.108,2.855,0.948c3.23-0.538,3.268-2.7,3.268-2.793l-1.12-0.011
					c-2.168,0.268-0.076,1.323-2.331,1.698c-0.771,0.132-1.486-0.307-1.948-0.698c-1.876-1.589-3.629-5.563-4.306-10.788
					c-0.677,5.226-2.43,9.199-4.306,10.788c-0.462,0.392-1.178,0.83-1.948,0.698c-2.255-0.375-0.162-1.431-2.331-1.698l-1.12,0.011
					C389.622,791.042,389.659,793.204,392.89,793.742z"
				/>
				<path
					fill="#AD8726"
					d="M398.207,794.945l-0.852,3.89l1.972,3.594l1.972-3.594l-0.852-3.89c1.026,3.05,3.732,1.335,3.732,1.335
					c-1.559-0.218-4.672-5.948-4.853-7.244c-0.181,1.296-3.294,7.026-4.853,7.244C394.475,796.28,397.181,797.995,398.207,794.945z"
				/>
			</g>
			<path
				fill="#AD8726"
				d="M414.617,634.645c-0.127,0-0.251-0.043-0.352-0.125c-0.132-0.106-0.209-0.266-0.209-0.436v-17.854
				c0-0.157,0.066-0.307,0.182-0.413c0.116-0.105,0.271-0.157,0.427-0.145c0.147,0.013,1.762,0.13,3.737-0.434
				c-6.021-6.392-18.012-10.054-25.489-8.896c-4.346,0.674-7.632,2.636-9.255,5.523c-1.285,2.288-1.392,4.997-0.3,7.629
				c1.377,3.322,4.669,4.543,7.309,4.288c1.924-0.189,3.329-1.118,3.578-2.367c0.669-3.341-2.261-4.982-2.291-4.999
				c-0.271-0.147-0.371-0.487-0.224-0.759c0.148-0.272,0.489-0.373,0.76-0.223c0.037,0.02,3.682,2.062,2.854,6.199
				c-0.349,1.745-2.142,3.024-4.567,3.263c-3.061,0.294-6.856-1.122-8.453-4.974c-1.226-2.956-1.098-6.012,0.359-8.606
				c1.794-3.193,5.367-5.354,10.06-6.082c8.063-1.251,20.625,2.639,26.818,9.603c2.312-0.949,4.815-2.931,5.992-7.035
				c1.504-5.25,0.266-11.377-3.08-15.249c-2.497-2.891-5.905-4.206-9.598-3.714c-1.803,0.243-3.02,1.023-3.518,2.257
				c-0.469,1.162-0.224,2.649,0.61,3.702c0.635,0.801,1.493,1.184,2.359,1.051c0.308-0.046,0.592,0.163,0.639,0.469
				s-0.163,0.592-0.469,0.639c-1.272,0.193-2.516-0.336-3.407-1.464c-1.092-1.379-1.395-3.269-0.771-4.816
				c0.647-1.605,2.213-2.651,4.407-2.946c4.077-0.556,7.841,0.903,10.594,4.091c3.583,4.146,4.912,10.692,3.309,16.29
				c-1.235,4.31-3.858,6.492-6.344,7.593c0.366,0.467,0.704,0.947,1.011,1.439c2.208,3.546,2.618,7.399,1.156,10.851
				c-1.406,3.323-4.437,5.928-7.717,6.637C414.696,634.64,414.656,634.645,414.617,634.645z M415.177,616.801v16.559
				c2.67-0.825,5.073-3.036,6.244-5.801c0.931-2.198,1.5-5.687-1.075-9.822c-0.344-0.553-0.731-1.088-1.16-1.609
				C417.494,616.688,415.98,616.792,415.177,616.801z"
			/>
			<path
				fill="#AD8726"
				d="M396.61,744.77c-0.31,0-0.56-0.251-0.56-0.561V585.214c-1.689,0.513-5.979,1.705-10.018,1.969
				c2.472,1.659,6.93,5.186,7.202,9.186c0.18,2.646-0.966,3.256-1.665,3.383c-1.367,0.249-3.021-0.98-3.365-2.124
				c-0.088-0.295,0.079-0.607,0.375-0.696c0.301-0.092,0.608,0.079,0.698,0.375c0.194,0.646,1.348,1.461,2.092,1.344
				c0.771-0.141,0.799-1.441,0.747-2.204c-0.328-4.83-8.158-9.239-8.238-9.284c-0.224-0.125-0.335-0.386-0.268-0.635
				c0.066-0.248,0.311-0.402,0.551-0.414c5.313,0.092,12.203-2.169,12.272-2.191c0.171-0.055,0.358-0.027,0.504,0.077
				c0.146,0.105,0.232,0.274,0.232,0.454v159.757C397.171,744.519,396.92,744.77,396.61,744.77z"
			/>
			<path
				fill="#AD8726"
				d="M402.053,744.77c-0.31,0-0.56-0.251-0.56-0.561V581.881c0-0.271,0.193-0.502,0.459-0.551
				c0.188-0.034,18.937-3.683,29.568-23.47c0.121-0.227,0.383-0.341,0.63-0.279c0.249,0.063,0.423,0.286,0.423,0.544v49.177
				c0,0.004,0,0.009,0,0.013c0,0.002,0,0.002,0,0.002l0,0c0,0.007,0,0.014-0.001,0.021l0,0c0,0.004,0,0.009-0.001,0.013
				c-0.024,0.286-0.265,0.511-0.558,0.511c-0.309,0-0.56-0.25-0.56-0.559v-0.001c0-0.188-0.173-18.842-13.967-22.714
				c-3.906-1.096-7.444-0.453-9.71,1.76c-2.227,2.177-2.959,5.553-2.009,9.264c0.897,3.503,3.004,4.531,4.612,4.776
				c2.7,0.411,5.636-1.122,6.681-2.812c0.164-0.264,0.51-0.343,0.771-0.183c0.264,0.163,0.345,0.508,0.183,0.771
				c-1.228,1.986-4.562,3.824-7.803,3.33c-2.746-0.419-4.709-2.409-5.528-5.604c-1.053-4.109-0.21-7.879,2.312-10.343
				c2.559-2.5,6.493-3.244,10.795-2.037c8.526,2.394,12.137,10.026,13.664,16.009v-39.263
				c-10.053,16.981-25.945,21.397-28.841,22.075v161.878C402.613,744.519,402.362,744.77,402.053,744.77z"
			/>
			<path
				fill="#AD8726"
				d="M407.727,686.842c-0.309,0-0.56-0.25-0.56-0.56v-75.151c0-0.258,0.175-0.481,0.425-0.544
				c11.56-2.886,11.682-6.286,11.682-6.32c-0.001-0.301,0.235-0.56,0.536-0.571c0.287-0.045,0.557,0.203,0.581,0.503
				c0.035,0.432-0.019,4.264-12.104,7.367v74.717C408.287,686.592,408.036,686.842,407.727,686.842z"
			/>
			<path
				fill="#AD8726"
				d="M448.129,732.508c-0.101,0-0.201-0.025-0.291-0.08c-2.421-1.468-2.287-4.503-1.879-5.902
				c0.087-0.296,0.395-0.467,0.693-0.38c0.297,0.085,0.468,0.396,0.383,0.693c-0.036,0.125-0.814,2.929,1.051,4.4
				c0.694-0.622,2.386-2.185,3.86-3.925c8.09-9.549,9.279-24.991,9.291-25.146c0.021-0.307,0.276-0.55,0.598-0.519
				c0.309,0.022,0.541,0.29,0.519,0.599c-0.046,0.647-1.229,15.965-9.554,25.791c-1.958,2.312-4.211,4.253-4.307,4.335
				C448.39,732.463,448.26,732.508,448.129,732.508z"
			/>
			<path
				fill="#AD8726"
				d="M471.332,740.648c-0.056,0-0.112-0.009-0.167-0.025c-0.27-0.084-6.605-2.109-7.308-6.228
				c-0.359-2.1-0.13-4.54,0.169-6.381c-1.855,2.31-5.383,5.63-11.058,7.018c-0.206,0.052-0.425-0.021-0.562-0.184
				c-0.138-0.164-0.169-0.392-0.083-0.586c0.029-0.068,2.982-6.788,3.296-12.333c0.017-0.309,0.282-0.555,0.591-0.527
				c0.309,0.018,0.544,0.282,0.527,0.591c-0.253,4.463-2.079,9.49-2.943,11.651c7.617-2.34,10.828-8.491,10.861-8.556
				c0.13-0.256,0.433-0.374,0.7-0.268c0.268,0.103,0.414,0.392,0.339,0.669c-0.014,0.051-1.359,5.061-0.734,8.718
				c0.463,2.712,4.205,4.453,5.812,5.082v-74.96c0-0.31,0.25-0.56,0.56-0.56s0.56,0.25,0.56,0.56v75.758
				c0,0.179-0.084,0.346-0.228,0.452C471.566,740.611,471.45,740.648,471.332,740.648z"
			/>
			<path
				fill="#AD8726"
				d="M460.255,726.416c-0.078,0-0.157-0.017-0.232-0.052c-0.281-0.129-0.405-0.462-0.276-0.743
				c0.105-0.229,10.391-22.948,0.901-29.377c-8.219-5.568-14.232,1.043-14.483,1.326c-0.205,0.232-0.558,0.253-0.79,0.049
				c-0.231-0.205-0.254-0.559-0.05-0.79c0.069-0.076,6.906-7.64,15.95-1.513c10.272,6.958-0.065,29.805-0.51,30.773
				C460.67,726.294,460.467,726.416,460.255,726.416z"
			/>
			<path
				fill="#AD8726"
				d="M514.568,691.561c-4.98,0-9.06-2.227-11.19-6.107c-1.853-3.374-1.875-7.402-0.057-10.26
				c2.188-3.438,6.958-4.168,10.304-2.886c2.675,1.024,4.027,3.104,3.618,5.563c-0.308,1.847-1.117,3.202-2.405,4.029
				c-2.275,1.461-5.189,0.698-5.313,0.664c-0.298-0.08-0.475-0.387-0.395-0.686c0.081-0.298,0.387-0.472,0.686-0.396
				c0.026,0.01,2.57,0.667,4.423-0.527c1.007-0.65,1.646-1.749,1.9-3.269c0.454-2.729-1.887-3.94-2.914-4.334
				c-2.925-1.12-7.077-0.513-8.959,2.442c-1.603,2.518-1.564,6.097,0.094,9.12c1.929,3.512,5.649,5.526,10.209,5.526
				c5.085,0,9.898-4.004,11.979-9.964c1.894-5.422,1.536-13.109-5.145-18.42c-5.498-4.374-13.378-4.622-20.074-0.637
				c-5.616,3.341-11.025,10.269-9.366,19.689c0.055,0.305-0.149,0.595-0.453,0.648c-0.304,0.061-0.596-0.15-0.649-0.454
				c-1.759-9.981,3.959-17.313,9.896-20.846c7.101-4.226,15.478-3.943,21.344,0.722c7.139,5.676,7.524,13.88,5.505,19.667
				C525.368,687.255,520.129,691.561,514.568,691.561z"
			/>
			<path
				fill="#AD8726"
				d="M494.229,680.522c-0.008,0-0.015,0-0.022,0c-0.309-0.012-0.549-0.272-0.537-0.582
				c0.376-9.64,7.889-14.257,10.183-15.442c3.459-1.785,6.823-2.202,8.573-1.063c4.169,2.719,2.045,6.183,2.023,6.217
				c-0.165,0.262-0.51,0.339-0.772,0.175c-0.261-0.166-0.339-0.512-0.175-0.771c0.164-0.267,1.48-2.616-1.688-4.682
				c-1.372-0.897-4.436-0.435-7.447,1.121c-2.158,1.115-9.227,5.455-9.578,14.49C494.776,680.286,494.528,680.522,494.229,680.522z"
			/>
			<path
				fill="#AD8726"
				d="M488.189,681.666c-0.235,0-0.454-0.149-0.532-0.385c-2.016-6.075-0.342-21.537,17.362-28.763
				c-1.241-0.698-3.67-1.732-6.472-1.162c-3.213,0.658-6.061,3.212-8.465,7.592c-0.148,0.271-0.487,0.371-0.761,0.222
				c-0.271-0.148-0.37-0.488-0.221-0.76c2.573-4.688,5.681-7.433,9.236-8.154c4.556-0.921,8.103,1.827,8.252,1.944
				c0.158,0.126,0.236,0.326,0.206,0.525c-0.031,0.2-0.167,0.367-0.356,0.438c-17.91,6.753-19.667,21.895-17.719,27.766
				c0.098,0.293-0.062,0.61-0.355,0.707C488.307,681.657,488.248,681.666,488.189,681.666z"
			/>
			<path
				fill="#AD8726"
				d="M517.832,700.188c-0.642,0-1.286-0.027-1.932-0.083c-5.65-0.486-10.919-3.149-13.423-6.784
				c-3.247-4.712-2.788-10.083-2.768-10.31c0.028-0.308,0.298-0.532,0.609-0.505c0.308,0.028,0.534,0.302,0.506,0.608
				c-0.005,0.052-0.436,5.203,2.574,9.57c2.322,3.37,7.267,5.846,12.597,6.305c6.709,0.578,13.279-2.035,18.496-7.358
				c0.217-0.223,0.57-0.223,0.792-0.009c0.221,0.217,0.224,0.571,0.008,0.792C530.337,697.472,524.2,700.188,517.832,700.188z"
			/>
			<g>
				<g>
					<g>
						<path
							fill="#AD8726"
							d="M540.557,636.631c-0.31,0-0.561-0.249-0.561-0.56v-32.663c0-8.841-0.22-13.104-5.177-13.441
							c-2.761-0.19-4.483,2.056-4.716,4.257c-0.127,1.21,0.233,2.694,1.669,2.898c0.745,0.109,1.735,0.121,2.228-0.417
							c0.526-0.575,0.314-1.56,0.312-1.569c-0.07-0.301,0.117-0.602,0.418-0.673c0.31-0.069,0.603,0.117,0.674,0.418
							c0.014,0.063,0.352,1.565-0.578,2.58c-0.659,0.721-1.739,0.982-3.211,0.77c-1.802-0.257-2.857-1.914-2.624-4.125
							c0.285-2.721,2.403-5.499,5.905-5.256c6.221,0.422,6.221,6.352,6.221,14.559v32.663
							C541.116,636.382,540.866,636.631,540.557,636.631z"
						/>
					</g>
					<g>
						<path
							fill="#AD8726"
							d="M546.025,636.631c0.31,0,0.561-0.249,0.561-0.56v-32.663c0-8.841,0.22-13.104,5.177-13.441
							c2.761-0.19,4.483,2.056,4.716,4.257c0.127,1.21-0.233,2.694-1.669,2.898c-0.745,0.109-1.735,0.121-2.228-0.417
							c-0.526-0.575-0.314-1.56-0.312-1.569c0.07-0.301-0.117-0.602-0.418-0.673c-0.31-0.069-0.603,0.117-0.674,0.418
							c-0.014,0.063-0.352,1.565,0.578,2.58c0.659,0.721,1.739,0.982,3.211,0.77c1.802-0.257,2.857-1.914,2.624-4.125
							c-0.285-2.721-2.403-5.499-5.905-5.256c-6.221,0.422-6.221,6.352-6.221,14.559v32.663
							C545.466,636.382,545.716,636.631,546.025,636.631z"
						/>
					</g>
				</g>
				<path
					fill="#AD8726"
					d="M549.729,584.563c-0.949-0.161-1.937,0.17-2.855,0.948c-2.143,1.815-3.581,5.707-3.581,9.684
					c0-3.977-1.439-7.868-3.582-9.684c-0.919-0.778-1.906-1.109-2.855-0.948c-3.23,0.538-3.268,2.7-3.268,2.792l1.119,0.011
					c2.169-0.267,0.077-1.323,2.332-1.698c0.77-0.131,1.486,0.308,1.948,0.699c1.875,1.589,3.628,5.563,4.306,10.787
					c0.677-5.225,2.43-9.198,4.306-10.787c0.461-0.392,1.178-0.83,1.947-0.699c2.255,0.375,0.163,1.432,2.332,1.698l1.12-0.011
					C552.997,587.264,552.959,585.102,549.729,584.563z"
				/>
				<path
					fill="#AD8726"
					d="M544.411,583.36l0.853-3.89l-1.972-3.594l-1.973,3.594l0.853,3.89c-1.027-3.05-3.732-1.335-3.732-1.335
					c1.558,0.218,4.672,5.948,4.853,7.244c0.18-1.296,3.294-7.026,4.853-7.244C548.145,582.025,545.438,580.311,544.411,583.36z"
				/>
			</g>
			<path
				fill="#AD8726"
				d="M528.222,790.688c-3.429,0-6.551-1.458-8.923-4.204c-3.583-4.146-4.912-10.692-3.309-16.29
				c1.234-4.31,3.857-6.493,6.344-7.593c-0.367-0.468-0.705-0.947-1.011-1.439c-2.208-3.546-2.618-7.399-1.157-10.852
				c1.407-3.322,4.437-5.928,7.718-6.636c0.163-0.037,0.338,0.003,0.47,0.111c0.132,0.106,0.208,0.266,0.208,0.436v17.854
				c0,0.156-0.066,0.307-0.182,0.412c-0.115,0.106-0.272,0.153-0.426,0.146c-0.149-0.014-1.763-0.131-3.737,0.434
				c6.021,6.392,18.014,10.055,25.488,8.896c4.346-0.674,7.633-2.636,9.255-5.524c1.285-2.287,1.392-4.996,0.301-7.628
				c-1.377-3.322-4.668-4.544-7.31-4.288c-1.923,0.189-3.328,1.118-3.578,2.366c-0.668,3.342,2.262,4.983,2.291,4.999
				c0.272,0.148,0.372,0.488,0.224,0.76c-0.147,0.272-0.489,0.374-0.759,0.223c-0.037-0.02-3.682-2.062-2.854-6.2
				c0.349-1.744,2.142-3.023,4.566-3.262c3.06-0.291,6.856,1.122,8.453,4.974c1.227,2.956,1.099,6.012-0.358,8.606
				c-1.794,3.193-5.367,5.353-10.06,6.081c-8.059,1.255-20.625-2.638-26.819-9.602c-2.312,0.949-4.815,2.931-5.991,7.035
				c-1.504,5.249-0.267,11.377,3.08,15.249c2.497,2.892,5.906,4.206,9.597,3.714c1.803-0.243,3.02-1.023,3.518-2.258
				c0.469-1.161,0.224-2.648-0.609-3.702c-0.635-0.801-1.499-1.189-2.359-1.051c-0.313,0.043-0.593-0.163-0.639-0.468
				c-0.047-0.307,0.162-0.592,0.468-0.639c1.27-0.19,2.517,0.337,3.408,1.463c1.092,1.38,1.395,3.27,0.771,4.816
				c-0.648,1.605-2.213,2.652-4.407,2.946C529.329,790.651,528.771,790.688,528.222,790.688z M527.441,744.946
				c-2.67,0.825-5.073,3.036-6.244,5.801c-0.931,2.198-1.499,5.686,1.076,9.822c0.343,0.552,0.731,1.088,1.159,1.608
				c1.692-0.561,3.205-0.665,4.009-0.674V744.946z"
			/>
			<path
				fill="#AD8726"
				d="M546.008,794.413c-0.116,0-0.23-0.036-0.328-0.105c-0.146-0.105-0.231-0.274-0.231-0.454V634.096
				c0-0.309,0.25-0.56,0.56-0.56s0.561,0.251,0.561,0.56v158.995c1.689-0.512,5.979-1.705,10.018-1.968
				c-2.472-1.659-6.93-5.186-7.202-9.187c-0.18-2.646,0.966-3.255,1.664-3.382c1.366-0.246,3.021,0.979,3.365,2.123
				c0.089,0.296-0.079,0.608-0.375,0.697c-0.301,0.088-0.608-0.08-0.697-0.375c-0.194-0.646-1.351-1.464-2.093-1.345
				c-0.771,0.142-0.799,1.441-0.746,2.205c0.327,4.829,8.158,9.239,8.237,9.284c0.225,0.125,0.335,0.386,0.269,0.634
				c-0.066,0.249-0.297,0.442-0.551,0.415c-5.315-0.105-12.203,2.17-12.272,2.191C546.127,794.403,546.067,794.413,546.008,794.413z
				"
			/>
			<path
				fill="#AD8726"
				d="M510.605,820.741c-0.046,0-0.092-0.006-0.137-0.017c-0.249-0.063-0.424-0.287-0.424-0.544v-49.177
				c0-0.005,0-0.009,0-0.014c0-0.001,0-0.001,0-0.001l0,0c0.001-0.008,0.001-0.014,0.001-0.021l0,0
				c0.001-0.005,0.001-0.009,0.001-0.014c0.025-0.285,0.266-0.511,0.559-0.511c0.309,0,0.559,0.251,0.56,0.56v0.001
				c0,0.188,0.172,18.841,13.967,22.714c3.906,1.097,7.444,0.455,9.71-1.76c2.227-2.178,2.959-5.554,2.008-9.265
				c-0.897-3.503-3.003-4.53-4.612-4.775c-2.703-0.41-5.636,1.121-6.681,2.812c-0.163,0.265-0.508,0.345-0.771,0.183
				c-0.263-0.163-0.344-0.509-0.182-0.771c1.227-1.986,4.557-3.833,7.802-3.331c2.746,0.419,4.71,2.41,5.528,5.605
				c1.053,4.108,0.211,7.879-2.311,10.343c-2.559,2.501-6.491,3.243-10.796,2.037c-8.526-2.394-12.136-10.026-13.663-16.009v39.262
				c10.053-16.98,25.944-21.396,28.841-22.075V634.096c0-0.309,0.25-0.56,0.56-0.56s0.561,0.251,0.561,0.56v162.329
				c0,0.27-0.194,0.502-0.46,0.551c-0.188,0.034-18.936,3.683-29.567,23.47C510.999,820.63,510.808,820.741,510.605,820.741z"
			/>
			<path
				fill="#AD8726"
				d="M522.784,774.611c-0.289,0-0.533-0.213-0.557-0.504c-0.034-0.432,0.02-4.264,12.104-7.368v-74.716
				c0-0.31,0.25-0.56,0.56-0.56s0.561,0.25,0.561,0.56v75.151c0,0.257-0.176,0.481-0.425,0.544
				c-11.56,2.886-11.682,6.286-11.682,6.32c0.001,0.301-0.235,0.56-0.536,0.571C522.801,774.611,522.793,774.611,522.784,774.611z"
			/>
			<path
				fill="#AD8726"
				d="M480.824,676.656c-0.014,0-0.027,0-0.041-0.001c-0.309-0.021-0.541-0.29-0.519-0.598
				c0.046-0.647,1.229-15.966,9.554-25.791c1.958-2.312,4.212-4.253,4.307-4.335c0.185-0.155,0.449-0.18,0.655-0.054
				c2.422,1.468,2.288,4.503,1.879,5.902c-0.087,0.296-0.392,0.467-0.693,0.38c-0.296-0.086-0.468-0.396-0.382-0.693
				c0.036-0.125,0.814-2.929-1.051-4.401c-0.694,0.623-2.386,2.186-3.86,3.926c-8.091,9.548-9.279,24.99-9.291,25.146
				C481.361,676.432,481.115,676.656,480.824,676.656z"
			/>
			<path
				fill="#AD8726"
				d="M471.287,714.535c-0.31,0-0.561-0.25-0.561-0.56v-75.759c0-0.178,0.085-0.346,0.229-0.451
				c0.143-0.105,0.327-0.135,0.499-0.083c0.269,0.084,6.605,2.109,7.308,6.227c0.358,2.101,0.129,4.541-0.169,6.382
				c1.854-2.31,5.383-5.63,11.057-7.018c0.206-0.052,0.425,0.021,0.563,0.184c0.137,0.164,0.169,0.392,0.082,0.586
				c-0.029,0.067-2.981,6.788-3.295,12.333c-0.018,0.309-0.285,0.563-0.591,0.527c-0.309-0.018-0.545-0.282-0.527-0.591
				c0.252-4.463,2.079-9.49,2.943-11.651c-7.617,2.34-10.828,8.491-10.861,8.556c-0.131,0.255-0.434,0.375-0.701,0.268
				c-0.268-0.103-0.414-0.392-0.338-0.669c0.014-0.051,1.359-5.061,0.734-8.718c-0.463-2.712-4.205-4.453-5.812-5.082v74.96
				C471.847,714.285,471.597,714.535,471.287,714.535z"
			/>
			<path
				fill="#AD8726"
				d="M488.498,685.382c-2.129,0-4.55-0.629-7.154-2.393c-10.271-6.958,0.065-29.805,0.511-30.773
				c0.129-0.279,0.463-0.403,0.742-0.274c0.281,0.129,0.404,0.461,0.275,0.742c-0.104,0.229-10.39,22.949-0.9,29.378
				c8.216,5.566,14.23-1.043,14.483-1.327c0.205-0.229,0.559-0.252,0.79-0.048c0.231,0.205,0.254,0.558,0.049,0.79
				C497.245,681.531,493.765,685.382,488.498,685.382z"
			/>
			<path
				fill="#AD8726"
				d="M446.024,697.674c-0.238,0-0.459-0.153-0.534-0.392c-0.824-2.621-1.242-5.354-1.242-8.128
				c0-14.922,12.14-27.062,27.062-27.062c0.309,0,0.56,0.25,0.56,0.56s-0.251,0.561-0.56,0.561
				c-14.305,0-25.941,11.637-25.941,25.941c0,2.658,0.4,5.279,1.19,7.791c0.093,0.295-0.071,0.61-0.366,0.702
				C446.137,697.665,446.08,697.674,446.024,697.674z"
			/>
			<path
				fill="#AD8726"
				d="M471.31,716.214c-0.31,0-0.561-0.25-0.561-0.56s0.251-0.561,0.561-0.561
				c14.304,0,25.94-11.636,25.94-25.939c0-2.659-0.4-5.28-1.19-7.793c-0.093-0.295,0.071-0.61,0.366-0.702
				c0.297-0.095,0.609,0.072,0.702,0.365c0.824,2.622,1.242,5.357,1.242,8.13C498.37,704.074,486.23,716.214,471.31,716.214z"
			/>
			<path
				fill="#AD8726"
				d="M415.826,678.301c-0.037,0-0.074-0.004-0.112-0.012c-0.303-0.062-0.499-0.358-0.437-0.661
				c5.415-26.462,28.979-45.669,56.032-45.669c0.309,0,0.56,0.251,0.56,0.561c0,0.309-0.251,0.56-0.56,0.56
				c-26.523,0-49.627,18.83-54.936,44.774C416.32,678.118,416.087,678.301,415.826,678.301z"
			/>
			<path
				fill="#AD8726"
				d="M471.31,746.348c-0.31,0-0.561-0.251-0.561-0.561s0.251-0.56,0.561-0.56
				c26.522,0,49.626-18.831,54.934-44.774c0.062-0.303,0.359-0.497,0.66-0.437c0.304,0.063,0.499,0.359,0.437,0.662
				C521.926,727.141,498.361,746.348,471.31,746.348z"
			/>
			<path
				fill="#AD8726"
				d="M528.002,762.637c-0.167,0-0.332-0.075-0.442-0.217L414.175,616.572
				c-0.189-0.243-0.146-0.596,0.099-0.785c0.244-0.191,0.597-0.146,0.785,0.099l113.385,145.847c0.19,0.244,0.146,0.597-0.099,0.785
				C528.243,762.598,528.122,762.637,528.002,762.637z"
			/>
			<path
				fill="#AD8726"
				d="M562.033,820.741H380.607c-0.31,0-0.56-0.251-0.56-0.561v-26.399c0-0.304,0.243-0.553,0.546-0.56
				c0.332-0.009,0.56,0.229,0.573,0.532c0.007,0.149,0.783,15.015,6.261,18.548c2.109,1.361,3.832,1.339,4.85-0.06
				c0.958-1.314,0.849-3.271,0.092-3.889c-0.183-0.15-0.252-0.398-0.173-0.622c0.08-0.223,0.291-0.371,0.527-0.371h109.563
				c0.31,0,0.561,0.25,0.561,0.56s-0.251,0.56-0.561,0.56H393.796c0.536,1.273,0.34,3.114-0.613,4.422
				c-0.517,0.711-2.504,2.832-6.362,0.342c-3.025-1.952-4.717-6.769-5.652-11.122v17.5h180.305v-21.368
				c-20.749,1.466-30.938,9.053-33.918,11.72h20.462v-4.479c0-0.31,0.25-0.56,0.56-0.56s0.56,0.25,0.56,0.56v5.039
				c0,0.31-0.25,0.561-0.56,0.561h-22.398c-0.219,0-0.419-0.128-0.509-0.328c-0.091-0.199-0.058-0.435,0.087-0.6
				c0.403-0.465,10.194-11.395,36.241-13.07c0.152-0.012,0.306,0.045,0.419,0.151c0.113,0.104,0.177,0.252,0.177,0.408v22.526
				C562.593,820.49,562.343,820.741,562.033,820.741z"
			/>
			<path
				fill="#AD8726"
				d="M562.033,585.084c-0.298,0-0.546-0.234-0.56-0.532c-0.007-0.15-0.783-15.015-6.261-18.549
				c-2.109-1.361-3.832-1.338-4.85,0.061c-0.958,1.314-0.849,3.27-0.092,3.889c0.183,0.15,0.252,0.398,0.173,0.621
				c-0.079,0.224-0.291,0.372-0.527,0.372H440.354c-0.31,0-0.561-0.25-0.561-0.56s0.251-0.561,0.561-0.561h108.491
				c-0.536-1.272-0.34-3.113,0.613-4.421c0.516-0.711,2.502-2.832,6.362-0.342c3.025,1.952,4.717,6.769,5.652,11.121v-17.499
				H381.168v21.368c20.749-1.466,30.938-9.053,33.918-11.72h-20.462v4.479c0,0.31-0.25,0.56-0.56,0.56s-0.56-0.25-0.56-0.56v-5.04
				c0-0.31,0.25-0.56,0.56-0.56h22.398c0.219,0,0.419,0.128,0.51,0.328c0.09,0.199,0.057,0.434-0.088,0.6
				c-0.403,0.465-10.194,11.395-36.241,13.07c-0.153,0.017-0.306-0.044-0.419-0.151c-0.113-0.105-0.177-0.253-0.177-0.408v-22.526
				c0-0.31,0.25-0.561,0.56-0.561h181.426c0.31,0,0.56,0.251,0.56,0.561v26.399c0,0.304-0.243,0.552-0.546,0.56
				C562.042,585.084,562.037,585.084,562.033,585.084z"
			/>
		</g>
	</g>
</svg>